#N canvas 609 23 1153 1129 10;
#X floatatom 201 108 5 0 0 0 - - -, f 5;
#X floatatom 200 145 5 0 0 0 - - -, f 5;
#X floatatom 200 181 5 0 0 0 - - -, f 5;
#X floatatom 201 72 5 0 0 0 - - -, f 5;
#X text 241 71 on/off;
#X text 238 143 pen y;
#X text 238 107 pen x;
#X floatatom 502 67 5 0 0 0 - - -, f 5;
#X floatatom 502 105 5 0 0 0 - - -, f 5;
#X floatatom 502 142 5 0 0 0 - - -, f 5;
#X floatatom 502 178 5 0 0 0 - - -, f 5;
#X text 541 105 >>;
#X text 543 67 <<;
#X text 541 141 FN1;
#X text 542 177 FN2;
#X floatatom 385 70 5 0 0 0 - - -, f 5;
#X floatatom 385 105 5 0 0 0 - - -, f 5;
#X floatatom 385 140 5 0 0 0 - - -, f 5;
#X text 424 68 on/off;
#X text 423 139 eraser y;
#X text 424 105 eraser x;
#X obj 201 91 r penx;
#X obj 201 55 r penprox;
#X obj 200 128 r peny;
#X obj 200 164 r penpres;
#X obj 385 53 r erprox;
#X obj 385 88 r erx;
#X obj 385 123 r ery;
#X text 237 179 pen pressure;
#X floatatom 500 453 5 0 0 0 - - -, f 5;
#X obj 443 344 gemhead;
#X floatatom 450 454 5 0 0 0 - - -, f 5;
#X obj 443 482 translateXYZ;
#N canvas 87 154 247 179 Gem.init 0;
#X obj 118 46 loadbang;
#X msg 118 81 reset;
#X obj 118 113 outlet;
#X connect 0 0 1 0;
#X connect 1 0 2 0;
#X restore 12 144 pd Gem.init;
#N canvas 340 107 682 322 gemwin 0;
#X obj 102 122 tgl 15 0 \$0-gemstart \$0-gemstart empty 17 7 0 10 -4034
-1 -1 0 1;
#X obj 102 161 r \$0-gemstart;
#X obj 102 182 select 1 0;
#X msg 102 214 create \, 1;
#X msg 177 215 destroy;
#X obj 102 239 t a;
#X obj 318 54 inlet;
#X obj 318 255 gemwin;
#X obj 318 100 t a a;
#X obj 318 287 outlet;
#X obj 350 128 route create destroy;
#X obj 350 150 t b;
#X msg 350 172 1;
#X obj 390 150 t b;
#X msg 390 172 0;
#X obj 350 195 t f;
#X msg 350 219 set \$1;
#X obj 16 105 loadbang;
#X text 127 121 open;
#X connect 1 0 2 0;
#X connect 2 0 3 0;
#X connect 2 1 4 0;
#X connect 3 0 5 0;
#X connect 4 0 5 0;
#X connect 5 0 8 0;
#X connect 6 0 8 0;
#X connect 7 0 9 0;
#X connect 8 0 7 0;
#X connect 8 1 10 0;
#X connect 10 0 11 0;
#X connect 10 1 13 0;
#X connect 11 0 12 0;
#X connect 12 0 15 0;
#X connect 13 0 14 0;
#X connect 14 0 15 0;
#X connect 15 0 16 0;
#X connect 16 0 0 0;
#X coords 0 -1 1 1 85 40 1 100 100;
#X restore 12 167 pd gemwin;
#X obj 11 122 Gem;
#X obj 500 409 * 7.6;
#X obj 450 433 - 3.8;
#X obj 500 433 - 3.8;
#X obj 500 387 r peny;
#X obj 450 387 r penx;
#X obj 550 387 r penpres;
#X obj 11 99 loadbang;
#X msg 36 628 0 0 0;
#X msg 972 445 1 1 1;
#X obj 36 370 sel 0 1;
#X obj 36 347 r penprox;
#X obj 443 365 color 0 0 0;
#X msg 1001 587 0 255 255;
#X text 1071 588 AQUA;
#X msg 997 509 255 0 0;
#X text 1055 510 RED;
#X text 79 629 BLACK;
#X text 1014 445 WHITE;
#X msg 999 565 0 255 0;
#X text 1054 564 GREEN;
#X msg 995 535 255 255 0;
#X text 1067 538 YELLOW;
#X text 1063 611 BLUE;
#X msg 1005 612 0 0 255;
#X text 1065 484 MAGENTA;
#X msg 993 481 255 0 255;
#X obj 993 331 * 10;
#X floatatom 993 378 5 0 0 0 - - -, f 5;
#X obj 993 356 int;
#X obj 972 424 lbang;
#X msg 967 377 1;
#X obj 993 401 sel 4 5 6 7 8 9 10 1;
#X floatatom 125 370 5 0 0 0 - - -, f 5;
#X obj 125 389 sel 1;
#X obj 125 411 bng 15 250 50 0 empty empty empty 17 7 0 10 -262144
-1 -1;
#X floatatom 125 464 5 0 0 0 - - -, f 5;
#X floatatom 185 370 5 0 0 0 - - -, f 5;
#X obj 185 390 sel 1;
#X obj 185 411 bng 15 250 50 0 empty empty empty 17 7 0 10 -262144
-1 -1;
#X obj 242 421 bng 15 250 50 0 empty empty empty 17 7 0 10 -262144
-1 -1;
#X msg 141 608 0 255 255;
#X text 211 609 AQUA;
#X msg 191 548 255 0 0;
#X text 249 549 RED;
#X msg 224 508 0 255 0;
#X text 279 508 GREEN;
#X msg 207 528 255 255 0;
#X text 279 530 YELLOW;
#X text 216 589 BLUE;
#X msg 158 588 0 0 255;
#X text 245 568 MAGENTA;
#X msg 174 568 255 0 255;
#X text 167 628 WHITE;
#X msg 125 628 1 1 1;
#X floatatom 550 433 5 0 0 0 - - -, f 5;
#X obj 47 574 lbang;
#X obj 47 596 t b b;
#X obj 125 442 counter 0 6;
#X obj 125 485 sel 0 1 2 3 4 5 6;
#X text 46 556 RESET;
#X msg 59 397 bang;
#X floatatom 624 434 5 0 0 0 - - -, f 5;
#X obj 624 452 * 0.5;
#X floatatom 624 473 5 0 0 0 - - -, f 5;
#X obj 450 409 * 7.6;
#X obj 550 409 * 2;
#X obj 624 413 expr 7.6 - ($f2 * 2);
#X obj 443 504 circle 0.2;
#X obj 517 344 r colsel;
#X obj 113 660 s colsel;
#X obj 40 789 r penx;
#X floatatom 40 811 5 0 0 0 - - -, f 5;
#X obj 40 947 *~;
#X obj 40 975 dac~;
#X obj 40 830 * 1000;
#X floatatom 40 852 5 0 0 0 - - -, f 5;
#X obj 40 903 osc~;
#X obj 97 788 r penpres;
#X floatatom 97 827 5 0 0 0 - - -, f 5;
#X obj 97 917 line~;
#X msg 97 893 \$1 20;
#X obj 170 788 r penprox;
#X obj 170 810 sel 0;
#X msg 170 832 0;
#X floatatom 199 216 5 0 0 0 - - -, f 5;
#N canvas 52 63 624 1087 plan 0;
#X text 59 91 1.2 DESCRIPTION;
#X text 61 215 1.3 ANALYSE DES BESOINS;
#X text 64 411 1.4 ACQUISITION DES CONNAISSANCES;
#X text 65 556 1.5 MODÈLE;
#X text 65 768 1.6 MÉTHODES;
#X obj 263 1219 entrée des données osc de la tablette;
#X obj 47 1295 effet audio a;
#X obj 174 1294 effet audio b;
#X obj 241 1424 output;
#X obj 304 1372 système d'enregistrement;
#X obj 194 1166 bng 8 250 50 0 empty empty empty 17 7 0 10 -262144
-1 -1;
#X obj 303 1165 bng 8 250 50 0 empty empty empty 17 7 0 10 -262144
-1 -1;
#X obj 518 1236 bng 8 250 50 0 empty empty empty 17 7 0 10 -1 -1 -1
;
#X obj 107 1287 bng 8 250 50 0 empty empty empty 17 7 0 10 -262144
-1 -1;
#X obj 107 1312 bng 8 250 50 0 empty empty empty 17 7 0 10 -262144
-1 -1;
#X obj 174 1311 bng 8 250 50 0 empty empty empty 17 7 0 10 -262144
-1 -1;
#X obj 174 1286 bng 8 250 50 0 empty empty empty 17 7 0 10 -262144
-1 -1;
#X obj 304 1365 bng 8 250 50 0 empty empty empty 17 7 0 10 -262144
-1 -1;
#X obj 304 1389 bng 8 250 50 0 empty empty empty 17 7 0 10 -262144
-1 -1;
#X obj 241 1416 bng 8 250 50 0 empty empty empty 17 7 0 10 -262144
-1 -1;
#X obj 304 1415 bng 8 250 50 0 empty empty empty 17 7 0 10 -262144
-1 -1;
#X obj 304 1423 exportation fichier audio;
#X obj 194 1212 bng 8 250 50 0 empty empty empty 17 7 0 10 -262144
-1 -1;
#X obj 194 1237 bng 8 250 50 0 empty empty empty 17 7 0 10 -262144
-1 -1;
#X obj 209 1237 bng 8 250 50 0 empty empty empty 17 7 0 10 -262144
-1 -1;
#X obj 209 1212 bng 8 250 50 0 empty empty empty 17 7 0 10 -262144
-1 -1;
#X obj 225 1212 bng 8 250 50 0 empty empty empty 17 7 0 10 -262144
-1 -1;
#X obj 225 1237 bng 8 250 50 0 empty empty empty 17 7 0 10 -262144
-1 -1;
#X obj 304 1310 bng 8 250 50 0 empty empty empty 17 7 0 10 -262144
-1 -1;
#X obj 304 1286 bng 8 250 50 0 empty empty empty 17 7 0 10 -262144
-1 -1;
#X obj 304 1294 effet audio c;
#X obj 159 1220 gate a b c;
#X obj 114 1149 signal audio;
#X obj 230 1149 son importé;
#X obj 134 1287 bng 8 250 50 0 empty empty empty 17 7 0 10 -1 -1 -1
;
#X obj 261 1287 bng 8 250 50 0 empty empty empty 17 7 0 10 -1 -1 -1
;
#X obj 390 1286 bng 8 250 50 0 empty empty empty 17 7 0 10 -1 -1 -1
;
#X obj 518 1284 bng 8 250 50 0 empty empty empty 17 7 0 10 -1 -1 -1
;
#X text 66 1087 Effets visuels : Apprentissage des différentes techniques
de manipulations visuelles (couleurs \, formes \, grosseur \, espace
\, etc.;
#X text 63 512 Recherche sur les différents effets visuels de base
qui réagissent en fonction du son;
#X text 64 574 Signal audio : Un fichier audio ou un instrument;
#X text 65 681 Traitement visuel : Variations d'effets visuels (formes
\, couleurs \, etc);
#X text 61 31 1.1 ÉNONCÉ;
#X text 63 633 Traitements sonores : Différents effets audios comme
la distortion \, la réverbération \, le delai \, les filtres et la
granulation.;
#X obj 424 1292 Effets visuels;
#X text 61 355 Enregistrement : Un système de stockage des données
pour l'enregistrement \, l'importation et l'exportaiton des sons;
#X text 61 231 Matériel : Une tablette graphique;
#X text 60 252 Contrôles de la tablette : Une communication OSC qui
fera le lien entre la tablette et le logiciel utilisé;
#X text 60 287 Contrôles graphique : Une interface permettant des
effets visuels;
#X text 63 430 Recherche sur la communication des logiciels en OSC
->http://opensoundcontrol.org/introduction-osc ->https://osculator.net/
;
#X text 54 1488 1.7 IMPLÉMENTATION;
#X text 60 1632 1.8 TEST ET MAINTENANCE;
#X text 65 784 Gestion des données audio : La source audio proviendra
soit d'un instrument à l'entrée ou d'un son importé. Ensuite \,
le signal audio sera dirigé vers une gate où la sélection des effets
audio sera faite. Les effets audio seront donc en parallèle. Le signal
sera ensuite dirigé vers la sortie audio ou vers le système d'enregistrement
qui \, celui-ci \, permettra l'exportation du fichier audio. Le signal
audio est représenté avec les connexions en blanc dans le schéma
ci-dessous.;
#X text 65 912 Gestions des données OSC : Les données enregistrés
par la tablette seront dirigées vers les contrôles des effets audio
et des effets visuels. Les données de la tablette sont : la position
x \, y et z (la pression du crayon) \, de la pointe et de l'efface
du crayon \, quatre boutons \, une roulette et un bouton sur le crayon.
Les envois des données de la tablette sont indiqués en noir.;
#X text 65 1015 Effets audio (traitements sonores) : Pour la réalisation
des traitements sonores \, je mettrai en oeuvres les connaissances
acquises dans le cours Analyse et traitements sonores en temps réel
1 en élaborant un peu plus sur le traitement.;
#X text 60 108 Le logiciel permettra de contrôler des effets audio
à l'aide d'une tablette graphique. Une interface visuelle en réaction
avec les contrôles des effets permettra de reconnaître et de visualiser
l'effet appliqué en image. Il sera possible d'importer des sons par
des fichiers audio ou de les enregistrer à même le programme.;
#X text 63 597 Tablette graphique : A comme fonction de contrôler
les traitements audio et visuels;
#X text 65 715 Système d'enregistrement : Gestion du stockage des
données;
#X text 63 478 Recherche sur les différents effets audio qui seraient
intéressant à ajouter au logiciel;
#X text 60 321 Contrôles audio : Une interface permettant les traitements
sonores;
#X text 61 1840 Effets visuels : J’ai fait quelques lectures sur
la librairie Gem et je suis arrivée à programmer un cercle qui bouge
en fonction de la position du crayon et qui grossit selon la pression
du crayon sur la tablette. J'ai aussi ajouté un petit système de
sélection de couleur pour le cercle. La semaine prochaine consistera
à lire davantage sur la librairie gem et j'essayerai de créer des
effets visuels plus intéressant.;
#X text 60 1653 SEMAINE 2;
#X text 59 1510 Le logiciel Pure Data est l'environnement utilisé
pour ce projet. J'ai besoin d'apprendre la librairie Gem qui s'occupera
de créer une interface visuelle. L'application OSCulator est utilisée
pour transformer les données de la tablette en signal OSC et les envois
vers Pure Data. La librairie Peach sert à faire le routing des informations
reçues afin de les séparer.;
#X text 61 1670 Gestion des données OSC : Plusieurs tests de compatibilité
ont été fait avec la tablette Wacom intuos cth 490 et après les
réponses des développeurs de OSCulator \, il en convient que des
mises à jour devront être faites pour que la tablette soit compatible.
Après maintes recherches \, je me suis résolue à acheter une tablette
Wacom usagée compatible avec OSCulator puisqu'il fallait que je commence
à faire quelques tests avec une tablette fonctionnelle. Je me suis
questionnée sur les moyens de gérer les informations de la tablette
dans Pd et je suis tombée sur la chaine de Rafael Hernandez où il
explique la librairie Peach : https://www.youtube.com/watch?v=rxHIJx-O3iU.
;
#X text 324 1150 <-source sonore;
#X text 62 47 Traitements audiovisuels par le crayon / Stylist Control
Audiovisual Treatment;
#X connect 10 0 22 0;
#X connect 10 0 25 0;
#X connect 10 0 26 0;
#X connect 11 0 22 0;
#X connect 11 0 25 0;
#X connect 11 0 26 0;
#X connect 12 0 34 0;
#X connect 12 0 35 0;
#X connect 12 0 36 0;
#X connect 12 0 37 0;
#X connect 14 0 17 0;
#X connect 14 0 19 0;
#X connect 15 0 17 0;
#X connect 15 0 19 0;
#X connect 18 0 19 0;
#X connect 18 0 20 0;
#X connect 23 0 13 0;
#X connect 24 0 16 0;
#X connect 27 0 29 0;
#X connect 28 0 17 0;
#X connect 28 0 19 0;
#X restore 9 55 pd plan de travail;
#X obj 502 50 r but1;
#X obj 502 88 r but2;
#X obj 502 125 r but3;
#X obj 502 161 r but4;
#X obj 125 347 r but2;
#X obj 185 347 r but1;
#X obj 199 199 r penbut2;
#X obj 993 310 r ring;
#X obj 304 54 r ring;
#X floatatom 304 71 5 0 0 0 - - -, f 5;
#X text 239 213 pen button 1;
#X text 382 35 ERASER;
#X text 302 36 RING;
#X text 200 37 PEN;
#X text 499 34 BUTTONS;
#X text 35 324 C O L O R _ S E L E C T I O N;
#X text 440 313 C I R C L E _ S I Z E;
#X text 546 371 To compensated the size of the point with the window
;
#X text 258 420 reverse;
#N canvas 914 156 510 702 routing 0;
#X obj 147 76 unpackOSC;
#X obj 147 96 routeOSC /wacom;
#X obj 147 116 routeOSC /1;
#X obj 147 145 routeOSC /pen /key /eraser;
#X obj 147 491 routeOSC /0;
#X obj 266 207 routeOSC /0;
#X text 161 472 PEN;
#X obj 206 339 routeOSC /1 /2 /3 /4;
#X obj 27 339 routeOSC /ring;
#X obj 27 360 routeOSC /1;
#X obj 266 227 routeOSC /proximity /0 /1;
#X text 275 186 ERASER;
#X obj 147 56 udpreceive 9000;
#X obj 147 634 s penprox;
#X obj 196 614 s penx;
#X obj 246 595 s peny;
#X obj 296 575 s penpres;
#X obj 266 270 s erprox;
#X obj 323 248 s erx;
#X obj 380 248 s ery;
#X obj 147 512 routeOSC /proximity /0 /1 /4 /button;
#X obj 346 533 routeOSC /2;
#X text 20 9 *Names may vary from one tablet to another;
#X obj 346 554 s penbut2;
#X obj 206 420 s but1;
#X obj 240 400 s but2;
#X obj 274 381 s but3;
#X obj 308 361 s but4;
#X obj 27 381 s ring;
#X text 46 320 RING;
#X text 219 316 BUTTONS;
#X connect 0 0 1 0;
#X connect 1 0 2 0;
#X connect 2 0 3 0;
#X connect 2 0 8 0;
#X connect 3 0 4 0;
#X connect 3 1 7 0;
#X connect 3 2 5 0;
#X connect 4 0 20 0;
#X connect 5 0 10 0;
#X connect 7 0 24 0;
#X connect 7 1 25 0;
#X connect 7 2 26 0;
#X connect 7 3 27 0;
#X connect 8 0 9 0;
#X connect 9 0 28 0;
#X connect 10 0 17 0;
#X connect 10 1 18 0;
#X connect 10 2 19 0;
#X connect 12 0 0 0;
#X connect 20 0 13 0;
#X connect 20 1 14 0;
#X connect 20 2 15 0;
#X connect 20 3 16 0;
#X connect 20 4 21 0;
#X connect 21 0 23 0;
#X restore 9 34 pd routing;
#X text 198 8 T A B L E T _ C O N T R O L S;
#X obj 248 367 counter 0 1000;
#X obj 297 342 bng 15 250 50 0 empty empty empty 17 7 0 10 -262144
-1 -1;
#X obj 248 394 sel 0;
#X floatatom 308 393 5 0 0 0 - - -, f 5;
#X text 38 759 TEST WITH X AND PRESSURE;
#X text 242 758 teremin;
#X obj 100 858 hsl 128 15 0 1 0 0 empty empty empty -2 -8 0 10 -262144
-1 -1 0 1;
#X text 134 858 volume;
#X connect 21 0 0 0;
#X connect 22 0 3 0;
#X connect 23 0 1 0;
#X connect 24 0 2 0;
#X connect 25 0 15 0;
#X connect 26 0 16 0;
#X connect 27 0 17 0;
#X connect 29 0 32 2;
#X connect 30 0 47 0;
#X connect 31 0 32 1;
#X connect 32 0 103 0;
#X connect 33 0 34 0;
#X connect 36 0 38 0;
#X connect 37 0 31 0;
#X connect 38 0 29 0;
#X connect 39 0 36 0;
#X connect 40 0 100 0;
#X connect 41 0 101 0;
#X connect 42 0 35 0;
#X connect 43 0 105 0;
#X connect 45 0 43 0;
#X connect 45 1 96 0;
#X connect 46 0 45 0;
#X connect 47 0 32 0;
#X connect 62 0 64 0;
#X connect 63 0 67 0;
#X connect 64 0 63 0;
#X connect 65 0 44 0;
#X connect 66 0 63 0;
#X connect 67 0 61 0;
#X connect 67 1 50 0;
#X connect 67 2 56 0;
#X connect 67 3 54 0;
#X connect 67 4 48 0;
#X connect 67 5 59 0;
#X connect 67 7 44 0;
#X connect 68 0 69 0;
#X connect 69 0 70 0;
#X connect 70 0 93 0;
#X connect 71 0 94 0;
#X connect 72 0 73 0;
#X connect 73 0 74 0;
#X connect 74 0 93 0;
#X connect 75 0 93 1;
#X connect 76 0 105 0;
#X connect 78 0 105 0;
#X connect 82 0 105 0;
#X connect 85 0 105 0;
#X connect 87 0 105 0;
#X connect 89 0 105 0;
#X connect 90 0 32 3;
#X connect 90 0 102 1;
#X connect 91 0 92 0;
#X connect 92 0 43 0;
#X connect 92 1 89 0;
#X connect 93 0 71 0;
#X connect 94 0 89 0;
#X connect 94 1 76 0;
#X connect 94 2 85 0;
#X connect 94 3 87 0;
#X connect 94 4 78 0;
#X connect 94 5 82 0;
#X connect 94 6 80 0;
#X connect 96 0 71 0;
#X connect 97 0 98 0;
#X connect 97 0 36 1;
#X connect 97 0 100 1;
#X connect 98 0 99 0;
#X connect 99 0 38 1;
#X connect 99 0 37 1;
#X connect 100 0 37 0;
#X connect 101 0 90 0;
#X connect 101 0 102 0;
#X connect 102 0 97 0;
#X connect 104 0 47 1;
#X connect 106 0 107 0;
#X connect 107 0 110 0;
#X connect 108 0 109 0;
#X connect 108 0 109 1;
#X connect 110 0 111 0;
#X connect 111 0 112 0;
#X connect 112 0 108 0;
#X connect 113 0 114 0;
#X connect 114 0 149 0;
#X connect 115 0 108 1;
#X connect 116 0 115 0;
#X connect 117 0 118 0;
#X connect 118 0 119 0;
#X connect 119 0 114 0;
#X connect 122 0 7 0;
#X connect 123 0 8 0;
#X connect 124 0 9 0;
#X connect 125 0 10 0;
#X connect 126 0 68 0;
#X connect 127 0 72 0;
#X connect 128 0 120 0;
#X connect 129 0 62 0;
#X connect 130 0 131 0;
#X connect 143 0 145 0;
#X connect 143 0 146 0;
#X connect 144 0 143 3;
#X connect 149 0 116 0;
