#N canvas 177 559 918 594 10;
#N canvas 48 38 759 1031 delay 0;
#X obj 96 181 delay~ 22050 22050;
#X obj 314 142 hsl 128 15 0 22050 0 0 empty empty Time 40 8 0 10 -262144
-1 -1 4904 1;
#X obj 397 312 hsl 128 15 0 1 0 0 empty empty Wet_Vol 40 8 0 10 -262144
-1 -1 0 1;
#X obj 106 224 delay~ 22050 22050;
#X obj 116 270 delay~ 22050 22050;
#X obj 126 316 delay~ 22050 22050;
#X obj 136 361 delay~ 22050 22050;
#X obj 311 184 line~;
#X obj 311 163 \$1 100;
#X obj 146 407 delay~ 22050 22050;
#X obj 156 453 delay~ 22050 22050;
#X obj 166 499 delay~ 22050 22050;
#X obj 96 203 *~ 0.9;
#X obj 106 248 *~ 0;
#X obj 116 294 *~ 0;
#X obj 126 340 *~ 0;
#X obj 136 385 *~ 0;
#X obj 146 431 *~ 0;
#X obj 156 477 *~ 0;
#X obj 166 523 *~ 0;
#X obj 40 48 inlet~;
#X obj 313 39 inlet;
#X obj 494 51 inlet;
#X obj 61 979 outlet~;
#X obj 174 548 delay~ 22050 22050;
#X obj 174 572 *~ 0;
#X obj 192 599 delay~ 22050 22050;
#X obj 192 623 *~ 0;
#X obj 204 648 delay~ 22050 22050;
#X obj 204 672 *~ 0;
#X obj 218 701 delay~ 22050 22050;
#X obj 218 725 *~ 0;
#X obj 229 748 delay~ 22050 22050;
#X obj 229 772 *~ 0;
#X obj 242 796 delay~ 22050 22050;
#X obj 242 820 *~ 0;
#X obj 246 850 delay~ 22050 22050;
#X obj 246 874 *~ 0;
#X obj 263 970 outlet~;
#X connect 0 0 12 0;
#X connect 1 0 8 0;
#X connect 2 0 13 1;
#X connect 2 0 14 1;
#X connect 2 0 15 1;
#X connect 2 0 16 1;
#X connect 2 0 17 1;
#X connect 2 0 18 1;
#X connect 2 0 19 1;
#X connect 2 0 25 1;
#X connect 2 0 27 1;
#X connect 2 0 29 1;
#X connect 2 0 31 1;
#X connect 2 0 33 1;
#X connect 2 0 35 1;
#X connect 2 0 37 1;
#X connect 3 0 13 0;
#X connect 4 0 14 0;
#X connect 5 0 15 0;
#X connect 6 0 16 0;
#X connect 7 0 0 1;
#X connect 7 0 3 1;
#X connect 7 0 4 1;
#X connect 7 0 5 1;
#X connect 7 0 6 1;
#X connect 7 0 9 1;
#X connect 7 0 10 1;
#X connect 7 0 11 1;
#X connect 7 0 24 1;
#X connect 7 0 26 1;
#X connect 7 0 28 1;
#X connect 7 0 30 1;
#X connect 7 0 32 1;
#X connect 7 0 34 1;
#X connect 7 0 36 1;
#X connect 8 0 7 0;
#X connect 9 0 17 0;
#X connect 10 0 18 0;
#X connect 11 0 19 0;
#X connect 12 0 3 0;
#X connect 12 0 23 0;
#X connect 13 0 4 0;
#X connect 13 0 23 0;
#X connect 14 0 5 0;
#X connect 14 0 23 0;
#X connect 15 0 6 0;
#X connect 15 0 23 0;
#X connect 16 0 9 0;
#X connect 16 0 23 0;
#X connect 17 0 10 0;
#X connect 17 0 23 0;
#X connect 18 0 11 0;
#X connect 18 0 23 0;
#X connect 19 0 23 0;
#X connect 19 0 24 0;
#X connect 20 0 0 0;
#X connect 21 0 1 0;
#X connect 22 0 2 0;
#X connect 24 0 25 0;
#X connect 25 0 26 0;
#X connect 25 0 23 0;
#X connect 26 0 27 0;
#X connect 27 0 23 0;
#X connect 27 0 28 0;
#X connect 28 0 29 0;
#X connect 29 0 23 0;
#X connect 29 0 30 0;
#X connect 30 0 31 0;
#X connect 31 0 23 0;
#X connect 31 0 32 0;
#X connect 32 0 33 0;
#X connect 33 0 23 0;
#X connect 33 0 34 0;
#X connect 34 0 35 0;
#X connect 35 0 23 0;
#X connect 35 0 36 0;
#X connect 36 0 37 0;
#X connect 37 0 23 0;
#X connect 37 0 38 0;
#X restore 726 89 pd delay;
#X obj 692 50 inlet~ R;
#X obj 539 42 inlet~ L;
#X obj 696 534 outlet~ R;
#X obj 539 536 outlet~ L;
#X obj 102 102 cnv 15 146 166 empty empty DELAY 50 12 0 14 -257983
-99865 0;
#X obj 112 156 hsl 128 15 10 22050 0 0 empty empty Speed_L 40 8 0 10
-253011 -1 -262144 4900 1;
#X obj 112 217 hsl 128 15 0 1 0 0 empty empty Length_L 40 8 0 10 -253011
-1 -262144 0 1;
#X obj 112 235 hsl 128 15 0 1 0 0 empty empty Length_R 40 8 0 10 -253011
-1 -262144 0 1;
#X obj 112 174 hsl 128 15 10 22050 0 0 empty empty Speed_R 40 8 0 10
-253011 -1 -262144 4900 1;
#X obj 112 199 hsl 128 15 0 1 0 0 empty empty Length 40 8 0 10 -262144
-1 -253011 0 1;
#X obj 112 138 hsl 128 15 10 22050 0 0 empty empty Speed 40 8 0 10
-262144 -1 -253011 4900 1;
#X obj 227 108 tgl 15 0 empty empty empty 17 7 0 10 -253011 -262144
-1 0 1;
#X obj 696 490 +~;
#N canvas 48 38 759 1031 delay 0;
#X obj 96 181 delay~ 22050 22050;
#X obj 314 142 hsl 128 15 0 22050 0 0 empty empty Time 40 8 0 10 -262144
-1 -1 4904 1;
#X obj 397 312 hsl 128 15 0 1 0 0 empty empty Wet_Vol 40 8 0 10 -262144
-1 -1 0 1;
#X obj 106 224 delay~ 22050 22050;
#X obj 116 270 delay~ 22050 22050;
#X obj 126 316 delay~ 22050 22050;
#X obj 136 361 delay~ 22050 22050;
#X obj 311 184 line~;
#X obj 311 163 \$1 100;
#X obj 146 407 delay~ 22050 22050;
#X obj 156 453 delay~ 22050 22050;
#X obj 166 499 delay~ 22050 22050;
#X obj 96 203 *~ 0.9;
#X obj 106 248 *~ 0;
#X obj 116 294 *~ 0;
#X obj 126 340 *~ 0;
#X obj 136 385 *~ 0;
#X obj 146 431 *~ 0;
#X obj 156 477 *~ 0;
#X obj 166 523 *~ 0;
#X obj 40 48 inlet~;
#X obj 313 39 inlet;
#X obj 494 51 inlet;
#X obj 61 979 outlet~;
#X obj 174 548 delay~ 22050 22050;
#X obj 174 572 *~ 0;
#X obj 192 599 delay~ 22050 22050;
#X obj 192 623 *~ 0;
#X obj 204 648 delay~ 22050 22050;
#X obj 204 672 *~ 0;
#X obj 218 701 delay~ 22050 22050;
#X obj 218 725 *~ 0;
#X obj 229 748 delay~ 22050 22050;
#X obj 229 772 *~ 0;
#X obj 242 796 delay~ 22050 22050;
#X obj 242 820 *~ 0;
#X obj 246 850 delay~ 22050 22050;
#X obj 246 874 *~ 0;
#X obj 263 970 outlet~;
#X connect 0 0 12 0;
#X connect 1 0 8 0;
#X connect 2 0 13 1;
#X connect 2 0 14 1;
#X connect 2 0 15 1;
#X connect 2 0 16 1;
#X connect 2 0 17 1;
#X connect 2 0 18 1;
#X connect 2 0 19 1;
#X connect 2 0 25 1;
#X connect 2 0 27 1;
#X connect 2 0 29 1;
#X connect 2 0 31 1;
#X connect 2 0 33 1;
#X connect 2 0 35 1;
#X connect 2 0 37 1;
#X connect 3 0 13 0;
#X connect 4 0 14 0;
#X connect 5 0 15 0;
#X connect 6 0 16 0;
#X connect 7 0 0 1;
#X connect 7 0 3 1;
#X connect 7 0 4 1;
#X connect 7 0 5 1;
#X connect 7 0 6 1;
#X connect 7 0 9 1;
#X connect 7 0 10 1;
#X connect 7 0 11 1;
#X connect 7 0 24 1;
#X connect 7 0 26 1;
#X connect 7 0 28 1;
#X connect 7 0 30 1;
#X connect 7 0 32 1;
#X connect 7 0 34 1;
#X connect 7 0 36 1;
#X connect 8 0 7 0;
#X connect 9 0 17 0;
#X connect 10 0 18 0;
#X connect 11 0 19 0;
#X connect 12 0 3 0;
#X connect 12 0 23 0;
#X connect 13 0 4 0;
#X connect 13 0 23 0;
#X connect 14 0 5 0;
#X connect 14 0 23 0;
#X connect 15 0 6 0;
#X connect 15 0 23 0;
#X connect 16 0 9 0;
#X connect 16 0 23 0;
#X connect 17 0 10 0;
#X connect 17 0 23 0;
#X connect 18 0 11 0;
#X connect 18 0 23 0;
#X connect 19 0 23 0;
#X connect 19 0 24 0;
#X connect 20 0 0 0;
#X connect 21 0 1 0;
#X connect 22 0 2 0;
#X connect 24 0 25 0;
#X connect 25 0 26 0;
#X connect 25 0 23 0;
#X connect 26 0 27 0;
#X connect 27 0 23 0;
#X connect 27 0 28 0;
#X connect 28 0 29 0;
#X connect 29 0 23 0;
#X connect 29 0 30 0;
#X connect 30 0 31 0;
#X connect 31 0 23 0;
#X connect 31 0 32 0;
#X connect 32 0 33 0;
#X connect 33 0 23 0;
#X connect 33 0 34 0;
#X connect 34 0 35 0;
#X connect 35 0 23 0;
#X connect 35 0 36 0;
#X connect 36 0 37 0;
#X connect 37 0 23 0;
#X connect 37 0 38 0;
#X restore 736 118 pd delay;
#N canvas 48 38 759 1031 delay 0;
#X obj 96 181 delay~ 22050 22050;
#X obj 314 142 hsl 128 15 0 22050 0 0 empty empty Time 40 8 0 10 -262144
-1 -1 4904 1;
#X obj 397 312 hsl 128 15 0 1 0 0 empty empty Wet_Vol 40 8 0 10 -262144
-1 -1 0 1;
#X obj 106 224 delay~ 22050 22050;
#X obj 116 270 delay~ 22050 22050;
#X obj 126 316 delay~ 22050 22050;
#X obj 136 361 delay~ 22050 22050;
#X obj 311 184 line~;
#X obj 311 163 \$1 100;
#X obj 146 407 delay~ 22050 22050;
#X obj 156 453 delay~ 22050 22050;
#X obj 166 499 delay~ 22050 22050;
#X obj 96 203 *~ 0.9;
#X obj 106 248 *~ 0;
#X obj 116 294 *~ 0;
#X obj 126 340 *~ 0;
#X obj 136 385 *~ 0;
#X obj 146 431 *~ 0;
#X obj 156 477 *~ 0;
#X obj 166 523 *~ 0;
#X obj 40 48 inlet~;
#X obj 313 39 inlet;
#X obj 494 51 inlet;
#X obj 61 979 outlet~;
#X obj 174 548 delay~ 22050 22050;
#X obj 174 572 *~ 0;
#X obj 192 599 delay~ 22050 22050;
#X obj 192 623 *~ 0;
#X obj 204 648 delay~ 22050 22050;
#X obj 204 672 *~ 0;
#X obj 218 701 delay~ 22050 22050;
#X obj 218 725 *~ 0;
#X obj 229 748 delay~ 22050 22050;
#X obj 229 772 *~ 0;
#X obj 242 796 delay~ 22050 22050;
#X obj 242 820 *~ 0;
#X obj 246 850 delay~ 22050 22050;
#X obj 246 874 *~ 0;
#X obj 263 970 outlet~;
#X connect 0 0 12 0;
#X connect 1 0 8 0;
#X connect 2 0 13 1;
#X connect 2 0 14 1;
#X connect 2 0 15 1;
#X connect 2 0 16 1;
#X connect 2 0 17 1;
#X connect 2 0 18 1;
#X connect 2 0 19 1;
#X connect 2 0 25 1;
#X connect 2 0 27 1;
#X connect 2 0 29 1;
#X connect 2 0 31 1;
#X connect 2 0 33 1;
#X connect 2 0 35 1;
#X connect 2 0 37 1;
#X connect 3 0 13 0;
#X connect 4 0 14 0;
#X connect 5 0 15 0;
#X connect 6 0 16 0;
#X connect 7 0 0 1;
#X connect 7 0 3 1;
#X connect 7 0 4 1;
#X connect 7 0 5 1;
#X connect 7 0 6 1;
#X connect 7 0 9 1;
#X connect 7 0 10 1;
#X connect 7 0 11 1;
#X connect 7 0 24 1;
#X connect 7 0 26 1;
#X connect 7 0 28 1;
#X connect 7 0 30 1;
#X connect 7 0 32 1;
#X connect 7 0 34 1;
#X connect 7 0 36 1;
#X connect 8 0 7 0;
#X connect 9 0 17 0;
#X connect 10 0 18 0;
#X connect 11 0 19 0;
#X connect 12 0 3 0;
#X connect 12 0 23 0;
#X connect 13 0 4 0;
#X connect 13 0 23 0;
#X connect 14 0 5 0;
#X connect 14 0 23 0;
#X connect 15 0 6 0;
#X connect 15 0 23 0;
#X connect 16 0 9 0;
#X connect 16 0 23 0;
#X connect 17 0 10 0;
#X connect 17 0 23 0;
#X connect 18 0 11 0;
#X connect 18 0 23 0;
#X connect 19 0 23 0;
#X connect 19 0 24 0;
#X connect 20 0 0 0;
#X connect 21 0 1 0;
#X connect 22 0 2 0;
#X connect 24 0 25 0;
#X connect 25 0 26 0;
#X connect 25 0 23 0;
#X connect 26 0 27 0;
#X connect 27 0 23 0;
#X connect 27 0 28 0;
#X connect 28 0 29 0;
#X connect 29 0 23 0;
#X connect 29 0 30 0;
#X connect 30 0 31 0;
#X connect 31 0 23 0;
#X connect 31 0 32 0;
#X connect 32 0 33 0;
#X connect 33 0 23 0;
#X connect 33 0 34 0;
#X connect 34 0 35 0;
#X connect 35 0 23 0;
#X connect 35 0 36 0;
#X connect 36 0 37 0;
#X connect 37 0 23 0;
#X connect 37 0 38 0;
#X restore 757 141 pd delay;
#N canvas 48 38 759 1031 delay 0;
#X obj 96 181 delay~ 22050 22050;
#X obj 314 142 hsl 128 15 0 22050 0 0 empty empty Time 40 8 0 10 -262144
-1 -1 4904 1;
#X obj 397 312 hsl 128 15 0 1 0 0 empty empty Wet_Vol 40 8 0 10 -262144
-1 -1 0 1;
#X obj 106 224 delay~ 22050 22050;
#X obj 116 270 delay~ 22050 22050;
#X obj 126 316 delay~ 22050 22050;
#X obj 136 361 delay~ 22050 22050;
#X obj 311 184 line~;
#X obj 311 163 \$1 100;
#X obj 146 407 delay~ 22050 22050;
#X obj 156 453 delay~ 22050 22050;
#X obj 166 499 delay~ 22050 22050;
#X obj 96 203 *~ 0.9;
#X obj 106 248 *~ 0;
#X obj 116 294 *~ 0;
#X obj 126 340 *~ 0;
#X obj 136 385 *~ 0;
#X obj 146 431 *~ 0;
#X obj 156 477 *~ 0;
#X obj 166 523 *~ 0;
#X obj 40 48 inlet~;
#X obj 313 39 inlet;
#X obj 494 51 inlet;
#X obj 61 979 outlet~;
#X obj 174 548 delay~ 22050 22050;
#X obj 174 572 *~ 0;
#X obj 192 599 delay~ 22050 22050;
#X obj 192 623 *~ 0;
#X obj 204 648 delay~ 22050 22050;
#X obj 204 672 *~ 0;
#X obj 218 701 delay~ 22050 22050;
#X obj 218 725 *~ 0;
#X obj 229 748 delay~ 22050 22050;
#X obj 229 772 *~ 0;
#X obj 242 796 delay~ 22050 22050;
#X obj 242 820 *~ 0;
#X obj 246 850 delay~ 22050 22050;
#X obj 246 874 *~ 0;
#X obj 263 970 outlet~;
#X connect 0 0 12 0;
#X connect 1 0 8 0;
#X connect 2 0 13 1;
#X connect 2 0 14 1;
#X connect 2 0 15 1;
#X connect 2 0 16 1;
#X connect 2 0 17 1;
#X connect 2 0 18 1;
#X connect 2 0 19 1;
#X connect 2 0 25 1;
#X connect 2 0 27 1;
#X connect 2 0 29 1;
#X connect 2 0 31 1;
#X connect 2 0 33 1;
#X connect 2 0 35 1;
#X connect 2 0 37 1;
#X connect 3 0 13 0;
#X connect 4 0 14 0;
#X connect 5 0 15 0;
#X connect 6 0 16 0;
#X connect 7 0 0 1;
#X connect 7 0 3 1;
#X connect 7 0 4 1;
#X connect 7 0 5 1;
#X connect 7 0 6 1;
#X connect 7 0 9 1;
#X connect 7 0 10 1;
#X connect 7 0 11 1;
#X connect 7 0 24 1;
#X connect 7 0 26 1;
#X connect 7 0 28 1;
#X connect 7 0 30 1;
#X connect 7 0 32 1;
#X connect 7 0 34 1;
#X connect 7 0 36 1;
#X connect 8 0 7 0;
#X connect 9 0 17 0;
#X connect 10 0 18 0;
#X connect 11 0 19 0;
#X connect 12 0 3 0;
#X connect 12 0 23 0;
#X connect 13 0 4 0;
#X connect 13 0 23 0;
#X connect 14 0 5 0;
#X connect 14 0 23 0;
#X connect 15 0 6 0;
#X connect 15 0 23 0;
#X connect 16 0 9 0;
#X connect 16 0 23 0;
#X connect 17 0 10 0;
#X connect 17 0 23 0;
#X connect 18 0 11 0;
#X connect 18 0 23 0;
#X connect 19 0 23 0;
#X connect 19 0 24 0;
#X connect 20 0 0 0;
#X connect 21 0 1 0;
#X connect 22 0 2 0;
#X connect 24 0 25 0;
#X connect 25 0 26 0;
#X connect 25 0 23 0;
#X connect 26 0 27 0;
#X connect 27 0 23 0;
#X connect 27 0 28 0;
#X connect 28 0 29 0;
#X connect 29 0 23 0;
#X connect 29 0 30 0;
#X connect 30 0 31 0;
#X connect 31 0 23 0;
#X connect 31 0 32 0;
#X connect 32 0 33 0;
#X connect 33 0 23 0;
#X connect 33 0 34 0;
#X connect 34 0 35 0;
#X connect 35 0 23 0;
#X connect 35 0 36 0;
#X connect 36 0 37 0;
#X connect 37 0 23 0;
#X connect 37 0 38 0;
#X restore 574 216 pd delay;
#N canvas 48 38 759 1031 delay 0;
#X obj 96 181 delay~ 22050 22050;
#X obj 314 142 hsl 128 15 0 22050 0 0 empty empty Time 40 8 0 10 -262144
-1 -1 4904 1;
#X obj 397 312 hsl 128 15 0 1 0 0 empty empty Wet_Vol 40 8 0 10 -262144
-1 -1 0 1;
#X obj 106 224 delay~ 22050 22050;
#X obj 116 270 delay~ 22050 22050;
#X obj 126 316 delay~ 22050 22050;
#X obj 136 361 delay~ 22050 22050;
#X obj 311 184 line~;
#X obj 311 163 \$1 100;
#X obj 146 407 delay~ 22050 22050;
#X obj 156 453 delay~ 22050 22050;
#X obj 166 499 delay~ 22050 22050;
#X obj 96 203 *~ 0.9;
#X obj 106 248 *~ 0;
#X obj 116 294 *~ 0;
#X obj 126 340 *~ 0;
#X obj 136 385 *~ 0;
#X obj 146 431 *~ 0;
#X obj 156 477 *~ 0;
#X obj 166 523 *~ 0;
#X obj 40 48 inlet~;
#X obj 313 39 inlet;
#X obj 494 51 inlet;
#X obj 61 979 outlet~;
#X obj 174 548 delay~ 22050 22050;
#X obj 174 572 *~ 0;
#X obj 192 599 delay~ 22050 22050;
#X obj 192 623 *~ 0;
#X obj 204 648 delay~ 22050 22050;
#X obj 204 672 *~ 0;
#X obj 218 701 delay~ 22050 22050;
#X obj 218 725 *~ 0;
#X obj 229 748 delay~ 22050 22050;
#X obj 229 772 *~ 0;
#X obj 242 796 delay~ 22050 22050;
#X obj 242 820 *~ 0;
#X obj 246 850 delay~ 22050 22050;
#X obj 246 874 *~ 0;
#X obj 263 970 outlet~;
#X connect 0 0 12 0;
#X connect 1 0 8 0;
#X connect 2 0 13 1;
#X connect 2 0 14 1;
#X connect 2 0 15 1;
#X connect 2 0 16 1;
#X connect 2 0 17 1;
#X connect 2 0 18 1;
#X connect 2 0 19 1;
#X connect 2 0 25 1;
#X connect 2 0 27 1;
#X connect 2 0 29 1;
#X connect 2 0 31 1;
#X connect 2 0 33 1;
#X connect 2 0 35 1;
#X connect 2 0 37 1;
#X connect 3 0 13 0;
#X connect 4 0 14 0;
#X connect 5 0 15 0;
#X connect 6 0 16 0;
#X connect 7 0 0 1;
#X connect 7 0 3 1;
#X connect 7 0 4 1;
#X connect 7 0 5 1;
#X connect 7 0 6 1;
#X connect 7 0 9 1;
#X connect 7 0 10 1;
#X connect 7 0 11 1;
#X connect 7 0 24 1;
#X connect 7 0 26 1;
#X connect 7 0 28 1;
#X connect 7 0 30 1;
#X connect 7 0 32 1;
#X connect 7 0 34 1;
#X connect 7 0 36 1;
#X connect 8 0 7 0;
#X connect 9 0 17 0;
#X connect 10 0 18 0;
#X connect 11 0 19 0;
#X connect 12 0 3 0;
#X connect 12 0 23 0;
#X connect 13 0 4 0;
#X connect 13 0 23 0;
#X connect 14 0 5 0;
#X connect 14 0 23 0;
#X connect 15 0 6 0;
#X connect 15 0 23 0;
#X connect 16 0 9 0;
#X connect 16 0 23 0;
#X connect 17 0 10 0;
#X connect 17 0 23 0;
#X connect 18 0 11 0;
#X connect 18 0 23 0;
#X connect 19 0 23 0;
#X connect 19 0 24 0;
#X connect 20 0 0 0;
#X connect 21 0 1 0;
#X connect 22 0 2 0;
#X connect 24 0 25 0;
#X connect 25 0 26 0;
#X connect 25 0 23 0;
#X connect 26 0 27 0;
#X connect 27 0 23 0;
#X connect 27 0 28 0;
#X connect 28 0 29 0;
#X connect 29 0 23 0;
#X connect 29 0 30 0;
#X connect 30 0 31 0;
#X connect 31 0 23 0;
#X connect 31 0 32 0;
#X connect 32 0 33 0;
#X connect 33 0 23 0;
#X connect 33 0 34 0;
#X connect 34 0 35 0;
#X connect 35 0 23 0;
#X connect 35 0 36 0;
#X connect 36 0 37 0;
#X connect 37 0 23 0;
#X connect 37 0 38 0;
#X restore 590 244 pd delay;
#N canvas 48 38 759 1031 delay 0;
#X obj 96 181 delay~ 22050 22050;
#X obj 314 142 hsl 128 15 0 22050 0 0 empty empty Time 40 8 0 10 -262144
-1 -1 4904 1;
#X obj 397 312 hsl 128 15 0 1 0 0 empty empty Wet_Vol 40 8 0 10 -262144
-1 -1 0 1;
#X obj 106 224 delay~ 22050 22050;
#X obj 116 270 delay~ 22050 22050;
#X obj 126 316 delay~ 22050 22050;
#X obj 136 361 delay~ 22050 22050;
#X obj 311 184 line~;
#X obj 311 163 \$1 100;
#X obj 146 407 delay~ 22050 22050;
#X obj 156 453 delay~ 22050 22050;
#X obj 166 499 delay~ 22050 22050;
#X obj 96 203 *~ 0.9;
#X obj 106 248 *~ 0;
#X obj 116 294 *~ 0;
#X obj 126 340 *~ 0;
#X obj 136 385 *~ 0;
#X obj 146 431 *~ 0;
#X obj 156 477 *~ 0;
#X obj 166 523 *~ 0;
#X obj 40 48 inlet~;
#X obj 313 39 inlet;
#X obj 494 51 inlet;
#X obj 61 979 outlet~;
#X obj 174 548 delay~ 22050 22050;
#X obj 174 572 *~ 0;
#X obj 192 599 delay~ 22050 22050;
#X obj 192 623 *~ 0;
#X obj 204 648 delay~ 22050 22050;
#X obj 204 672 *~ 0;
#X obj 218 701 delay~ 22050 22050;
#X obj 218 725 *~ 0;
#X obj 229 748 delay~ 22050 22050;
#X obj 229 772 *~ 0;
#X obj 242 796 delay~ 22050 22050;
#X obj 242 820 *~ 0;
#X obj 246 850 delay~ 22050 22050;
#X obj 246 874 *~ 0;
#X obj 263 970 outlet~;
#X connect 0 0 12 0;
#X connect 1 0 8 0;
#X connect 2 0 13 1;
#X connect 2 0 14 1;
#X connect 2 0 15 1;
#X connect 2 0 16 1;
#X connect 2 0 17 1;
#X connect 2 0 18 1;
#X connect 2 0 19 1;
#X connect 2 0 25 1;
#X connect 2 0 27 1;
#X connect 2 0 29 1;
#X connect 2 0 31 1;
#X connect 2 0 33 1;
#X connect 2 0 35 1;
#X connect 2 0 37 1;
#X connect 3 0 13 0;
#X connect 4 0 14 0;
#X connect 5 0 15 0;
#X connect 6 0 16 0;
#X connect 7 0 0 1;
#X connect 7 0 3 1;
#X connect 7 0 4 1;
#X connect 7 0 5 1;
#X connect 7 0 6 1;
#X connect 7 0 9 1;
#X connect 7 0 10 1;
#X connect 7 0 11 1;
#X connect 7 0 24 1;
#X connect 7 0 26 1;
#X connect 7 0 28 1;
#X connect 7 0 30 1;
#X connect 7 0 32 1;
#X connect 7 0 34 1;
#X connect 7 0 36 1;
#X connect 8 0 7 0;
#X connect 9 0 17 0;
#X connect 10 0 18 0;
#X connect 11 0 19 0;
#X connect 12 0 3 0;
#X connect 12 0 23 0;
#X connect 13 0 4 0;
#X connect 13 0 23 0;
#X connect 14 0 5 0;
#X connect 14 0 23 0;
#X connect 15 0 6 0;
#X connect 15 0 23 0;
#X connect 16 0 9 0;
#X connect 16 0 23 0;
#X connect 17 0 10 0;
#X connect 17 0 23 0;
#X connect 18 0 11 0;
#X connect 18 0 23 0;
#X connect 19 0 23 0;
#X connect 19 0 24 0;
#X connect 20 0 0 0;
#X connect 21 0 1 0;
#X connect 22 0 2 0;
#X connect 24 0 25 0;
#X connect 25 0 26 0;
#X connect 25 0 23 0;
#X connect 26 0 27 0;
#X connect 27 0 23 0;
#X connect 27 0 28 0;
#X connect 28 0 29 0;
#X connect 29 0 23 0;
#X connect 29 0 30 0;
#X connect 30 0 31 0;
#X connect 31 0 23 0;
#X connect 31 0 32 0;
#X connect 32 0 33 0;
#X connect 33 0 23 0;
#X connect 33 0 34 0;
#X connect 34 0 35 0;
#X connect 35 0 23 0;
#X connect 35 0 36 0;
#X connect 36 0 37 0;
#X connect 37 0 23 0;
#X connect 37 0 38 0;
#X restore 605 268 pd delay;
#X obj 539 486 +~;
#X obj 227 78 r delayonoff;
#X obj 74 393 + 10;
#X obj 74 371 * 22040;
#X obj 170 384 + 10;
#X obj 170 362 * 22040;
#X obj 260 390 + 10;
#X obj 260 368 * 22040;
#X obj 72 350 r penyL_up;
#X obj 257 346 r penyR_up;
#X obj 174 342 r penyC_up;
#X obj 275 439 r penyR_down;
#X obj 169 442 r penyC_down;
#X obj 68 436 r penyL_down;
#X obj 574 304 *~;
#X obj 726 177 *~;
#X obj 574 337 clip~ -1 1;
#X obj 726 333 clip~ -1 1;
#X obj 726 358 lop~ 9000;
#X obj 726 381 lop~ 9000;
#X obj 574 365 lop~ 9000;
#X obj 574 388 lop~ 9000;
#X obj 726 406 lop~ 9000;
#X obj 726 429 lop~ 9000;
#X obj 574 412 lop~ 9000;
#X obj 574 435 lop~ 9000;
#X floatatom 14 185 5 0 0 0 - - -, f 5;
#X obj 14 163 / 44.1;
#X text 53 184 ms;
#X obj 14 207 s delay_ms;
#X connect 0 0 34 0;
#X connect 0 1 14 0;
#X connect 1 0 13 0;
#X connect 1 0 0 0;
#X connect 2 0 19 0;
#X connect 2 0 16 0;
#X connect 6 0 16 1;
#X connect 6 0 17 1;
#X connect 6 0 18 1;
#X connect 7 0 16 2;
#X connect 7 0 17 2;
#X connect 7 0 18 2;
#X connect 8 0 0 2;
#X connect 8 0 14 2;
#X connect 8 0 15 2;
#X connect 9 0 0 1;
#X connect 9 0 14 1;
#X connect 9 0 15 1;
#X connect 10 0 7 0;
#X connect 10 0 8 0;
#X connect 10 0 0 2;
#X connect 10 0 14 2;
#X connect 10 0 15 2;
#X connect 10 0 16 2;
#X connect 10 0 17 2;
#X connect 10 0 18 2;
#X connect 11 0 6 0;
#X connect 11 0 9 0;
#X connect 11 0 0 1;
#X connect 11 0 14 1;
#X connect 11 0 15 1;
#X connect 11 0 16 1;
#X connect 11 0 17 1;
#X connect 11 0 18 1;
#X connect 11 0 46 0;
#X connect 12 0 33 1;
#X connect 12 0 34 1;
#X connect 13 0 3 0;
#X connect 14 0 34 0;
#X connect 14 1 15 0;
#X connect 15 0 34 0;
#X connect 16 0 33 0;
#X connect 16 1 17 0;
#X connect 17 0 33 0;
#X connect 17 1 18 0;
#X connect 18 0 33 0;
#X connect 19 0 4 0;
#X connect 20 0 12 0;
#X connect 21 0 6 0;
#X connect 22 0 21 0;
#X connect 23 0 11 0;
#X connect 24 0 23 0;
#X connect 25 0 9 0;
#X connect 26 0 25 0;
#X connect 27 0 22 0;
#X connect 28 0 26 0;
#X connect 29 0 24 0;
#X connect 30 0 8 0;
#X connect 31 0 10 0;
#X connect 32 0 7 0;
#X connect 33 0 35 0;
#X connect 34 0 36 0;
#X connect 35 0 39 0;
#X connect 36 0 37 0;
#X connect 37 0 38 0;
#X connect 38 0 41 0;
#X connect 39 0 40 0;
#X connect 40 0 43 0;
#X connect 41 0 42 0;
#X connect 42 0 13 1;
#X connect 43 0 44 0;
#X connect 44 0 19 1;
#X connect 45 0 48 0;
#X connect 46 0 45 0;
#X coords 0 -1 1 1 150 170 1 100 100;
