#N canvas 817 220 778 862 10;
#X obj 58 423 *~;
#X obj 58 309 clip~ -1 1;
#X obj 58 254 osc~;
#X obj 58 279 *~ 100;
#X obj 119 233 adsr~ 500 250 0.3 500;
#X obj 120 180 r attack;
#X obj 162 206 r decay;
#X obj 230 206 r release;
#X obj 191 181 r decay_vol;
#X obj 58 657 outlet~;
#X obj 58 60 unpack;
#X obj 58 179 mtof;
#X floatatom 58 85 5 0 0 0 - - -, f 5;
#X floatatom 101 82 5 0 0 0 - - -, f 5;
#X floatatom 58 199 5 0 0 0 - - -, f 5;
#X obj 58 218 sig~;
#X obj 59 34 inlet;
#X obj 155 323 lfo~ 0.1 250 2500;
#X floatatom 225 412 5 0 0 0 - - -, f 5;
#X obj 225 389 r amount_square;
#X floatatom 155 304 5 0 0 0 - - -, f 5;
#X obj 156 280 r speed_square;
#X msg 298 292 0;
#X obj 298 269 loadbang;
#X msg 270 433 0;
#X obj 267 412 loadbang;
#X obj 58 363 vcf~ 0;
#X obj 126 511 * 0.5;
#X obj 58 603 *~ 1;
#X floatatom 126 573 5 0 0 0 - - -, f 5;
#X obj 126 553 expr if ($f1 <= 1 \, 1 \, $f1);
#X obj 126 532 * 2.5;
#X text 173 507 Calcul pour ramener le volume au même niveau lors
du contrôle de l'amount du Lfo (j'ai fait ça à l'oreille);
#X floatatom 58 140 5 0 0 0 - - -, f 5;
#N canvas 935 438 425 381 oct_switch_square 0;
#X obj 204 32 inlet;
#X obj 196 296 outlet;
#X floatatom 204 102 5 0 0 0 - - -, f 5;
#X obj 209 122 + 24;
#X obj 249 188 - 12;
#X obj 263 210 - 24;
#X obj 236 166 + 0;
#X obj 222 144 + 12;
#X obj 196 230 switch 5 2;
#X obj 84 114 + 1;
#X floatatom 84 135 5 0 0 0 - - -, f 5;
#X text 245 123 1;
#X text 260 145 2;
#X text 266 167 3;
#X text 285 189 4;
#X text 299 211 5;
#X msg 43 203 3;
#X obj 43 182 loadbang;
#X text 71 204 3 = 0 octave;
#X obj 43 254 s oct_init;
#X obj 43 230 - 1;
#X obj 84 90 r oct_square;
#X connect 0 0 2 0;
#X connect 2 0 7 0;
#X connect 2 0 3 0;
#X connect 2 0 6 0;
#X connect 2 0 4 0;
#X connect 2 0 5 0;
#X connect 3 0 8 1;
#X connect 4 0 8 4;
#X connect 5 0 8 5;
#X connect 6 0 8 3;
#X connect 7 0 8 2;
#X connect 8 0 1 0;
#X connect 9 0 10 0;
#X connect 10 0 8 0;
#X connect 16 0 8 0;
#X connect 16 0 20 0;
#X connect 17 0 16 0;
#X connect 20 0 19 0;
#X connect 21 0 9 0;
#X restore 58 118 pd oct_switch_square;
#X connect 0 0 28 0;
#X connect 1 0 26 0;
#X connect 2 0 3 0;
#X connect 3 0 1 0;
#X connect 4 0 0 1;
#X connect 5 0 4 1;
#X connect 6 0 4 2;
#X connect 7 0 4 4;
#X connect 8 0 4 3;
#X connect 10 0 12 0;
#X connect 10 1 13 0;
#X connect 11 0 14 0;
#X connect 12 0 34 0;
#X connect 13 0 4 0;
#X connect 14 0 15 0;
#X connect 15 0 2 0;
#X connect 16 0 10 0;
#X connect 17 0 26 1;
#X connect 18 0 26 2;
#X connect 18 0 27 0;
#X connect 19 0 18 0;
#X connect 20 0 17 0;
#X connect 21 0 20 0;
#X connect 22 0 17 0;
#X connect 23 0 22 0;
#X connect 24 0 18 0;
#X connect 25 0 24 0;
#X connect 26 0 0 0;
#X connect 27 0 31 0;
#X connect 28 0 9 0;
#X connect 29 0 28 1;
#X connect 30 0 29 0;
#X connect 31 0 30 0;
#X connect 33 0 11 0;
#X connect 34 0 33 0;
