#N canvas 198 272 485 524 10;
#X obj 171 37 inlet vitesse;
#X obj 17 41 inlet start;
#X floatatom 115 261 5 0 0 0 - - -, f 5;
#X floatatom 115 327 5 0 0 0 - - -, f 5;
#X msg 243 196 bang;
#X floatatom 205 396 5 0 0 0 - - -, f 5;
#X obj 205 369 + 0.5;
#X floatatom 171 164 5 0 0 0 - - -, f 5;
#X msg 118 158 stop;
#X obj 115 239 counter 2 0 100;
#X obj 115 452 outlet;
#X obj 115 292 * 0.04;
#X text 252 371 0-1;
#X floatatom 208 345 5 0 0 0 - - -, f 5;
#X obj 208 310 * 0.01;
#X text 85 293 0-4;
#X obj 115 200 metro 5;
#X obj 208 78 r timecounter;
#X msg 243 171 5;
#X obj 208 108 sel 1 17 33 49 65 81 89;
#X obj 99 113 lbang;
#X connect 0 0 7 0;
#X connect 1 0 16 0;
#X connect 2 0 11 0;
#X connect 3 0 10 0;
#X connect 4 0 16 0;
#X connect 6 0 5 0;
#X connect 7 0 16 1;
#X connect 8 0 16 0;
#X connect 9 0 2 0;
#X connect 11 0 3 0;
#X connect 13 0 6 0;
#X connect 14 0 13 0;
#X connect 16 0 9 0;
#X connect 17 0 19 0;
#X connect 18 0 7 0;
#X connect 18 0 4 0;
#X connect 19 0 8 0;
#X connect 19 1 18 0;
#X connect 19 2 8 0;
#X connect 19 3 18 0;
#X connect 19 4 8 0;
#X connect 19 5 18 0;
#X connect 19 6 8 0;
#X connect 20 0 8 0;
