#N canvas 617 23 379 571 10;
#N canvas 271 197 1091 628 gemwin 1;
#X obj 230 337 gemwin;
#X msg 293 142 dimen 500 500;
#X msg 330 100 dimen 1920 1155;
#X obj 293 58 sel 0 1 2 3;
#X msg 348 80 dimen 668 462;
#X msg 311 121 dimen 1155 1155;
#X obj 94 33 r create_destroy;
#X obj 293 33 r dimen;
#X obj 93 54 select 1 0;
#X msg 93 86 create \, 1;
#X msg 168 87 destroy;
#X obj 93 111 t a;
#X obj 19 143 t a a;
#X obj 51 171 route create destroy;
#X obj 51 193 t b;
#X msg 51 215 1;
#X obj 119 193 t b;
#X msg 119 215 0;
#X obj 51 238 t f;
#X msg 51 262 set \$1;
#X obj 19 27 loadbang;
#X msg 19 52 reset;
#X msg 422 470 lighting \$1;
#X obj 41 410 gemhead;
#X obj 41 554 world_light;
#X msg 72 509 debug 1;
#X obj 41 477 rotateXYZ;
#X floatatom 61 452 5 0 0 0 - - -, f 5;
#X msg 72 531 debug 0;
#X floatatom 103 452 5 0 0 0 - - -, f 5;
#X text 56 431 move the light point;
#X text 131 507 see;
#X text 130 532 unsee light point;
#X obj 422 443 r light;
#X msg 488 271 color 0 0 0;
#X obj 805 435 pack f f f;
#X msg 479 336 color \$1 \$2 \$3;
#X obj 814 401 t b f;
#X obj 860 401 t b f;
#X obj 488 250 loadbang;
#X obj 839 370 * 0.01;
#X obj 920 370 * 0.01;
#X obj 758 349 random 100;
#X obj 839 349 random 100;
#X obj 920 349 random 100;
#X obj 758 370 * 0.01;
#X obj 829 127 r bgcolsel;
#X msg 481 303 color 1 1 1;
#X obj 829 149 sel 0 1 2 3;
#X msg 887 212 stop;
#X obj 667 36 inlet;
#X msg 667 61 color \$1 \$2 \$3;
#X obj 951 181 t b b;
#X obj 946 55 inlet;
#X obj 997 57 inlet;
#X msg 402 49 dimen 1600 1190;
#X floatatom 946 77 5 0 0 0 - - -, f 5;
#X obj 849 304 metro 500;
#X connect 1 0 0 0;
#X connect 2 0 0 0;
#X connect 3 0 1 0;
#X connect 3 1 5 0;
#X connect 3 2 2 0;
#X connect 3 3 4 0;
#X connect 4 0 0 0;
#X connect 5 0 0 0;
#X connect 6 0 8 0;
#X connect 7 0 3 0;
#X connect 8 0 9 0;
#X connect 8 1 10 0;
#X connect 9 0 11 0;
#X connect 10 0 11 0;
#X connect 11 0 12 0;
#X connect 12 0 0 0;
#X connect 12 1 13 0;
#X connect 13 0 14 0;
#X connect 13 1 16 0;
#X connect 14 0 15 0;
#X connect 15 0 18 0;
#X connect 16 0 17 0;
#X connect 17 0 18 0;
#X connect 18 0 19 0;
#X connect 20 0 21 0;
#X connect 21 0 12 0;
#X connect 22 0 0 0;
#X connect 23 0 26 0;
#X connect 25 0 24 0;
#X connect 26 0 24 0;
#X connect 27 0 26 1;
#X connect 28 0 24 0;
#X connect 29 0 26 2;
#X connect 33 0 22 0;
#X connect 34 0 0 0;
#X connect 35 0 36 0;
#X connect 36 0 0 0;
#X connect 37 0 35 0;
#X connect 37 1 35 1;
#X connect 38 0 35 0;
#X connect 38 1 35 2;
#X connect 39 0 34 0;
#X connect 40 0 37 0;
#X connect 41 0 38 0;
#X connect 42 0 45 0;
#X connect 43 0 40 0;
#X connect 44 0 41 0;
#X connect 45 0 35 0;
#X connect 46 0 48 0;
#X connect 47 0 0 0;
#X connect 48 0 34 0;
#X connect 48 1 47 0;
#X connect 48 2 57 0;
#X connect 48 3 49 0;
#X connect 49 0 57 0;
#X connect 50 0 51 0;
#X connect 51 0 0 0;
#X connect 52 0 57 0;
#X connect 52 1 49 0;
#X connect 53 0 56 0;
#X connect 53 0 57 1;
#X connect 54 0 52 0;
#X connect 55 0 0 0;
#X connect 57 0 42 0;
#X connect 57 0 43 0;
#X connect 57 0 44 0;
#X restore 116 505 pd gemwin;
#X obj 116 484 pack f f f;
#X obj 125 450 t b f;
#X obj 171 450 t b f;
#X obj 102 102 cnv 15 146 271 empty empty empty 20 12 0 14 -257983
-66577 0;
#X obj 115 125 tgl 15 0 create_destroy empty empty 17 7 0 10 -1 -262144
-262144 1 1;
#X text 132 145 small window;
#X text 132 161 large window;
#X obj 115 146 vradio 15 1 0 4 dimen empty empty 0 -8 0 10 -1 -262144
-262144 0;
#X text 132 177 full screen;
#X text 134 124 open window;
#X text 132 191 small rect;
#X obj 115 215 tgl 15 0 light empty empty 17 7 0 10 -1 -262144 -262144
0 1;
#X text 133 214 light on / off;
#X obj 116 261 vradio 15 1 0 4 bgcolsel empty empty 0 -8 0 10 -1 -262144
-262144 3;
#X text 134 305 freeze color;
#X text 135 276 white;
#X text 135 261 black;
#X obj 138 336 vsl 15 30 0 1 0 0 empty empty empty 0 -9 0 10 -26960
-204786 -204786 1500 0;
#X obj 160 336 vsl 15 30 0 1 0 0 empty empty empty 0 -9 0 10 -14080
-262144 -262144 2000 0;
#X obj 116 336 vsl 15 30 0 1 0 0 empty empty empty 0 -9 0 10 -254797
-262144 -262144 1500 0;
#X text 134 290 random color;
#X text 113 242 BACKGROUND COLOR;
#X obj 102 102 cnv 15 146 15 empty empty GEM_INIT 40 9 0 14 -1 -262144
0;
#X obj 268 73 inlet;
#X obj 320 75 inlet;
#X connect 1 0 0 0;
#X connect 2 0 1 0;
#X connect 2 1 1 1;
#X connect 3 0 1 0;
#X connect 3 1 1 2;
#X connect 18 0 2 0;
#X connect 19 0 3 0;
#X connect 20 0 1 0;
#X connect 24 0 0 1;
#X connect 25 0 0 2;
#X coords 0 -1 1 1 150 275 2 100 100;
