#N canvas 781 98 990 694 10;
#X obj 511 120 soundfiler;
#X floatatom 511 142 7 0 0 0 - - -, f 7;
#X obj 511 28 openpanel;
#X floatatom 578 142 5 0 0 0 - - -, f 5;
#X obj 511 170 expr $f2 / $f1;
#X obj 511 232 phasor~;
#X obj 511 404 *~;
#X obj 511 446 tabread4~ channel0;
#X obj 646 446 tabread4~ channel1;
#X msg 372 167 0;
#X text 401 169 restart;
#X msg 372 142 0;
#X text 399 143 stop;
#X text 402 87 pause;
#X msg 374 90 0;
#X text 419 43 play;
#X obj 394 361 spigot;
#X text 417 204 loop;
#X floatatom 443 343 5 0 0 0 - - -, f 5;
#X obj 443 299 * -1;
#X obj 443 321 + 1;
#X obj 394 318 int;
#X obj 394 339 sel 99;
#X obj 394 295 * 100;
#X msg 384 44 bang;
#X obj 526 272 unsig~ 50;
#X obj 511 324 *~;
#X obj 511 346 +~;
#X obj 373 446 t b f;
#X obj 383 541 -;
#X floatatom 383 509 5 0 0 0 - - -, f 5;
#X obj 604 193 expr 1 / $f1;
#X obj 575 195 *;
#X floatatom 525 198 5 0 0 0 - - -, f 5;
#X floatatom 623 216 5 0 0 0 - - -, f 5;
#X floatatom 475 188 5 0 0 0 - - -, f 5;
#X msg 441 252 1;
#X obj 435 229 loadbang;
#X msg 595 53 read -resize -maxsize 4e+07 \$1 channel0 channel1;
#X obj 102 102 cnv 15 146 346 empty empty IMPORT_TABLE 20 12 0 14 -257983
-99865 0;
#X obj 111 246 hsl 128 15 0 1 0 0 empty empty empty -2 -8 0 10 -262144
-254797 -1 0 0;
#X obj 111 228 hsl 128 15 0 1 0 0 empty empty Right_Limit 30 8 0 10
-254797 -1 -262144 12700 1;
#X obj 111 210 hsl 128 15 0 1 0 0 empty empty Left_Limit 30 8 0 10
-254797 -1 -262144 0 1;
#N canvas 0 22 450 278 (subpatch) 0;
#X array channel1 502406 float 2;
#X coords 0 1 502406 -1 130 70 1 0 0;
#X restore 109 372 graph;
#N canvas 0 22 450 278 (subpatch) 0;
#X array channel0 502406 float 2;
#X coords 0 1 502406 -1 130 70 2 0 0;
#X restore 109 285 graph;
#X obj 108 166 bng 15 250 50 0 empty empty Pause 17 7 0 10 -254797
-262144 -1;
#X obj 108 146 bng 15 250 50 0 empty empty Stop 17 7 0 10 -254797 -262144
-1;
#X obj 108 126 bng 15 250 50 0 empty empty Play 17 7 0 10 -254797 -262144
-1;
#X obj 289 186 bng 15 250 50 0 empty empty empty 17 7 0 10 -254797
-262144 -1;
#X obj 156 146 tgl 15 0 empty empty Loop_on/off 17 7 0 10 -262144 -254797
-1 1 1;
#X obj 444 584 outlet~ Left;
#X obj 658 581 outlet~ right;
#X obj 156 126 bng 15 250 50 0 empty empty Import_sound 17 7 0 10 -254797
-262144 -1;
#X msg 511 84 read -resize \$1 channel0 channel1;
#X obj 511 509 *~;
#X obj 677 495 *~;
#X obj 111 191 hsl 128 15 0 1 0 0 empty empty Volume 45 8 0 10 -262144
-1 -254797 12100 1;
#X obj 143 515 block~ 64 0 0;
#X connect 0 0 1 0;
#X connect 0 1 3 0;
#X connect 1 0 4 0;
#X connect 1 0 6 1;
#X connect 2 0 38 0;
#X connect 3 0 4 1;
#X connect 4 0 32 1;
#X connect 4 0 35 0;
#X connect 5 0 25 0;
#X connect 5 0 26 0;
#X connect 6 0 7 0;
#X connect 6 0 8 0;
#X connect 7 0 54 0;
#X connect 8 0 55 0;
#X connect 9 0 5 1;
#X connect 11 0 5 0;
#X connect 11 0 9 0;
#X connect 14 0 5 0;
#X connect 16 0 11 0;
#X connect 18 0 16 1;
#X connect 19 0 20 0;
#X connect 20 0 18 0;
#X connect 21 0 22 0;
#X connect 22 0 16 0;
#X connect 23 0 21 0;
#X connect 24 0 4 0;
#X connect 24 0 42 0;
#X connect 25 0 23 0;
#X connect 25 0 40 0;
#X connect 26 0 27 0;
#X connect 27 0 6 0;
#X connect 28 0 30 0;
#X connect 28 1 29 1;
#X connect 28 1 27 1;
#X connect 29 0 31 0;
#X connect 29 0 26 1;
#X connect 30 0 29 0;
#X connect 31 0 32 0;
#X connect 31 0 34 0;
#X connect 32 0 33 0;
#X connect 33 0 5 0;
#X connect 36 0 49 0;
#X connect 36 0 41 0;
#X connect 37 0 36 0;
#X connect 38 0 0 0;
#X connect 40 0 25 0;
#X connect 41 0 30 0;
#X connect 42 0 28 0;
#X connect 45 0 14 0;
#X connect 46 0 11 0;
#X connect 47 0 24 0;
#X connect 49 0 19 0;
#X connect 52 0 2 0;
#X connect 53 0 0 0;
#X connect 54 0 50 0;
#X connect 55 0 51 0;
#X connect 56 0 55 1;
#X connect 56 0 54 1;
#X coords 0 -1 1 1 150 350 2 100 100;
