#N canvas 1282 375 501 362 10;
#X obj 31 41 inlet freq;
#X obj 31 123 *~ 0.5;
#X obj 31 145 +~ 0.5;
#X obj 155 16 inlet min;
#X obj 303 19 inlet max;
#X obj 184 135 -;
#X obj 176 89 t b f;
#X floatatom 184 157 5 0 0 0 - - -, f 5;
#X obj 33 192 *~ 1;
#X obj 35 255 +~ 0;
#X obj 33 305 outlet~;
#X obj 31 101 osc~ \$1;
#X obj 226 16 loadbang;
#X obj 226 38 f \$2;
#X floatatom 173 65 5 0 0 0 - - -, f 5;
#X obj 376 19 loadbang;
#X obj 375 41 f \$3;
#X connect 0 0 11 0;
#X connect 1 0 2 0;
#X connect 2 0 8 0;
#X connect 3 0 14 0;
#X connect 4 0 5 0;
#X connect 5 0 7 0;
#X connect 6 0 5 0;
#X connect 6 1 5 1;
#X connect 7 0 8 1;
#X connect 8 0 9 0;
#X connect 9 0 10 0;
#X connect 11 0 1 0;
#X connect 12 0 13 0;
#X connect 13 0 14 0;
#X connect 14 0 6 0;
#X connect 14 0 9 1;
#X connect 15 0 16 0;
#X connect 16 0 5 0;
