#N canvas 443 132 1147 832 10;
#X obj 437 579 freeverb~;
#X obj 289 720 +~;
#X msg 437 550 roomsize \$1;
#X msg 526 544 damping \$1;
#X obj 865 395 - 1;
#X obj 865 416 * -1;
#X obj 437 652 *~;
#X floatatom 865 356 5 0 0 0 - - -, f 5;
#X obj 289 658 *~ 1;
#X obj 348 507 *~;
#X obj 106 61 r rvbonoff;
#X obj 636 229 sel 0 1;
#X msg 606 377 1;
#X text 730 262 balance init;
#X obj 710 260 bng 15 250 50 0 empty empty empty 17 7 0 10 -262144
-1 -1;
#X msg 636 260 0;
#X msg 672 259 1;
#X text 544 377 vol init;
#X obj 102 102 cnv 15 146 126 empty empty REVERB 40 12 0 14 -257983
-99865 0;
#X obj 112 140 hsl 128 15 0 1 0 0 empty empty Wet_/_Dry_Balance 16
8 0 10 -59391 -1 -262144 10308 1;
#X obj 112 195 hsl 128 15 0 1 0 0 empty empty Room_Size 35 8 0 10 -59391
-1 -262144 10296 1;
#X obj 112 177 hsl 128 15 0 1 0 0 empty empty Lowshelf 40 8 0 10 -59391
-1 -262144 0 1;
#X obj 106 40 s rvbonoff;
#X obj 106 20 tgl 15 0 empty empty empty 17 7 0 10 -262144 -1 -1 0
1;
#X text 127 20 Reverb ON / OFF;
#X obj 31 91 loadbang;
#X msg 31 113 0.5;
#X floatatom 109 159 5 0 0 0 - - -, f 5;
#X text 130 158 %;
#X obj 227 104 tgl 15 0 empty empty empty -75 7 0 10 -59391 -262144
-128992 0 1;
#X obj 195 213 cnv 15 10 10 empty empty right_out 0 8 0 10 -257983
-99865 0;
#X obj 103 213 cnv 15 10 10 empty empty left_out 0 8 0 10 -257983 -99865
0;
#X obj 289 377 inlet~ L;
#X obj 289 763 outlet~ L;
#X obj 526 520 r damping;
#X obj 861 587 freeverb~;
#X obj 713 728 +~;
#X msg 861 558 roomsize \$1;
#X msg 950 552 damping \$1;
#X obj 861 660 *~;
#X obj 713 666 *~ 1;
#X obj 772 515 *~;
#X obj 713 385 inlet~ L;
#X obj 713 771 outlet~ L;
#X obj 950 528 r damping;
#X obj 289 174 s rvb_onoff_visual;
#X obj 280 231 sel 0;
#X text 324 234 remettre la balance à 1 quand off;
#X obj 8 139 s rvb_wetdry;
#X obj 14 196 s roomsize;
#X obj 385 69 r peny_rbv_roomsize;
#X obj 271 20 r penx_rvb_wetdry;
#X obj 385 89 spigot;
#X obj 271 43 spigot;
#X obj 436 521 r roomsize;
#X obj 861 533 r roomsize;
#X obj 21 170 s damping;
#X obj 153 158 * 100;
#X obj 196 158 int;
#X obj 865 330 r rvb_wetdry;
#X connect 0 0 6 0;
#X connect 1 0 33 0;
#X connect 2 0 0 0;
#X connect 3 0 0 0;
#X connect 4 0 5 0;
#X connect 5 0 8 1;
#X connect 5 0 40 1;
#X connect 6 0 1 1;
#X connect 7 0 4 0;
#X connect 7 0 6 1;
#X connect 7 0 39 1;
#X connect 8 0 1 0;
#X connect 9 0 0 0;
#X connect 10 0 29 0;
#X connect 11 0 12 0;
#X connect 11 0 15 0;
#X connect 11 1 14 0;
#X connect 11 1 16 0;
#X connect 12 0 8 1;
#X connect 12 0 40 1;
#X connect 14 0 7 0;
#X connect 15 0 9 1;
#X connect 15 0 41 1;
#X connect 16 0 9 1;
#X connect 16 0 41 1;
#X connect 19 0 48 0;
#X connect 19 0 57 0;
#X connect 20 0 49 0;
#X connect 21 0 56 0;
#X connect 23 0 22 0;
#X connect 25 0 26 0;
#X connect 26 0 19 0;
#X connect 29 0 11 0;
#X connect 29 0 45 0;
#X connect 29 0 46 0;
#X connect 29 0 52 1;
#X connect 29 0 53 1;
#X connect 32 0 8 0;
#X connect 32 0 9 0;
#X connect 34 0 3 0;
#X connect 35 0 39 0;
#X connect 36 0 43 0;
#X connect 37 0 35 0;
#X connect 38 0 35 0;
#X connect 39 0 36 1;
#X connect 40 0 36 0;
#X connect 41 0 35 0;
#X connect 42 0 40 0;
#X connect 42 0 41 0;
#X connect 44 0 38 0;
#X connect 46 0 12 0;
#X connect 50 0 52 0;
#X connect 51 0 53 0;
#X connect 52 0 20 0;
#X connect 53 0 19 0;
#X connect 54 0 2 0;
#X connect 55 0 37 0;
#X connect 57 0 58 0;
#X connect 58 0 27 0;
#X connect 59 0 7 0;
#X coords 0 -1 1 1 150 130 2 100 100;
