#N canvas 482 343 688 697 10;
#X obj 80 48 unpack;
#X obj 80 154 mtof;
#X obj 80 572 *~;
#X floatatom 80 73 5 0 0 0 - - -, f 5;
#X floatatom 119 73 5 0 0 0 - - -, f 5;
#X floatatom 80 176 5 0 0 0 - - -, f 5;
#X obj 79 249 phasor~;
#X obj 80 274 -~ 0.5;
#X obj 80 300 *~ 2;
#X text 130 273 ramener entre 1 et -1;
#X text 126 301 mettre le signal au bon niveau;
#X obj 149 220 adsr~ 500 250 0.3 500;
#X obj 150 167 r attack;
#X obj 192 193 r decay;
#X obj 260 193 r release;
#X obj 221 168 r decay_vol;
#X obj 83 16 inlet;
#X obj 80 662 outlet~;
#X obj 82 206 sig~;
#X floatatom 179 453 5 0 0 0 - - -, f 5;
#X floatatom 139 365 5 0 0 0 - - -, f 5;
#X msg 282 353 0;
#X obj 282 330 loadbang;
#X msg 224 474 0;
#X obj 221 453 loadbang;
#X obj 140 341 r speed_sawtooth;
#X obj 179 430 r amount_sawtooth;
#X obj 139 384 lfo~ 0 250 2500;
#X obj 80 442 vcf~ 0;
#X obj 148 527 * 0.5;
#X obj 80 619 *~ 1;
#X floatatom 148 589 5 0 0 0 - - -, f 5;
#X obj 148 569 expr if ($f1 <= 1 \, 1 \, $f1);
#X obj 148 548 * 2.5;
#X text 195 523 Calcul pour ramener le volume au même niveau lors
du contrôle de l'amount du Lfo (j'ai fait ça à l'oreille);
#X floatatom 80 120 5 0 0 0 - - -, f 5;
#N canvas 935 438 425 381 oct_switch_sawtooth 1;
#X obj 204 32 inlet;
#X obj 196 296 outlet;
#X floatatom 204 102 5 0 0 0 - - -, f 5;
#X obj 209 122 + 24;
#X obj 249 188 - 12;
#X obj 263 210 - 24;
#X obj 236 166 + 0;
#X obj 222 144 + 12;
#X obj 196 230 switch 5 2;
#X obj 84 114 + 1;
#X floatatom 84 135 5 0 0 0 - - -, f 5;
#X text 245 123 1;
#X text 260 145 2;
#X text 266 167 3;
#X text 285 189 4;
#X text 299 211 5;
#X msg 43 203 3;
#X obj 43 182 loadbang;
#X text 71 204 3 = 0 octave;
#X obj 43 254 s oct_init;
#X obj 43 230 - 1;
#X obj 84 90 r oct_sawtooth;
#X connect 0 0 2 0;
#X connect 2 0 7 0;
#X connect 2 0 3 0;
#X connect 2 0 6 0;
#X connect 2 0 4 0;
#X connect 2 0 5 0;
#X connect 3 0 8 1;
#X connect 4 0 8 4;
#X connect 5 0 8 5;
#X connect 6 0 8 3;
#X connect 7 0 8 2;
#X connect 8 0 1 0;
#X connect 9 0 10 0;
#X connect 10 0 8 0;
#X connect 16 0 8 0;
#X connect 16 0 20 0;
#X connect 17 0 16 0;
#X connect 20 0 19 0;
#X connect 21 0 9 0;
#X restore 80 98 pd oct_switch_sawtooth;
#X connect 0 0 3 0;
#X connect 0 1 4 0;
#X connect 1 0 5 0;
#X connect 2 0 30 0;
#X connect 3 0 36 0;
#X connect 4 0 11 0;
#X connect 5 0 18 0;
#X connect 6 0 7 0;
#X connect 7 0 8 0;
#X connect 8 0 28 0;
#X connect 11 0 2 1;
#X connect 12 0 11 1;
#X connect 13 0 11 2;
#X connect 14 0 11 4;
#X connect 15 0 11 3;
#X connect 16 0 0 0;
#X connect 18 0 6 0;
#X connect 19 0 28 2;
#X connect 19 0 29 0;
#X connect 20 0 27 0;
#X connect 21 0 27 0;
#X connect 22 0 21 0;
#X connect 23 0 19 0;
#X connect 24 0 23 0;
#X connect 25 0 20 0;
#X connect 26 0 19 0;
#X connect 27 0 28 1;
#X connect 28 0 2 0;
#X connect 29 0 33 0;
#X connect 30 0 17 0;
#X connect 31 0 30 1;
#X connect 32 0 31 0;
#X connect 33 0 32 0;
#X connect 35 0 1 0;
#X connect 36 0 35 0;
