#N canvas 515 70 1308 1010 10;
#X obj 70 173 mtof;
#X obj 70 338 osc~;
#X floatatom 70 64 5 0 0 0 - - -, f 5;
#X floatatom 109 64 5 0 0 0 - - -, f 5;
#X obj 139 228 adsr~ 500 250 0.3 500;
#X floatatom 70 194 5 0 0 0 - - -, f 5;
#X obj 140 175 r attack;
#X obj 182 201 r decay;
#X obj 250 201 r release;
#X obj 211 176 r decay_vol;
#X obj 76 19 inlet;
#X obj 101 544 *~;
#X obj 101 634 outlet~;
#X floatatom 200 425 5 0 0 0 - - -, f 5;
#X floatatom 160 337 5 0 0 0 - - -, f 5;
#X msg 303 325 0;
#X obj 303 302 loadbang;
#X msg 245 446 0;
#X obj 242 425 loadbang;
#X obj 160 356 lfo~ 0 250 2500;
#X obj 101 414 vcf~ 0;
#X obj 169 499 * 0.5;
#X obj 101 591 *~ 1;
#X floatatom 169 561 5 0 0 0 - - -, f 5;
#X obj 169 541 expr if ($f1 <= 1 \, 1 \, $f1);
#X obj 169 520 * 2.5;
#X text 216 495 Calcul pour ramener le volume au même niveau lors
du contrôle de l'amount du Lfo (j'ai fait ça à l'oreille);
#X obj 200 402 r amount_sine;
#X obj 161 313 r speed_sine;
#X floatatom 70 120 5 0 0 0 - - -, f 5;
#N canvas 935 438 425 381 oct_switch_sine 0;
#X obj 204 32 inlet;
#X obj 196 296 outlet;
#X floatatom 204 102 5 0 0 0 - - -, f 5;
#X obj 209 122 + 24;
#X obj 249 188 - 12;
#X obj 263 210 - 24;
#X obj 236 166 + 0;
#X obj 222 144 + 12;
#X obj 196 230 switch 5 2;
#X obj 84 114 + 1;
#X floatatom 84 135 5 0 0 0 - - -, f 5;
#X text 245 123 1;
#X text 260 145 2;
#X text 266 167 3;
#X text 285 189 4;
#X text 299 211 5;
#X msg 43 203 3;
#X obj 43 182 loadbang;
#X text 71 204 3 = 0 octave;
#X obj 43 254 s oct_init;
#X obj 43 230 - 1;
#X obj 84 90 r oct_sine;
#X connect 0 0 2 0;
#X connect 2 0 7 0;
#X connect 2 0 3 0;
#X connect 2 0 6 0;
#X connect 2 0 4 0;
#X connect 2 0 5 0;
#X connect 3 0 8 1;
#X connect 4 0 8 4;
#X connect 5 0 8 5;
#X connect 6 0 8 3;
#X connect 7 0 8 2;
#X connect 8 0 1 0;
#X connect 9 0 10 0;
#X connect 10 0 8 0;
#X connect 16 0 8 0;
#X connect 16 0 20 0;
#X connect 17 0 16 0;
#X connect 20 0 19 0;
#X connect 21 0 9 0;
#X restore 70 98 pd oct_switch_sine;
#X obj 70 39 unpack;
#X connect 0 0 5 0;
#X connect 1 0 20 0;
#X connect 2 0 30 0;
#X connect 3 0 4 0;
#X connect 4 0 11 1;
#X connect 5 0 1 0;
#X connect 6 0 4 1;
#X connect 7 0 4 2;
#X connect 8 0 4 4;
#X connect 9 0 4 3;
#X connect 10 0 31 0;
#X connect 11 0 22 0;
#X connect 13 0 20 2;
#X connect 13 0 21 0;
#X connect 14 0 19 0;
#X connect 15 0 19 0;
#X connect 16 0 15 0;
#X connect 17 0 13 0;
#X connect 18 0 17 0;
#X connect 19 0 20 1;
#X connect 20 0 11 0;
#X connect 21 0 25 0;
#X connect 22 0 12 0;
#X connect 23 0 22 1;
#X connect 24 0 23 0;
#X connect 25 0 24 0;
#X connect 27 0 13 0;
#X connect 28 0 14 0;
#X connect 29 0 0 0;
#X connect 30 0 29 0;
#X connect 31 0 2 0;
#X connect 31 1 3 0;
