#N canvas 62 125 497 304 10;
#X obj 16 15 inlet~ signal;
#X obj 120 15 inlet frequence;
#X obj 120 110 * 1;
#X obj 120 168 line~;
#X obj 120 188 osc~;
#X obj 120 208 *~ 0.25;
#X obj 16 225 +~;
#X obj 16 245 outlet~;
#X floatatom 239 37 5 0 0 0 - - -, f 5;
#X floatatom 120 130 5 0 0 0 - - -, f 5;
#X msg 120 146 \$1 25;
#X obj 239 15 inlet rang harmonique;
#X obj 396 101 f \$1;
#X obj 396 80 loadbang;
#X obj 334 39 r rang_harm;
#X floatatom 239 78 5 0 0 0 - - -, f 5;
#X obj 239 238 outlet rang harmonique;
#X obj 239 56 + \$1;
#X connect 0 0 6 0;
#X connect 1 0 2 0;
#X connect 2 0 9 0;
#X connect 3 0 4 0;
#X connect 4 0 5 0;
#X connect 5 0 6 1;
#X connect 6 0 7 0;
#X connect 8 0 2 1;
#X connect 8 0 17 0;
#X connect 9 0 10 0;
#X connect 10 0 3 0;
#X connect 11 0 8 0;
#X connect 13 0 12 0;
#X connect 14 0 17 1;
#X connect 15 0 16 0;
#X connect 17 0 15 0;
