#N canvas 760 363 325 261 10;
#X obj 102 102 cnv 15 146 76 empty empty TAP_TEMPO 35 10 0 14 -257983
-66577 0;
#N canvas 1131 158 494 729 taptempo 0;
#X obj 88 327 timer;
#X obj 86 187 f;
#X obj 104 165 + 1;
#X obj 206 257 sel 3;
#X msg 206 277 0;
#X obj 90 259 moses 1;
#X obj 83 297 bang;
#X obj 131 296 bang;
#X obj 84 403 f;
#X obj 123 403 +;
#X obj 88 349 t b f;
#X obj 189 354 == 3;
#X obj 84 464 spigot;
#X obj 84 443 /;
#X obj 86 213 t f f f;
#X obj 86 123 bng 15 250 50 0 empty empty empty 17 7 0 10 -262144 -1
-1;
#X floatatom 84 489 5 0 0 0 - - -, f 5;
#X obj 204 488 expr 60000 / $f1;
#X floatatom 204 509 5 0 0 0 - - -, f 5;
#X obj 84 647 outlet;
#X obj 207 647 outlet;
#X text 135 646 ms;
#X text 254 651 bpm;
#X obj 86 21 inlet;
#X obj 84 518 int;
#X floatatom 84 542 5 0 0 0 - - -, f 5;
#X obj 207 530 int;
#X floatatom 207 552 5 0 0 0 - - -, f 5;
#X obj 271 20 inlet;
#X text 322 21 write a bpm;
#X text 133 21 tap tempo;
#X obj 271 54 expr 60000 / $f1;
#X connect 0 0 10 0;
#X connect 1 0 2 0;
#X connect 1 0 14 0;
#X connect 2 0 1 1;
#X connect 3 0 4 0;
#X connect 4 0 1 1;
#X connect 4 0 9 1;
#X connect 5 0 6 0;
#X connect 5 1 7 0;
#X connect 6 0 0 0;
#X connect 7 0 0 1;
#X connect 7 0 0 0;
#X connect 8 0 9 1;
#X connect 8 0 13 0;
#X connect 9 0 8 1;
#X connect 10 0 8 0;
#X connect 10 1 9 0;
#X connect 11 0 12 1;
#X connect 12 0 16 0;
#X connect 13 0 12 0;
#X connect 14 0 3 0;
#X connect 14 1 5 0;
#X connect 14 2 11 0;
#X connect 14 2 13 1;
#X connect 15 0 1 0;
#X connect 16 0 24 0;
#X connect 16 0 17 0;
#X connect 17 0 18 0;
#X connect 18 0 26 0;
#X connect 23 0 15 0;
#X connect 24 0 25 0;
#X connect 25 0 19 0;
#X connect 26 0 27 0;
#X connect 27 0 20 0;
#X connect 28 0 31 0;
#X connect 31 0 16 0;
#X restore 147 44 pd taptempo;
#X obj 104 122 bng 15 250 50 0 empty empty empty 17 7 0 10 -262144
-1 -1;
#X floatatom 104 162 5 0 0 0 - - -, f 5;
#X floatatom 209 162 5 0 0 0 - - -, f 5;
#X floatatom 104 140 5 0 0 0 - - -, f 5;
#X obj 104 196 outlet;
#X obj 209 192 outlet;
#X text 180 163 bpm;
#X text 144 163 ms;
#X text 144 140 Write bpm;
#X text 121 122 Tap Tempo (4);
#X connect 1 0 3 0;
#X connect 1 1 4 0;
#X connect 2 0 1 0;
#X connect 3 0 6 0;
#X connect 4 0 7 0;
#X connect 5 0 1 1;
#X coords 0 -1 1 1 150 80 2 100 100;
