#N canvas 813 237 818 937 10;
#X obj 473 820 +~;
#X obj 618 109 - 1;
#X obj 618 130 * -1;
#X obj 658 110 * 100;
#X obj 658 130 int;
#X obj 473 377 inlet~;
#X obj 473 853 outlet~;
#X obj 595 750 *~;
#X floatatom 593 74 5 0 0 0 - - -, f 5;
#X obj 473 718 *~ 1;
#X obj 566 503 *~;
#X obj 276 272 sel 0 1;
#X msg 247 310 1;
#X text 382 308 balance init;
#X obj 362 306 bng 15 250 50 0 empty empty empty 17 7 0 10 -262144
-1 -1;
#X msg 288 306 0;
#X msg 324 305 1;
#X obj 595 629 *~;
#X obj 613 583 +~ 1;
#X obj 613 605 *~ 0.5;
#X obj 613 560 osc~ 6;
#X obj 102 102 cnv 15 146 86 empty empty TREMOLO 34 12 0 14 -257983
-66577 0;
#X obj 111 155 hsl 128 15 0 1 0 0 empty amount_init Amount 50 8 0 10
-97166 -1 -262144 10605 1;
#X obj 111 132 hsl 128 15 0 15 0 0 empty gain_disto_init Speed 50 8
0 10 -97166 -1 -262144 8260 1;
#X obj 226 109 tgl 15 0 empty empty empty 50 8 0 10 -97166 -1 -262144
0 1;
#X obj 29 19 tgl 15 0 empty empty empty 17 7 0 10 -262144 -1 -1 0 1
;
#X text 50 19 Tremolo ON / OFF;
#X obj 29 39 s tremonoff;
#X floatatom 108 173 5 0 0 0 - - -, f 5;
#X text 129 172 %;
#X obj 13 129 s tremspeed;
#X obj 613 537 r tremspeed;
#X obj 162 821 +~;
#X obj 162 378 inlet~;
#X obj 162 854 outlet~;
#X obj 284 751 *~;
#X obj 162 719 *~ 1;
#X obj 255 504 *~;
#X obj 284 630 *~;
#X obj 302 584 +~ 1;
#X obj 302 606 *~ 0.5;
#X obj 302 562 osc~ 6;
#X obj 302 538 r tremspeed;
#X floatatom 677 560 5 0 0 0 - - -, f 5;
#X obj 672 598 unsig~;
#X floatatom 672 620 5 0 0 0 - - -, f 5;
#X obj 12 153 s tremamount;
#X obj 29 61 r tremonoff;
#X obj 214 37 r penx_trem_wetdry;
#X obj 289 62 r peny_trem_speed;
#X obj 289 84 * 15;
#X obj 286 194 s tremonoff_visual;
#X obj 214 59 spigot;
#X obj 289 106 spigot;
#X connect 0 0 6 0;
#X connect 1 0 2 0;
#X connect 2 0 9 1;
#X connect 2 0 36 1;
#X connect 3 0 4 0;
#X connect 4 0 28 0;
#X connect 5 0 9 0;
#X connect 5 0 10 0;
#X connect 7 0 0 1;
#X connect 8 0 1 0;
#X connect 8 0 7 1;
#X connect 8 0 3 0;
#X connect 8 0 35 1;
#X connect 9 0 0 0;
#X connect 10 0 17 0;
#X connect 11 0 12 0;
#X connect 11 0 15 0;
#X connect 11 1 14 0;
#X connect 11 1 16 0;
#X connect 12 0 9 1;
#X connect 12 0 36 1;
#X connect 14 0 8 0;
#X connect 15 0 10 1;
#X connect 15 0 37 1;
#X connect 16 0 10 1;
#X connect 16 0 37 1;
#X connect 17 0 7 0;
#X connect 18 0 19 0;
#X connect 19 0 17 1;
#X connect 20 0 18 0;
#X connect 20 0 44 0;
#X connect 22 0 8 0;
#X connect 22 0 46 0;
#X connect 23 0 30 0;
#X connect 24 0 11 0;
#X connect 24 0 51 0;
#X connect 24 0 52 1;
#X connect 24 0 53 1;
#X connect 25 0 27 0;
#X connect 31 0 20 0;
#X connect 31 0 43 0;
#X connect 32 0 34 0;
#X connect 33 0 36 0;
#X connect 33 0 37 0;
#X connect 35 0 32 1;
#X connect 36 0 32 0;
#X connect 37 0 38 0;
#X connect 38 0 35 0;
#X connect 39 0 40 0;
#X connect 40 0 38 1;
#X connect 41 0 39 0;
#X connect 42 0 41 0;
#X connect 44 0 45 0;
#X connect 47 0 24 0;
#X connect 48 0 52 0;
#X connect 49 0 50 0;
#X connect 50 0 53 0;
#X connect 52 0 22 0;
#X connect 53 0 23 0;
#X coords 0 -1 1 1 150 90 2 100 100;
