#N canvas 290 336 907 740 10;
#X obj 74 38 unpack;
#X obj 74 144 mtof;
#X obj 74 466 *~;
#X floatatom 74 63 5 0 0 0 - - -, f 5;
#X floatatom 113 63 5 0 0 0 - - -, f 5;
#X obj 74 186 sig~;
#X floatatom 74 166 5 0 0 0 - - -, f 5;
#X obj 74 230 phasor~;
#X obj 147 231 phasor~;
#X obj 74 307 *~;
#X obj 147 209 *~ -1;
#X obj 74 252 *~ 2;
#X obj 147 254 *~ 2;
#X obj 74 336 -~ 0.5;
#X obj 147 279 clip~ 0 1;
#X obj 74 279 clip~ 0 1;
#X obj 74 363 *~ 2;
#X obj 227 254 adsr~ 500 250 0.3 500;
#X obj 228 201 r attack;
#X obj 270 227 r decay;
#X obj 338 227 r release;
#X obj 299 202 r decay_vol;
#X obj 74 1 inlet;
#X obj 74 627 outlet~;
#X floatatom 249 452 5 0 0 0 - - -, f 5;
#X floatatom 179 344 5 0 0 0 - - -, f 5;
#X msg 322 332 0;
#X obj 322 309 loadbang;
#X msg 294 473 0;
#X obj 291 452 loadbang;
#X obj 179 363 lfo~ 0 250 2500;
#X obj 74 409 vcf~ 0;
#X obj 249 506 * 0.5;
#X obj 74 588 *~ 1;
#X floatatom 249 568 5 0 0 0 - - -, f 5;
#X obj 249 548 expr if ($f1 <= 1 \, 1 \, $f1);
#X obj 249 527 * 2.5;
#X obj 249 429 r amount_triangle;
#X obj 180 320 r speed_triangle;
#X text 296 502 Calcul pour ramener le volume au même niveau lors
du contrôle de l'amount du Lfo (j'ai fait ça à l'oreille c'est pas
parfait);
#X floatatom 74 114 5 0 0 0 - - -, f 5;
#N canvas 935 438 425 381 oct_switch_triangle 0;
#X obj 204 32 inlet;
#X obj 196 296 outlet;
#X floatatom 204 102 5 0 0 0 - - -, f 5;
#X obj 209 122 + 24;
#X obj 249 188 - 12;
#X obj 263 210 - 24;
#X obj 236 166 + 0;
#X obj 222 144 + 12;
#X obj 196 230 switch 5 2;
#X obj 84 114 + 1;
#X floatatom 84 135 5 0 0 0 - - -, f 5;
#X text 245 123 1;
#X text 260 145 2;
#X text 266 167 3;
#X text 285 189 4;
#X text 299 211 5;
#X msg 43 203 3;
#X obj 43 182 loadbang;
#X text 71 204 3 = 0 octave;
#X obj 43 254 s oct_init;
#X obj 43 230 - 1;
#X obj 84 90 r oct_triangle;
#X connect 0 0 2 0;
#X connect 2 0 7 0;
#X connect 2 0 3 0;
#X connect 2 0 6 0;
#X connect 2 0 4 0;
#X connect 2 0 5 0;
#X connect 3 0 8 1;
#X connect 4 0 8 4;
#X connect 5 0 8 5;
#X connect 6 0 8 3;
#X connect 7 0 8 2;
#X connect 8 0 1 0;
#X connect 9 0 10 0;
#X connect 10 0 8 0;
#X connect 16 0 8 0;
#X connect 16 0 20 0;
#X connect 17 0 16 0;
#X connect 20 0 19 0;
#X connect 21 0 9 0;
#X restore 74 92 pd oct_switch_triangle;
#X connect 0 0 3 0;
#X connect 0 1 4 0;
#X connect 1 0 6 0;
#X connect 2 0 33 0;
#X connect 3 0 41 0;
#X connect 4 0 17 0;
#X connect 5 0 7 0;
#X connect 5 0 10 0;
#X connect 6 0 5 0;
#X connect 7 0 11 0;
#X connect 8 0 12 0;
#X connect 9 0 13 0;
#X connect 10 0 8 0;
#X connect 11 0 15 0;
#X connect 12 0 14 0;
#X connect 13 0 16 0;
#X connect 14 0 9 1;
#X connect 15 0 9 0;
#X connect 16 0 31 0;
#X connect 17 0 2 1;
#X connect 18 0 17 1;
#X connect 19 0 17 2;
#X connect 20 0 17 4;
#X connect 21 0 17 3;
#X connect 22 0 0 0;
#X connect 24 0 31 2;
#X connect 24 0 32 0;
#X connect 25 0 30 0;
#X connect 26 0 30 0;
#X connect 27 0 26 0;
#X connect 28 0 24 0;
#X connect 29 0 28 0;
#X connect 30 0 31 1;
#X connect 31 0 2 0;
#X connect 32 0 36 0;
#X connect 33 0 23 0;
#X connect 34 0 33 1;
#X connect 35 0 34 0;
#X connect 36 0 35 0;
#X connect 37 0 24 0;
#X connect 38 0 25 0;
#X connect 40 0 1 0;
#X connect 41 0 40 0;
