#N canvas 325 348 851 829 10;
#X floatatom 344 317 5 0 0 0 - - -, f 5;
#X obj 267 413 delay~ 100;
#X floatatom 363 288 5 0 0 0 - - -, f 5;
#X msg 390 198 2;
#X obj 367 174 metro 5;
#X obj 248 491 +~;
#X obj 479 420 delay~ 100;
#X obj 456 503 +~;
#X obj 456 529 outlet~ R;
#X obj 248 526 outlet~ L;
#X obj 248 325 inlet~ L;
#X obj 456 345 inlet~ R;
#X obj 344 126 sel 0;
#X floatatom 344 148 5 0 0 0 - - -, f 5;
#X obj 102 102 cnv 15 146 76 empty empty FLANGER 40 12 0 14 -257983
-99865 0;
#X obj 227 107 tgl 15 0 empty empty empty 17 7 0 10 -255011 -262144
-1 1 1;
#X obj 112 132 hsl 128 15 50 1 0 0 empty empty Speed 45 8 0 10 -255011
-1 -262144 8000 1;
#X obj 112 153 hsl 128 15 10 1 0 0 empty empty Depth 45 8 0 10 -255011
-1 -262144 5700 1;
#X obj 34 97 loadbang;
#X msg 67 148 50;
#X msg 34 170 10;
#X obj 363 266 expr $f1 / $f2 + 50;
#X obj 367 218 counter 0 100;
#X obj 227 77 r flangeronoff;
#X obj 124 219 r peny_flanger_speed;
#X obj 124 265 * -1;
#X obj 124 243 - 1;
#X obj 124 287 * 50;
#X floatatom 124 309 5 0 0 0 - - -, f 5;
#X obj 35 357 r penx_flanger_depth;
#X obj 35 405 * -1;
#X obj 35 383 - 1;
#X floatatom 35 449 5 0 0 0 - - -, f 5;
#X obj 35 427 * 10;
#X obj 158 619 s flanger_depth_visual;
#X floatatom 160 596 5 0 0 0 - - -, f 5;
#X obj 159 504 - 9;
#X obj 159 526 * -1;
#X obj 159 550 + 1;
#X obj 159 572 * 10;
#X obj 59 644 s flanger_speed_visual;
#X obj 405 649 s flangeronoff_visual;
#X connect 0 0 1 1;
#X connect 0 0 6 1;
#X connect 1 0 5 1;
#X connect 2 0 0 0;
#X connect 3 0 22 1;
#X connect 4 0 3 0;
#X connect 4 0 22 0;
#X connect 5 0 9 0;
#X connect 6 0 7 1;
#X connect 7 0 8 0;
#X connect 10 0 5 0;
#X connect 10 0 1 0;
#X connect 11 0 6 0;
#X connect 11 0 7 0;
#X connect 12 0 13 0;
#X connect 13 0 0 0;
#X connect 15 0 12 0;
#X connect 15 0 4 0;
#X connect 15 0 41 0;
#X connect 16 0 4 1;
#X connect 16 0 40 0;
#X connect 17 0 21 1;
#X connect 17 0 36 0;
#X connect 18 0 20 0;
#X connect 18 0 19 0;
#X connect 19 0 16 0;
#X connect 20 0 17 0;
#X connect 21 0 2 0;
#X connect 22 0 21 0;
#X connect 23 0 15 0;
#X connect 24 0 26 0;
#X connect 25 0 27 0;
#X connect 26 0 25 0;
#X connect 27 0 28 0;
#X connect 28 0 16 0;
#X connect 29 0 31 0;
#X connect 30 0 33 0;
#X connect 31 0 30 0;
#X connect 32 0 17 0;
#X connect 33 0 32 0;
#X connect 35 0 34 0;
#X connect 36 0 37 0;
#X connect 37 0 38 0;
#X connect 38 0 39 0;
#X connect 39 0 35 0;
#X coords 0 -1 1 1 150 80 2 100 100;
