#N canvas 932 73 742 612 10;
#N canvas 659 113 1091 794 gemwin 0;
#X obj 230 337 gemwin;
#X msg 293 142 dimen 500 500;
#X msg 330 100 dimen 1920 1155;
#X obj 293 58 sel 0 1 2 3;
#X msg 348 80 dimen 668 462;
#X msg 311 121 dimen 1155 1155;
#X obj 94 33 r create_destroy;
#X obj 293 33 r dimen;
#X obj 93 54 select 1 0;
#X msg 93 86 create \, 1;
#X msg 168 87 destroy;
#X obj 93 111 t a;
#X obj 19 143 t a a;
#X obj 51 171 route create destroy;
#X obj 51 193 t b;
#X msg 51 215 1;
#X obj 119 193 t b;
#X msg 119 215 0;
#X obj 51 238 t f;
#X msg 51 262 set \$1;
#X obj 19 27 loadbang;
#X msg 19 52 reset;
#X msg 422 470 lighting \$1;
#X obj 41 410 gemhead;
#X obj 41 554 world_light;
#X msg 72 509 debug 1;
#X obj 41 477 rotateXYZ;
#X floatatom 61 452 5 0 0 0 - - -, f 5;
#X msg 72 531 debug 0;
#X floatatom 103 452 5 0 0 0 - - -, f 5;
#X text 56 431 move the light point;
#X text 131 507 see;
#X text 130 532 unsee light point;
#X obj 422 443 r light;
#X msg 488 271 color 0 0 0;
#X obj 805 435 pack f f f;
#X msg 479 336 color \$1 \$2 \$3;
#X obj 814 401 t b f;
#X obj 860 401 t b f;
#X obj 488 250 loadbang;
#X obj 839 370 * 0.01;
#X obj 920 370 * 0.01;
#X obj 758 349 random 100;
#X obj 839 349 random 100;
#X obj 920 349 random 100;
#X obj 758 370 * 0.01;
#X obj 829 127 r bgcolsel;
#X msg 481 303 color 1 1 1;
#X obj 829 149 sel 0 1 2 3;
#X msg 887 212 stop;
#X obj 667 36 inlet;
#X msg 667 61 color \$1 \$2 \$3;
#X obj 951 181 t b b;
#X obj 946 55 inlet;
#X obj 997 57 inlet;
#X floatatom 946 77 5 0 0 0 - - -, f 5;
#X obj 849 304 metro 500;
#X msg 286 545 fog 0.15748;
#X obj 270 414 hsl 128 15 0 1 0 0 empty empty empty -2 -8 0 10 -262144
-1 -1 0 1;
#X obj 267 434 t b f;
#X msg 304 479 set fog \$1;
#X text 564 534 fogmode 0/1/2/3 : set the fog mode (OFF/LINEAR/EXP/EXP^2)
;
#X msg 491 590 fogmode 3;
#X obj 494 508 hradio 15 1 0 4 empty empty empty 0 -8 0 10 -262144
-1 -1 3;
#X msg 487 553 set fogmode \$1;
#X obj 490 530 t b f;
#X msg 412 43 dimen \$1 \$2;
#X obj 412 20 inlet;
#X obj 811 172 t b f;
#X obj 761 169 t b f;
#X obj 342 177 r \$0-gemwin-in;
#X connect 1 0 0 0;
#X connect 2 0 0 0;
#X connect 3 0 1 0;
#X connect 3 1 5 0;
#X connect 3 2 2 0;
#X connect 3 3 4 0;
#X connect 4 0 0 0;
#X connect 5 0 0 0;
#X connect 6 0 8 0;
#X connect 7 0 3 0;
#X connect 8 0 9 0;
#X connect 8 1 10 0;
#X connect 9 0 11 0;
#X connect 10 0 11 0;
#X connect 11 0 12 0;
#X connect 12 0 0 0;
#X connect 12 1 13 0;
#X connect 13 0 14 0;
#X connect 13 1 16 0;
#X connect 14 0 15 0;
#X connect 15 0 18 0;
#X connect 16 0 17 0;
#X connect 17 0 18 0;
#X connect 18 0 19 0;
#X connect 20 0 21 0;
#X connect 21 0 12 0;
#X connect 22 0 0 0;
#X connect 23 0 26 0;
#X connect 25 0 24 0;
#X connect 26 0 24 0;
#X connect 27 0 26 1;
#X connect 28 0 24 0;
#X connect 29 0 26 2;
#X connect 33 0 22 0;
#X connect 34 0 0 0;
#X connect 35 0 36 0;
#X connect 36 0 0 0;
#X connect 37 0 35 0;
#X connect 37 1 35 1;
#X connect 38 0 35 0;
#X connect 38 1 35 2;
#X connect 39 0 34 0;
#X connect 40 0 37 0;
#X connect 41 0 38 0;
#X connect 42 0 45 0;
#X connect 43 0 40 0;
#X connect 44 0 41 0;
#X connect 45 0 35 0;
#X connect 46 0 48 0;
#X connect 47 0 0 0;
#X connect 48 0 69 0;
#X connect 48 1 68 0;
#X connect 48 2 56 0;
#X connect 48 3 49 0;
#X connect 49 0 56 0;
#X connect 50 0 51 0;
#X connect 51 0 0 0;
#X connect 52 0 56 0;
#X connect 52 1 49 0;
#X connect 53 0 55 0;
#X connect 53 0 56 1;
#X connect 54 0 52 0;
#X connect 56 0 42 0;
#X connect 56 0 43 0;
#X connect 56 0 44 0;
#X connect 57 0 0 0;
#X connect 58 0 59 0;
#X connect 59 0 57 0;
#X connect 59 1 60 0;
#X connect 60 0 57 0;
#X connect 62 0 0 0;
#X connect 63 0 65 0;
#X connect 64 0 62 0;
#X connect 65 0 62 0;
#X connect 65 1 64 0;
#X connect 66 0 0 0;
#X connect 67 0 66 0;
#X connect 68 0 49 0;
#X connect 68 1 47 0;
#X connect 69 0 49 0;
#X connect 69 1 34 0;
#X connect 70 0 0 0;
#X restore 116 505 pd gemwin;
#X obj 116 484 pack f f f;
#X obj 125 450 t b f;
#X obj 171 450 t b f;
#X obj 103 102 cnv 15 146 316 empty empty empty 20 12 0 14 -257983
-66577 0;
#X obj 109 125 tgl 15 0 create_destroy empty empty 17 7 0 10 -1 -262144
-262144 1 1;
#X text 126 145 small window;
#X text 126 161 large window;
#X obj 109 146 vradio 15 1 0 4 dimen empty empty 0 -8 0 10 -1 -262144
-262144 0;
#X text 126 177 full screen;
#X text 128 124 open window;
#X text 126 191 small rect;
#X obj 109 271 tgl 15 0 light empty empty 17 7 0 10 -1 -262144 -262144
1 1;
#X text 127 270 light on / off;
#X obj 110 311 vradio 15 1 0 4 bgcolsel empty empty 0 -8 0 10 -1 -262144
-262144 0;
#X text 128 355 freeze color;
#X text 129 326 white;
#X text 129 311 black;
#X obj 132 380 vsl 15 30 0 1 0 0 empty empty empty 0 -9 0 10 -26960
-204786 -204786 0 0;
#X obj 154 380 vsl 15 30 0 1 0 0 empty empty empty 0 -9 0 10 -14080
-262144 -262144 0 0;
#X obj 110 380 vsl 15 30 0 1 0 0 empty empty empty 0 -9 0 10 -254797
-262144 -262144 0 0;
#X text 128 340 random color;
#X text 107 291 BACKGROUND COLOR;
#X obj 103 102 cnv 15 146 15 empty empty GEM_INIT 40 9 0 14 -1 -262144
0;
#X obj 98 78 inlet;
#X obj 245 76 inlet;
#X floatatom 109 210 5 0 0 0 - - -, f 5;
#X floatatom 158 210 5 0 0 0 - - -, f 5;
#X obj 14 427 pack f f;
#X text 195 209 custom;
#X text 147 208 x;
#X obj 301 220 loadbang;
#X floatatom 360 480 5 0 0 0 - - -, f 5;
#X obj 360 502 sel 0 1;
#X msg 391 523 2;
#X msg 360 523 0;
#X text 276 438 sélection du background avec l'effet delay;
#X obj 361 459 r delayonoff_visual;
#X msg 300 100 0;
#X msg 331 100 2;
#X msg 360 100 4;
#X text 452 98 <-- destroy gemwin between clicking these;
#X obj 342 177 s \$0-gemwin-in;
#X msg 421 100 8;
#X msg 391 100 5;
#X msg 342 150 destroy \, FSAA \$1 \, create \, 1;
#X obj 308 52 sel 0 1 2 3 4;
#X obj 109 245 hradio 15 1 0 5 empty empty -_______+ 1 8 0 13 -262144
-1 -1 0;
#X text 107 232 Choose defenition;
#X connect 1 0 0 1;
#X connect 2 0 1 0;
#X connect 2 1 1 1;
#X connect 3 0 1 0;
#X connect 3 1 1 2;
#X connect 18 0 2 0;
#X connect 19 0 3 0;
#X connect 20 0 1 0;
#X connect 24 0 0 2;
#X connect 25 0 0 3;
#X connect 26 0 28 0;
#X connect 27 0 28 1;
#X connect 28 0 0 0;
#X connect 31 0 12 0;
#X connect 32 0 33 0;
#X connect 33 0 35 0;
#X connect 33 1 34 0;
#X connect 34 0 14 0;
#X connect 35 0 14 0;
#X connect 37 0 32 0;
#X connect 38 0 45 0;
#X connect 39 0 45 0;
#X connect 40 0 45 0;
#X connect 43 0 45 0;
#X connect 44 0 45 0;
#X connect 45 0 42 0;
#X connect 46 0 38 0;
#X connect 46 1 39 0;
#X connect 46 2 40 0;
#X connect 46 3 44 0;
#X connect 46 4 43 0;
#X connect 47 0 46 0;
#X coords 0 -1 1 1 150 320 2 100 100;
