#N canvas 549 23 1338 1047 10;
#N canvas 87 154 247 179 Gem.init 0;
#X obj 118 46 loadbang;
#X msg 118 81 reset;
#X obj 118 113 outlet;
#X connect 0 0 1 0;
#X connect 1 0 2 0;
#X restore 8 19 pd Gem.init;
#N canvas 1112 62 579 444 gemwin 1;
#X obj 115 140 tgl 15 0 \$0-gemstart \$0-gemstart empty 17 7 0 10 -145663
-1 -1 0 1;
#X obj 392 80 r \$0-gemstart;
#X obj 392 101 select 1 0;
#X msg 392 133 create \, 1;
#X msg 467 134 destroy;
#X obj 392 158 t a;
#X obj 318 34 inlet;
#X obj 318 351 gemwin;
#X obj 318 190 t a a;
#X obj 318 383 outlet;
#X obj 350 218 route create destroy;
#X obj 350 240 t b;
#X msg 350 262 1;
#X obj 418 240 t b;
#X msg 418 262 0;
#X obj 350 285 t f;
#X msg 350 309 set \$1;
#X msg 94 393 dimen 500 500;
#X text 131 168 small window;
#X text 131 184 large window;
#X obj 114 169 vradio 15 1 0 4 empty empty empty 0 -8 0 10 -262144
-1 -1 3;
#X floatatom 114 256 5 0 0 0 - - -, f 5;
#X msg 134 332 dimen 1920 1155;
#X text 131 200 full screen;
#X text 134 139 open window;
#X obj 114 277 sel 0 1 2 3;
#X text 131 214 large rect;
#X msg 167 305 dimen 668 462;
#X msg 114 364 dimen 1155 1155;
#X connect 1 0 2 0;
#X connect 2 0 3 0;
#X connect 2 1 4 0;
#X connect 3 0 5 0;
#X connect 4 0 5 0;
#X connect 5 0 8 0;
#X connect 6 0 8 0;
#X connect 7 0 9 0;
#X connect 8 0 7 0;
#X connect 8 1 10 0;
#X connect 10 0 11 0;
#X connect 10 1 13 0;
#X connect 11 0 12 0;
#X connect 12 0 15 0;
#X connect 13 0 14 0;
#X connect 14 0 15 0;
#X connect 15 0 16 0;
#X connect 16 0 0 0;
#X connect 17 0 7 0;
#X connect 20 0 21 0;
#X connect 21 0 25 0;
#X connect 22 0 7 0;
#X connect 25 0 17 0;
#X connect 25 1 28 0;
#X connect 25 2 22 0;
#X connect 25 3 27 0;
#X connect 27 0 7 0;
#X connect 28 0 7 0;
#X coords 0 -1 1 1 132 140 1 100 100;
#X restore 8 40 pd gemwin;
#X obj 258 39 gemhead;
#X msg 283 202 draw line;
#X obj 258 262 sphere 2;
#X floatatom 312 237 5 0 0 0 - - -, f 5;
#X obj 1024 51 pack $f1 $f2 $f3;
#X obj 1046 18 t b f;
#X obj 1088 18 t b f;
#X obj 258 131 rotateXYZ $f1 $f2 $f3;
#X obj 309 75 hsl 128 15 0 127 0 0 empty empty empty -2 -8 0 10 -262144
-1 -1 0 1;
#X obj 405 112 hsl 128 15 0 127 0 0 empty empty empty -2 -8 0 10 -262144
-1 -1 0 1;
#X obj 357 94 hsl 128 15 0 127 0 0 empty empty empty -2 -8 0 10 -262144
-1 -1 0 1;
#X connect 0 0 1 0;
#X connect 2 0 9 0;
#X connect 3 0 4 0;
#X connect 5 0 4 2;
#X connect 7 0 6 0;
#X connect 7 1 6 1;
#X connect 8 0 6 0;
#X connect 8 1 6 2;
#X connect 9 0 4 0;
#X connect 10 0 9 1;
#X connect 11 0 9 3;
#X connect 12 0 9 2;
