#N canvas 602 164 1046 893 10;
#X msg 450 525 \$1 25;
#X obj 450 547 line~;
#X obj 450 483 r master_volume;
#X obj 432 574 *~;
#X obj 471 683 *~ 1;
#X floatatom 444 203 5 0 0 0 - - -, f 5;
#X floatatom 450 505 5 0 0 0 - - -, f 5;
#X text 506 684 Signal mono to stereo;
#X obj 399 845 outlet~ LEFT;
#X obj 512 844 outlet~ RIGHT;
#X obj 444 98 inlet;
#X obj 600 101 inlet;
#X obj 102 102 cnv 15 296 356 empty empty empty 20 12 0 14 -257983
-66577 0;
#X obj 111 188 hsl 128 15 20 1000 0 0 envelope empty Envelope 40 8
0 10 -219072 -1 -262144 0 1;
#X obj 111 154 hsl 128 15 18000 100 1 0 cutoff cutoff_init Cutoff 50
8 0 10 -219072 -1 -262144 0 1;
#X obj 108 239 tgl 15 0 sel0 sine_on empty 25 8 0 10 -214976 -262144
-1 1 1;
#X obj 262 278 hsl 128 15 0 5 0 0 amount_triangle empty LFO_Amount
40 8 0 10 -262144 -1 -214976 0 1;
#X obj 262 297 hsl 128 15 0.2 20 1 0 speed_triangle empty LFO_Speed
40 8 0 10 -262144 -1 -214976 0 1;
#X obj 111 277 hsl 128 15 0 2 0 0 amount_sine empty LFO_Amount 40 8
0 10 -262144 -1 -219072 12700 1;
#X obj 111 296 hsl 128 15 0.2 20 1 0 speed_sine empty LFO_Speed 40
8 0 10 -262144 -1 -219072 12700 1;
#X obj 259 348 tgl 15 0 sel1 empty empty 25 8 0 10 -219072 -262144
-262144 1 1;
#X obj 259 240 tgl 15 0 sel3 empty empty 25 8 0 10 -219072 -262144
-1 1 1;
#X text 279 347 SQUARE;
#X text 130 346 SAWTOOTH;
#X obj 262 386 hsl 128 15 0 5 0 0 amount_square empty LFO_Amount 40
8 0 10 -262144 -1 -219072 7200 1;
#X obj 262 405 hsl 128 15 0.2 20 1 0 speed_square empty LFO_Speed 40
8 0 10 -262144 -1 -214976 5600 1;
#X obj 111 386 hsl 128 15 0 5 0 0 amount_triangle empty Amount 50 8
0 10 -262144 -1 -214976 5900 1;
#X obj 111 405 hsl 128 15 0.2 20 1 0 speed_triangle empty Speed 50
8 0 10 -262144 -1 -214976 4100 1;
#X obj 109 347 tgl 15 0 sel2 empty empty -30 8 0 10 -214976 -262144
-262144 1 1;
#X obj 262 259 hsl 128 15 0 1 0 0 trianglevol init_triangle Volume
50 8 0 10 -219072 -1 -262144 12700 0;
#X text 130 239 SINEWAVE;
#X obj 111 258 hsl 128 15 0 1 0 0 sinevol init_sine Volume 50 8 0 10
-219072 -1 -262144 12700 0;
#X obj 111 135 hsl 128 15 0 1 0 0 master_volume empty Master_Volume
35 8 0 10 -262144 -1 -219072 6350 0;
#X obj 177 102 cnv 15 100 20 empty empty MONOPHONIC_SYNTH 0 12 0 14
-257983 -99865 0;
#X obj 111 367 hsl 128 15 0 1 0 0 trianglevol init_triangle Volume
50 8 0 10 -214976 -1 -262144 12700 0;
#X obj 262 367 hsl 128 15 0 1 0 0 squarevol init_square Volume 50 8
0 10 -214976 -1 -262144 12700 0;
#X obj 108 424 hradio 14 1 0 5 oct_sawtooth oct_init Octave 80 8 0
10 -262144 -214976 -1 3;
#X obj 108 317 hradio 14 1 0 5 oct_sine oct_init Octave 80 8 0 10 -262144
-219072 -1 1;
#X obj 259 425 hradio 14 1 0 5 oct_square oct_init Octave 80 8 0 10
-262144 -214976 -1 0;
#X obj 259 317 hradio 14 1 0 5 oct_triangle oct_init Octave 80 8 0
10 -262144 -214976 -1 2;
#X text 279 240 TRIANGLE;
#X obj 345 440 cnv 15 10 10 empty empty right_out 0 12 0 10 -257983
-99865 0;
#X obj 103 107 cnv 15 10 10 empty empty notein 0 0 0 10 -257983 -99865
0;
#X obj 349 108 cnv 15 10 10 empty empty velocity 0 0 0 10 -257983 -99865
0;
#X obj 104 440 cnv 15 10 10 empty empty left_out 0 12 0 10 -257983
-99865 0;
#X obj 259 150 cnv 15 130 70 empty empty empty 20 12 0 14 -262144 -66577
0;
#N canvas 0 22 450 278 (subpatch) 0;
#X array waveform_monophonic 1000 float 1;
#A 0 0 0 0 0 0 0 0 0 0 0 0 0 0 0 0 0 0 0 0 0 0 0 0 0 0 0 0 0 0 0 0
0 0 0 0 0 0 0 0 0 0 0 0 0 0 0 0 0 0 0 0 0 0 0 0 0 0 0 0 0 0 0 0 0 0
0 0 0 0 0 0 0 0 0 0 0 0 0 0 0 0 0 0 0 0 0 0 0 0 0 0 0 0 0 0 0 0 0 0
0 0 0 0 0 0 0 0 0 0 0 0 0 0 0 0 0 0 0 0 0 0 0 0 0 0 0 0 0 0 0 0 0 0
0 0 0 0 0 0 0 0 0 0 0 0 0 0 0 0 0 0 0 0 0 0 0 0 0 0 0 0 0 0 0 0 0 0
0 0 0 0 0 0 0 0 0 0 0 0 0 0 0 0 0 0 0 0 0 0 0 0 0 0 0 0 0 0 0 0 0 0
0 0 0 0 0 0 0 0 0 0 0 0 0 0 0 0 0 0 0 0 0 0 0 0 0 0 0 0 0 0 0 0 0 0
0 0 0 0 0 0 0 0 0 0 0 0 0 0 0 0 0 0 0 0 0 0 0 0 0 0 0 0 0 0 0 0 0 0
0 0 0 0 0 0 0 0 0 0 0 0 0 0 0 0 0 0 0 0 0 0 0 0 0 0 0 0 0 0 0 0 0 0
0 0 0 0 0 0 0 0 0 0 0 0 0 0 0 0 0 0 0 0 0 0 0 0 0 0 0 0 0 0 0 0 0 0
0 0 0 0 0 0 0 0 0 0 0 0 0 0 0 0 0 0 0 0 0 0 0 0 0 0 0 0 0 0 0 0 0 0
0 0 0 0 0 0 0 0 0 0 0 0 0 0 0 0 0 0 0 0 0 0 0 0 0 0 0 0 0 0 0 0 0 0
0 0 0 0 0 0 0 0 0 0 0 0 0 0 0 0 0 0 0 0 0 0 0 0 0 0 0 0 0 0 0 0 0 0
0 0 0 0 0 0 0 0 0 0 0 0 0 0 0 0 0 0 0 0 0 0 0 0 0 0 0 0 0 0 0 0 0 0
0 0 0 0 0 0 0 0 0 0 0 0 0 0 0 0 0 0 0 0 0 0 0 0 0 0 0 0 0 0 0 0 0 0
0 0 0 0 0 0 0 0 0 0 0 0 0 0 0 0 0 0 0 0 0 0 0 0 0 0 0 0 0 0 0 0 0 0
0 0 0 0 0 0 0 0 0 0 0 0 0 0 0 0 0 0 0 0 0 0 0 0 0 0 0 0 0 0 0 0 0 0
0 0 0 0 0 0 0 0 0 0 0 0 0 0 0 0 0 0 0 0 0 0 0 0 0 0 0 0 0 0 0 0 0 0
0 0 0 0 0 0 0 0 0 0 0 0 0 0 0 0 0 0 0 0 0 0 0 0 0 0 0 0 0 0 0 0 0 0
0 0 0 0 0 0 0 0 0 0 0 0 0 0 0 0 0 0 0 0 0 0 0 0 0 0 0 0 0 0 0 0 0 0
0 0 0 0 0 0 0 0 0 0 0 0 0 0 0 0 0 0 0 0 0 0 0 0 0 0 0 0 0 0 0 0 0 0
0 0 0 0 0 0 0 0 0 0 0 0 0 0 0 0 0 0 0 0 0 0 0 0 0 0 0 0 0 0 0 0 0 0
0 0 0 0 0 0 0 0 0 0 0 0 0 0 0 0 0 0 0 0 0 0 0 0 0 0 0 0 0 0 0 0 0 0
0 0 0 0 0 0 0 0 0 0 0 0 0 0 0 0 0 0 0 0 0 0 0 0 0 0 0 0 0 0 0 0 0 0
0 0 0 0 0 0 0 0 0 0 0 0 0 0 0 0 0 0 0 0 0 0 0 0 0 0 0 0 0 0 0 0 0 0
0 0 0 0 0 0 0 0 0 0 0 0 0 0 0 0 0 0 0 0 0 0 0 0 0 0 0 0 0 0 0 0 0 0
0 0 0 0 0 0 0 0 0 0 0 0 0 0 0 0 0 0 0 0 0 0 0 0 0 0 0 0 0 0 0 0 0 0
0 0 0 0 0 0 0 0 0 0 0 0 0 0 0 0 0 0 0 0 0 0 0 0 0 0 0 0 0 0 0 0 0 0
0 0 0 0 0 0 0 0 0 0 0 0 0 0 0 0 0 0 0 0 0 0 0 0 0 0 0 0 0 0 0 0 0 0
0 0 0 0 0 0 0 0 0 0 0 0 0 0 0 0 0;
#X coords 0 2 1000 -2 130 70 2 0 0;
#X restore 259 150 graph;
#N canvas 1359 747 405 390 oct_switch_master 0;
#X obj 217 36 inlet;
#X obj 209 300 outlet;
#X floatatom 217 106 5 0 0 0 - - -, f 5;
#X obj 222 126 + 24;
#X obj 262 192 - 12;
#X obj 276 214 - 24;
#X obj 249 170 + 0;
#X obj 235 148 + 12;
#X obj 209 234 switch 5 2;
#X obj 117 95 r oct_master;
#X obj 117 118 + 1;
#X floatatom 117 139 5 0 0 0 - - -, f 5;
#X text 258 127 1;
#X text 273 149 2;
#X text 279 171 3;
#X text 298 193 4;
#X text 312 215 5;
#X msg 56 207 3;
#X obj 56 186 loadbang;
#X text 84 208 3 = 0 octave;
#X obj 56 258 s oct_init;
#X obj 56 234 - 1;
#X connect 0 0 2 0;
#X connect 2 0 7 0;
#X connect 2 0 3 0;
#X connect 2 0 6 0;
#X connect 2 0 4 0;
#X connect 2 0 5 0;
#X connect 3 0 8 1;
#X connect 4 0 8 4;
#X connect 5 0 8 5;
#X connect 6 0 8 3;
#X connect 7 0 8 2;
#X connect 8 0 1 0;
#X connect 9 0 10 0;
#X connect 10 0 11 0;
#X connect 11 0 8 0;
#X connect 17 0 8 0;
#X connect 17 0 21 0;
#X connect 18 0 17 0;
#X connect 21 0 20 0;
#X restore 444 235 pd oct_switch_master;
#N canvas 918 240 750 744 sine 0;
#X obj 17 18 inlet;
#X obj 18 684 outlet~;
#X obj 517 41 loadbang;
#X obj 18 654 *~;
#X msg 78 581 \$1 25;
#X obj 78 601 line~;
#X msg 168 551 1;
#X obj 168 528 loadbang;
#X obj 78 529 r sinevol;
#X obj 168 578 s init_sine;
#X obj 369 157 switch~;
#X msg 432 119 0;
#X msg 369 120 1;
#X obj 369 69 sel 1;
#X obj 432 97 bng 15 250 50 0 empty empty empty 17 7 0 10 -262144 -1
-1;
#X obj 369 95 bng 15 250 50 0 empty empty empty 17 7 0 10 -262144 -1
-1;
#X text 462 119 stop;
#X text 396 118 go!;
#X obj 369 40 r sel0;
#X text 366 16 On/off sine osc;
#X obj 517 65 s sine_on;
#X text 513 85 ouverture du sine osc;
#X obj 17 128 mtof;
#X obj 17 169 osc~;
#X floatatom 17 65 5 0 0 0 - - -, f 5;
#X floatatom 17 149 5 0 0 0 - - -, f 5;
#X floatatom 116 346 5 0 0 0 - - -, f 5;
#X floatatom 76 258 5 0 0 0 - - -, f 5;
#X msg 173 257 0;
#X obj 173 234 loadbang;
#X msg 161 367 0;
#X obj 158 346 loadbang;
#X obj 76 277 lfo~ 0 250 2500;
#X obj 17 335 vcf~ 0;
#X obj 85 420 * 0.5;
#X obj 17 512 *~ 1;
#X floatatom 85 482 5 0 0 0 - - -, f 5;
#X obj 85 462 expr if ($f1 <= 1 \, 1 \, $f1);
#X obj 85 441 * 2.5;
#X obj 116 323 r amount_sine;
#X obj 77 234 r speed_sine;
#X floatatom 17 105 5 0 0 0 - - -, f 5;
#N canvas 935 438 425 381 oct_switch_sine 0;
#X obj 204 32 inlet;
#X obj 196 296 outlet;
#X floatatom 204 102 5 0 0 0 - - -, f 5;
#X obj 209 122 + 24;
#X obj 249 188 - 12;
#X obj 263 210 - 24;
#X obj 236 166 + 0;
#X obj 222 144 + 12;
#X obj 196 230 switch 5 2;
#X obj 84 114 + 1;
#X floatatom 84 135 5 0 0 0 - - -, f 5;
#X text 245 123 1;
#X text 260 145 2;
#X text 266 167 3;
#X text 285 189 4;
#X text 299 211 5;
#X msg 43 203 3;
#X obj 43 182 loadbang;
#X text 71 204 3 = 0 octave;
#X obj 43 254 s oct_init;
#X obj 43 230 - 1;
#X obj 84 90 r oct_sine;
#X connect 0 0 2 0;
#X connect 2 0 7 0;
#X connect 2 0 3 0;
#X connect 2 0 6 0;
#X connect 2 0 4 0;
#X connect 2 0 5 0;
#X connect 3 0 8 1;
#X connect 4 0 8 4;
#X connect 5 0 8 5;
#X connect 6 0 8 3;
#X connect 7 0 8 2;
#X connect 8 0 1 0;
#X connect 9 0 10 0;
#X connect 10 0 8 0;
#X connect 16 0 8 0;
#X connect 16 0 20 0;
#X connect 17 0 16 0;
#X connect 20 0 19 0;
#X connect 21 0 9 0;
#X restore 17 83 pd oct_switch_sine;
#X text 132 416 Calcul pour ramener le volume au même niveau lors
du contrôle de l'amount du Lfo (j'ai fait ça à l'oreille);
#X connect 0 0 24 0;
#X connect 2 0 20 0;
#X connect 3 0 1 0;
#X connect 4 0 5 0;
#X connect 5 0 3 1;
#X connect 6 0 4 0;
#X connect 6 0 9 0;
#X connect 7 0 6 0;
#X connect 8 0 4 0;
#X connect 11 0 10 0;
#X connect 12 0 10 0;
#X connect 13 0 15 0;
#X connect 13 1 14 0;
#X connect 14 0 11 0;
#X connect 15 0 12 0;
#X connect 18 0 13 0;
#X connect 22 0 25 0;
#X connect 23 0 33 0;
#X connect 24 0 42 0;
#X connect 25 0 23 0;
#X connect 26 0 33 2;
#X connect 26 0 34 0;
#X connect 27 0 32 0;
#X connect 28 0 32 0;
#X connect 29 0 28 0;
#X connect 30 0 26 0;
#X connect 31 0 30 0;
#X connect 32 0 33 1;
#X connect 33 0 35 0;
#X connect 34 0 38 0;
#X connect 35 0 3 0;
#X connect 36 0 35 1;
#X connect 37 0 36 0;
#X connect 38 0 37 0;
#X connect 39 0 26 0;
#X connect 40 0 27 0;
#X connect 41 0 22 0;
#X connect 42 0 41 0;
#X restore 451 357 pd sine;
#X obj 432 613 *~;
#X floatatom 600 123 5 0 0 0 - - -, f 5;
#X obj 600 561 vline~;
#X obj 600 512 pack \$1 \$2;
#X msg 600 536 \$1 \$2;
#X floatatom 667 492 5 0 0 0 - - -, f 5;
#X obj 444 173 spigot;
#X obj 159 717 loadbang;
#X obj 159 737 metro 100;
#X obj 159 758 tabwrite~ waveform_monophonic;
#X obj 229 721 bng 15 250 50 0 empty empty empty 17 7 0 10 -262144
-1 -1;
#X obj 432 683 *~ 1;
#N canvas 1030 23 851 776 triangle 0;
#X obj 61 18 inlet;
#X obj 61 630 *~;
#X msg 112 677 \$1 25;
#X obj 112 697 line~;
#X msg 212 647 1;
#X obj 212 624 loadbang;
#X obj 112 625 r trianglevol;
#X obj 212 669 s init_triangle;
#X obj 588 213 switch~;
#X msg 651 175 0;
#X msg 588 176 1;
#X obj 588 125 sel 1;
#X obj 651 153 bng 15 250 50 0 empty empty empty 17 7 0 10 -262144
-1 -1;
#X obj 588 151 bng 15 250 50 0 empty empty empty 17 7 0 10 -262144
-1 -1;
#X text 681 175 stop;
#X text 615 174 go!;
#X obj 588 97 r sel3;
#X text 586 74 On/off triangle osc;
#X obj 61 134 mtof;
#X floatatom 61 53 5 0 0 0 - - -, f 5;
#X obj 61 176 sig~;
#X floatatom 61 156 5 0 0 0 - - -, f 5;
#X obj 61 220 phasor~;
#X obj 134 221 phasor~;
#X obj 61 297 *~;
#X obj 134 199 *~ -1;
#X obj 61 242 *~ 2;
#X obj 134 244 *~ 2;
#X obj 61 326 -~ 0.5;
#X obj 134 269 clip~ 0 1;
#X obj 61 269 clip~ 0 1;
#X obj 61 353 *~ 2;
#X floatatom 236 442 5 0 0 0 - - -, f 5;
#X floatatom 166 334 5 0 0 0 - - -, f 5;
#X msg 309 322 0;
#X obj 309 299 loadbang;
#X msg 281 463 0;
#X obj 278 442 loadbang;
#X obj 166 353 lfo~ 0 250 2500;
#X obj 61 399 vcf~ 0;
#X obj 236 496 * 0.5;
#X obj 61 578 *~ 1;
#X floatatom 236 558 5 0 0 0 - - -, f 5;
#X obj 236 538 expr if ($f1 <= 1 \, 1 \, $f1);
#X obj 236 517 * 2.5;
#X obj 236 419 r amount_triangle;
#X obj 167 310 r speed_triangle;
#X text 283 492 Calcul pour ramener le volume au même niveau lors
du contrôle de l'amount du Lfo (j'ai fait ça à l'oreille c'est pas
parfait);
#X floatatom 61 104 5 0 0 0 - - -, f 5;
#N canvas 935 438 425 381 oct_switch_triangle 0;
#X obj 204 32 inlet;
#X obj 196 296 outlet;
#X floatatom 204 102 5 0 0 0 - - -, f 5;
#X obj 209 122 + 24;
#X obj 249 188 - 12;
#X obj 263 210 - 24;
#X obj 236 166 + 0;
#X obj 222 144 + 12;
#X obj 196 230 switch 5 2;
#X obj 84 114 + 1;
#X floatatom 84 135 5 0 0 0 - - -, f 5;
#X text 245 123 1;
#X text 260 145 2;
#X text 266 167 3;
#X text 285 189 4;
#X text 299 211 5;
#X msg 43 203 3;
#X obj 43 182 loadbang;
#X text 71 204 3 = 0 octave;
#X obj 43 254 s oct_init;
#X obj 43 230 - 1;
#X obj 84 90 r oct_triangle;
#X connect 0 0 2 0;
#X connect 2 0 7 0;
#X connect 2 0 3 0;
#X connect 2 0 6 0;
#X connect 2 0 4 0;
#X connect 2 0 5 0;
#X connect 3 0 8 1;
#X connect 4 0 8 4;
#X connect 5 0 8 5;
#X connect 6 0 8 3;
#X connect 7 0 8 2;
#X connect 8 0 1 0;
#X connect 9 0 10 0;
#X connect 10 0 8 0;
#X connect 16 0 8 0;
#X connect 16 0 20 0;
#X connect 17 0 16 0;
#X connect 20 0 19 0;
#X connect 21 0 9 0;
#X restore 61 82 pd oct_switch_triangle;
#X obj 61 735 outlet~;
#X connect 0 0 19 0;
#X connect 1 0 50 0;
#X connect 2 0 3 0;
#X connect 3 0 1 1;
#X connect 4 0 2 0;
#X connect 4 0 7 0;
#X connect 5 0 4 0;
#X connect 6 0 2 0;
#X connect 9 0 8 0;
#X connect 10 0 8 0;
#X connect 11 0 13 0;
#X connect 11 1 12 0;
#X connect 12 0 9 0;
#X connect 13 0 10 0;
#X connect 16 0 11 0;
#X connect 18 0 21 0;
#X connect 19 0 49 0;
#X connect 20 0 22 0;
#X connect 20 0 25 0;
#X connect 21 0 20 0;
#X connect 22 0 26 0;
#X connect 23 0 27 0;
#X connect 24 0 28 0;
#X connect 25 0 23 0;
#X connect 26 0 30 0;
#X connect 27 0 29 0;
#X connect 28 0 31 0;
#X connect 29 0 24 1;
#X connect 30 0 24 0;
#X connect 31 0 39 0;
#X connect 32 0 39 2;
#X connect 32 0 40 0;
#X connect 33 0 38 0;
#X connect 34 0 38 0;
#X connect 35 0 34 0;
#X connect 36 0 32 0;
#X connect 37 0 36 0;
#X connect 38 0 39 1;
#X connect 39 0 41 0;
#X connect 40 0 44 0;
#X connect 41 0 1 0;
#X connect 42 0 41 1;
#X connect 43 0 42 0;
#X connect 44 0 43 0;
#X connect 45 0 32 0;
#X connect 46 0 33 0;
#X connect 48 0 18 0;
#X connect 49 0 48 0;
#X restore 506 292 pd triangle;
#N canvas 232 191 667 889 sawtooth 0;
#X obj 41 26 inlet;
#X obj 41 834 outlet~;
#X obj 41 661 *~ 0.5;
#X msg 59 762 \$1 25;
#X obj 59 782 line~;
#X msg 168 732 1;
#X obj 168 709 loadbang;
#X obj 41 806 *~;
#X obj 59 710 r sawtoothvol;
#X obj 168 759 s init_sawtooth;
#X obj 392 75 r sel2;
#X obj 392 192 switch~;
#X msg 455 154 0;
#X msg 392 155 1;
#X obj 392 104 sel 1;
#X obj 455 132 bng 15 250 50 0 empty empty empty 17 7 0 10 -262144
-1 -1;
#X obj 392 130 bng 15 250 50 0 empty empty empty 17 7 0 10 -262144
-1 -1;
#X text 485 154 stop;
#X text 419 153 go!;
#X text 390 51 On/off sawtooth osc;
#X obj 41 146 mtof;
#X floatatom 41 65 5 0 0 0 - - -, f 5;
#X floatatom 41 168 5 0 0 0 - - -, f 5;
#X obj 40 241 phasor~;
#X obj 41 266 -~ 0.5;
#X obj 41 292 *~ 2;
#X text 91 265 ramener entre 1 et -1;
#X text 87 293 mettre le signal au bon niveau;
#X obj 43 198 sig~;
#X floatatom 140 445 5 0 0 0 - - -, f 5;
#X floatatom 100 357 5 0 0 0 - - -, f 5;
#X msg 243 345 0;
#X obj 243 322 loadbang;
#X msg 185 466 0;
#X obj 182 445 loadbang;
#X obj 101 333 r speed_sawtooth;
#X obj 140 422 r amount_sawtooth;
#X obj 100 376 lfo~ 0 250 2500;
#X obj 41 434 vcf~ 0;
#X obj 109 519 * 0.5;
#X obj 41 611 *~ 1;
#X floatatom 109 581 5 0 0 0 - - -, f 5;
#X obj 109 561 expr if ($f1 <= 1 \, 1 \, $f1);
#X obj 109 540 * 2.5;
#X text 156 515 Calcul pour ramener le volume au même niveau lors
du contrôle de l'amount du Lfo (j'ai fait ça à l'oreille);
#X floatatom 41 112 5 0 0 0 - - -, f 5;
#N canvas 935 438 425 381 oct_switch_sawtooth 0;
#X obj 204 32 inlet;
#X obj 196 296 outlet;
#X floatatom 204 102 5 0 0 0 - - -, f 5;
#X obj 209 122 + 24;
#X obj 249 188 - 12;
#X obj 263 210 - 24;
#X obj 236 166 + 0;
#X obj 222 144 + 12;
#X obj 196 230 switch 5 2;
#X obj 84 114 + 1;
#X floatatom 84 135 5 0 0 0 - - -, f 5;
#X text 245 123 1;
#X text 260 145 2;
#X text 266 167 3;
#X text 285 189 4;
#X text 299 211 5;
#X msg 43 203 3;
#X obj 43 182 loadbang;
#X text 71 204 3 = 0 octave;
#X obj 43 254 s oct_init;
#X obj 43 230 - 1;
#X obj 84 90 r oct_sawtooth;
#X connect 0 0 2 0;
#X connect 2 0 7 0;
#X connect 2 0 3 0;
#X connect 2 0 6 0;
#X connect 2 0 4 0;
#X connect 2 0 5 0;
#X connect 3 0 8 1;
#X connect 4 0 8 4;
#X connect 5 0 8 5;
#X connect 6 0 8 3;
#X connect 7 0 8 2;
#X connect 8 0 1 0;
#X connect 9 0 10 0;
#X connect 10 0 8 0;
#X connect 16 0 8 0;
#X connect 16 0 20 0;
#X connect 17 0 16 0;
#X connect 20 0 19 0;
#X connect 21 0 9 0;
#X restore 41 90 pd oct_switch_sawtooth;
#X connect 0 0 21 0;
#X connect 2 0 7 0;
#X connect 3 0 4 0;
#X connect 4 0 7 1;
#X connect 5 0 3 0;
#X connect 5 0 9 0;
#X connect 6 0 5 0;
#X connect 7 0 1 0;
#X connect 8 0 3 0;
#X connect 10 0 14 0;
#X connect 12 0 11 0;
#X connect 13 0 11 0;
#X connect 14 0 16 0;
#X connect 14 1 15 0;
#X connect 15 0 12 0;
#X connect 16 0 13 0;
#X connect 20 0 22 0;
#X connect 21 0 46 0;
#X connect 22 0 28 0;
#X connect 23 0 24 0;
#X connect 24 0 25 0;
#X connect 25 0 38 0;
#X connect 28 0 23 0;
#X connect 29 0 38 2;
#X connect 29 0 39 0;
#X connect 30 0 37 0;
#X connect 31 0 37 0;
#X connect 32 0 31 0;
#X connect 33 0 29 0;
#X connect 34 0 33 0;
#X connect 35 0 30 0;
#X connect 36 0 29 0;
#X connect 37 0 38 1;
#X connect 38 0 40 0;
#X connect 39 0 43 0;
#X connect 40 0 2 0;
#X connect 41 0 40 1;
#X connect 42 0 41 0;
#X connect 43 0 42 0;
#X connect 45 0 20 0;
#X connect 46 0 45 0;
#X restore 487 314 pd sawtooth;
#N canvas 1126 202 752 821 square 0;
#X obj 28 24 inlet;
#X obj 28 710 outlet~;
#X obj 28 630 *~ 0.5;
#X msg 113 676 \$1 25;
#X obj 113 696 line~;
#X obj 113 624 r squarevol;
#X obj 28 682 *~;
#X msg 203 646 1;
#X obj 203 623 loadbang;
#X obj 203 669 s init_square;
#X obj 513 186 switch~;
#X msg 576 148 0;
#X msg 513 149 1;
#X obj 513 98 sel 1;
#X obj 576 126 bng 15 250 50 0 empty empty empty 17 7 0 10 -262144
-1 -1;
#X obj 513 124 bng 15 250 50 0 empty empty empty 17 7 0 10 -262144
-1 -1;
#X text 606 148 stop;
#X text 540 147 go!;
#X obj 513 69 r sel1;
#X text 513 43 On/off square osc;
#X obj 28 299 clip~ -1 1;
#X obj 28 244 osc~;
#X obj 28 269 *~ 100;
#X obj 28 169 mtof;
#X floatatom 28 75 5 0 0 0 - - -, f 5;
#X floatatom 28 189 5 0 0 0 - - -, f 5;
#X obj 28 208 sig~;
#X obj 125 313 lfo~ 0.1 250 2500;
#X floatatom 195 402 5 0 0 0 - - -, f 5;
#X obj 195 379 r amount_square;
#X floatatom 125 294 5 0 0 0 - - -, f 5;
#X obj 126 270 r speed_square;
#X msg 268 282 0;
#X obj 268 259 loadbang;
#X msg 240 423 0;
#X obj 237 402 loadbang;
#X obj 28 353 vcf~ 0;
#X obj 96 501 * 0.5;
#X obj 28 593 *~ 1;
#X floatatom 96 563 5 0 0 0 - - -, f 5;
#X obj 96 543 expr if ($f1 <= 1 \, 1 \, $f1);
#X obj 96 522 * 2.5;
#X text 143 497 Calcul pour ramener le volume au même niveau lors
du contrôle de l'amount du Lfo (j'ai fait ça à l'oreille);
#X floatatom 28 130 5 0 0 0 - - -, f 5;
#N canvas 935 438 425 381 oct_switch_square 0;
#X obj 204 32 inlet;
#X obj 196 296 outlet;
#X floatatom 204 102 5 0 0 0 - - -, f 5;
#X obj 209 122 + 24;
#X obj 249 188 - 12;
#X obj 263 210 - 24;
#X obj 236 166 + 0;
#X obj 222 144 + 12;
#X obj 196 230 switch 5 2;
#X obj 84 114 + 1;
#X floatatom 84 135 5 0 0 0 - - -, f 5;
#X text 245 123 1;
#X text 260 145 2;
#X text 266 167 3;
#X text 285 189 4;
#X text 299 211 5;
#X msg 43 203 3;
#X obj 43 182 loadbang;
#X text 71 204 3 = 0 octave;
#X obj 43 254 s oct_init;
#X obj 43 230 - 1;
#X obj 84 90 r oct_square;
#X connect 0 0 2 0;
#X connect 2 0 7 0;
#X connect 2 0 3 0;
#X connect 2 0 6 0;
#X connect 2 0 4 0;
#X connect 2 0 5 0;
#X connect 3 0 8 1;
#X connect 4 0 8 4;
#X connect 5 0 8 5;
#X connect 6 0 8 3;
#X connect 7 0 8 2;
#X connect 8 0 1 0;
#X connect 9 0 10 0;
#X connect 10 0 8 0;
#X connect 16 0 8 0;
#X connect 16 0 20 0;
#X connect 17 0 16 0;
#X connect 20 0 19 0;
#X connect 21 0 9 0;
#X restore 28 108 pd oct_switch_square;
#X connect 0 0 24 0;
#X connect 2 0 6 0;
#X connect 3 0 4 0;
#X connect 4 0 6 1;
#X connect 5 0 3 0;
#X connect 6 0 1 0;
#X connect 7 0 3 0;
#X connect 7 0 9 0;
#X connect 8 0 7 0;
#X connect 11 0 10 0;
#X connect 12 0 10 0;
#X connect 13 0 15 0;
#X connect 13 1 14 0;
#X connect 14 0 11 0;
#X connect 15 0 12 0;
#X connect 18 0 13 0;
#X connect 20 0 36 0;
#X connect 21 0 22 0;
#X connect 22 0 20 0;
#X connect 23 0 25 0;
#X connect 24 0 44 0;
#X connect 25 0 26 0;
#X connect 26 0 21 0;
#X connect 27 0 36 1;
#X connect 28 0 36 2;
#X connect 28 0 37 0;
#X connect 29 0 28 0;
#X connect 30 0 27 0;
#X connect 31 0 30 0;
#X connect 32 0 27 0;
#X connect 33 0 32 0;
#X connect 34 0 28 0;
#X connect 35 0 34 0;
#X connect 36 0 38 0;
#X connect 37 0 41 0;
#X connect 38 0 2 0;
#X connect 39 0 38 1;
#X connect 40 0 39 0;
#X connect 41 0 40 0;
#X connect 43 0 23 0;
#X connect 44 0 43 0;
#X restore 467 336 pd square;
#X obj 111 171 hsl 128 15 0 4 0 0 res empty Resonnance 40 8 0 10 -219072
-1 -262144 0 1;
#X obj 667 470 r envelope;
#X obj 9 183 loadbang;
#X msg 9 205 20;
#X floatatom 606 710 5 0 0 0 - - -, f 5;
#X obj 489 735 delay~ 22050 \$2;
#X obj 111 205 hsl 128 15 0 1800 0 0 empty empty Stereo_Amount 25 8
0 10 -262144 -1 -219072 0 1;
#N canvas 697 492 449 436 filter 0;
#X obj 190 157 clip 0 4;
#X floatatom 190 177 5 0 0 0 - - -, f 5;
#X msg 190 195 \$1 25;
#X obj 190 214 line~;
#X floatatom 56 169 10 0 0 0 - - -, f 10;
#X msg 56 196 \$1 25;
#X obj 56 215 line~;
#X obj 16 245 bob~ 18000 0;
#X obj 56 64 r cutoff;
#X obj 190 64 r res;
#X floatatom 190 139 5 0 0 0 - - -, f 5;
#X obj 16 352 outlet~;
#X obj 16 14 inlet~;
#X obj 77 86 loadbang;
#X msg 77 107 18000;
#X obj 231 86 loadbang;
#X msg 231 107 0;
#X obj 82 130 s cutoff_init;
#X connect 0 0 1 0;
#X connect 1 0 2 0;
#X connect 2 0 3 0;
#X connect 3 0 7 2;
#X connect 4 0 5 0;
#X connect 5 0 6 0;
#X connect 6 0 7 1;
#X connect 7 0 11 0;
#X connect 8 0 4 0;
#X connect 9 0 10 0;
#X connect 10 0 0 0;
#X connect 12 0 7 0;
#X connect 13 0 14 0;
#X connect 14 0 4 0;
#X connect 14 0 17 0;
#X connect 15 0 16 0;
#X connect 16 0 10 0;
#X restore 432 432 pd filter;
#X obj 432 394 *~ 1;
#X floatatom 444 120 5 0 0 0 - - -, f 5;
#X obj 54 45 r penbut2;
#X obj 54 67 * 0.5;
#X text 492 397 comment;
#X connect 0 0 1 0;
#X connect 1 0 3 1;
#X connect 2 0 6 0;
#X connect 3 0 49 0;
#X connect 4 0 69 0;
#X connect 5 0 47 0;
#X connect 6 0 0 0;
#X connect 10 0 55 0;
#X connect 10 0 73 0;
#X connect 11 0 50 0;
#X connect 47 0 48 0;
#X connect 47 0 63 0;
#X connect 47 0 62 0;
#X connect 47 0 61 0;
#X connect 48 0 72 0;
#X connect 49 0 4 0;
#X connect 49 0 60 0;
#X connect 50 0 52 0;
#X connect 50 0 55 1;
#X connect 51 0 49 1;
#X connect 52 0 53 0;
#X connect 53 0 51 0;
#X connect 54 0 52 1;
#X connect 55 0 5 0;
#X connect 56 0 57 0;
#X connect 57 0 58 0;
#X connect 59 0 57 0;
#X connect 60 0 8 0;
#X connect 60 0 58 0;
#X connect 61 0 72 0;
#X connect 62 0 72 0;
#X connect 63 0 72 0;
#X connect 65 0 54 0;
#X connect 66 0 67 0;
#X connect 67 0 13 0;
#X connect 68 0 69 1;
#X connect 69 0 9 0;
#X connect 70 0 68 0;
#X connect 71 0 3 0;
#X connect 72 0 71 0;
#X connect 74 0 75 0;
#X connect 75 0 32 0;
#X coords 0 -1 1 1 300 360 1 100 100;
