#N canvas 540 23 1325 906 10;
#X obj 11 199 geminitk;
#X obj 65 179 bng 15 250 50 0 empty empty empty 17 7 0 10 -262144 -1
-1;
#X text 84 177 init tempo;
#X obj 7 69 block~ 64 0 0;
#X obj 11 94 taptempok;
#N canvas 253 98 983 732 Tablet_Effect_Sel 0;
#X obj 773 385 tgl 15 0 empty empty empty 17 7 0 10 -262144 -1 -1 0
1;
#X obj 423 178 hradio 15 1 0 8 empty empty empty 0 -8 0 10 -262144
-1 -1 5;
#X obj 329 31 r but2;
#X obj 329 58 sel 1;
#X obj 287 271 r peny;
#X obj 434 296 r but4;
#X obj 423 459 s rvbonoff;
#X obj 436 440 s transfertdistonoff;
#X obj 434 318 sel 1;
#X obj 434 338 tgl 15 0 empty empty empty 17 7 0 10 -262144 -1 -1 0
1;
#X text 791 386 DISTORTION;
#X obj 777 286 tgl 15 0 empty empty empty 17 7 0 10 -262144 -1 -1 0
1;
#X text 795 287 REVERB;
#X obj 777 473 tgl 15 0 empty empty empty 17 7 0 10 -262144 -1 -1 0
1;
#X text 795 474 TREMOLO;
#X obj 449 421 s tremonoff;
#X obj 269 666 s peny_rbv_roomsize;
#X text 472 119 2 : DISTORTION;
#X text 472 132 3 : TREMOLO;
#X text 472 92 0 : NOTHING;
#X obj 29 634 s penx_rvb_wetdry;
#X msg 375 58 0;
#X msg 471 58 1;
#X obj 423 32 r but1;
#X obj 423 58 sel 1;
#X msg 777 256 1;
#X msg 809 256 0;
#X obj 777 234 sel 1;
#X msg 777 357 1;
#X msg 809 357 0;
#X obj 777 335 sel 2;
#X msg 777 447 1;
#X msg 809 447 0;
#X obj 777 425 sel 3;
#X obj 42 587 s penx_disto_wetdry;
#X obj 282 619 s peny_disto_drive;
#X obj 353 178 loadbang;
#X text 472 105 1 : REVERB;
#X text 472 144 4 : FLANGER;
#X text 472 156 5 : DELAY;
#X obj 777 522 sel 4;
#X obj 777 618 sel 5;
#X obj 777 568 tgl 15 0 empty empty empty 17 7 0 10 -262144 -1 -1 0
1;
#X msg 777 544 1;
#X msg 809 544 0;
#X obj 777 664 tgl 15 0 empty empty empty 17 7 0 10 -262144 -1 -1 1
1;
#X msg 777 640 1;
#X msg 809 640 0;
#X text 795 569 FLANGER;
#X text 795 665 DELAY;
#X obj 29 390 gate 5 1;
#X obj 269 434 gate 5 1;
#X obj 423 358 gate 5 1;
#X obj 462 401 s flangeronoff;
#X obj 476 381 s delayonoff;
#X obj 308 523 s peny_flanger_speed;
#X obj 295 570 s peny_trem_speed;
#X obj 68 489 s penx_flanger_depth;
#X obj 55 538 s penx_trem_amount;
#X obj 287 344 spigot;
#X floatatom 287 366 5 0 0 0 - - -, f 5;
#X obj 339 320 r penbut2;
#X obj 340 341 - 1;
#X obj 340 363 * -1;
#X obj 71 341 spigot;
#X floatatom 71 366 5 0 0 0 - - -, f 5;
#X obj 123 320 r penbut2;
#X obj 124 341 - 1;
#X obj 124 363 * -1;
#X obj 71 265 r penx;
#X obj 82 443 s penx_delay;
#X obj 322 476 s peny_delay;
#X obj 71 306 spigot;
#X obj 110 286 r penpres;
#X obj 287 312 spigot;
#X obj 326 292 r penpres;
#X obj 322 456 spigot;
#X obj 308 502 spigot;
#X obj 295 549 spigot;
#X obj 282 598 spigot;
#X obj 269 645 spigot;
#X obj 82 421 spigot;
#X obj 68 469 spigot;
#X obj 55 515 spigot;
#X obj 42 566 spigot;
#X obj 29 613 spigot;
#X obj 784 306 s rvb_sel;
#X obj 779 403 s disto_sel;
#X obj 784 493 s trem_sel;
#X obj 787 588 s flanger_sel;
#X obj 777 684 s delay_sel;
#X obj 385 131 counter 1 5;
#X text 549 29 Cette patch fait en sorte que chaques effets peuvent
être contrôlé sur la tablette un effet à la fois;
#X connect 0 0 87 0;
#X connect 1 0 27 0;
#X connect 1 0 30 0;
#X connect 1 0 33 0;
#X connect 1 0 40 0;
#X connect 1 0 41 0;
#X connect 1 0 50 0;
#X connect 1 0 51 0;
#X connect 1 0 52 0;
#X connect 2 0 3 0;
#X connect 2 0 21 0;
#X connect 3 0 91 0;
#X connect 4 0 74 0;
#X connect 5 0 8 0;
#X connect 8 0 9 0;
#X connect 9 0 52 1;
#X connect 11 0 86 0;
#X connect 13 0 88 0;
#X connect 21 0 91 1;
#X connect 22 0 91 1;
#X connect 23 0 22 0;
#X connect 23 0 24 0;
#X connect 24 0 91 0;
#X connect 25 0 11 0;
#X connect 26 0 11 0;
#X connect 27 0 25 0;
#X connect 27 1 26 0;
#X connect 28 0 0 0;
#X connect 29 0 0 0;
#X connect 30 0 28 0;
#X connect 30 1 29 0;
#X connect 31 0 13 0;
#X connect 32 0 13 0;
#X connect 33 0 31 0;
#X connect 33 1 32 0;
#X connect 36 0 1 0;
#X connect 40 0 43 0;
#X connect 40 1 44 0;
#X connect 41 0 46 0;
#X connect 41 1 47 0;
#X connect 42 0 89 0;
#X connect 43 0 42 0;
#X connect 44 0 42 0;
#X connect 45 0 90 0;
#X connect 46 0 45 0;
#X connect 47 0 45 0;
#X connect 50 0 85 0;
#X connect 50 1 84 0;
#X connect 50 2 83 0;
#X connect 50 3 82 0;
#X connect 50 4 81 0;
#X connect 51 0 80 0;
#X connect 51 1 79 0;
#X connect 51 2 78 0;
#X connect 51 3 77 0;
#X connect 51 4 76 0;
#X connect 52 0 6 0;
#X connect 52 0 80 1;
#X connect 52 0 85 1;
#X connect 52 1 7 0;
#X connect 52 1 79 1;
#X connect 52 1 84 1;
#X connect 52 2 15 0;
#X connect 52 2 78 1;
#X connect 52 2 83 1;
#X connect 52 3 53 0;
#X connect 52 3 77 1;
#X connect 52 3 82 1;
#X connect 52 4 54 0;
#X connect 52 4 76 1;
#X connect 52 4 81 1;
#X connect 59 0 60 0;
#X connect 60 0 51 1;
#X connect 61 0 62 0;
#X connect 62 0 63 0;
#X connect 63 0 59 1;
#X connect 64 0 65 0;
#X connect 65 0 50 1;
#X connect 66 0 67 0;
#X connect 67 0 68 0;
#X connect 68 0 64 1;
#X connect 69 0 72 0;
#X connect 72 0 64 0;
#X connect 73 0 72 1;
#X connect 74 0 59 0;
#X connect 75 0 74 1;
#X connect 76 0 71 0;
#X connect 77 0 55 0;
#X connect 78 0 56 0;
#X connect 79 0 35 0;
#X connect 80 0 16 0;
#X connect 81 0 70 0;
#X connect 82 0 57 0;
#X connect 83 0 58 0;
#X connect 84 0 34 0;
#X connect 85 0 20 0;
#X connect 91 0 1 0;
#X restore 14 563 pd Tablet_Effect_Sel;
#X msg 10 48 open ./ obects;
#X obj 10 23 loadbang;
#X obj 1053 785 *~;
#X obj 1024 814 dac~;
#X obj 1105 738 hsl 128 15 0 1 0 0 empty empty Master_Volume 35 8 0
10 -262144 -1 -1 0 1;
#N canvas 0 22 450 278 (subpatch) 0;
#X array waveform1 1000 float 5;
#A 0 0 0 0 0 0 0 0 0 0 0 0 0 0 0 0 0 0 0 0 0 0 0 0 0 0 0 0 0 0 0 0
0 0 0 0 0 0 0 0 0 0 0 0 0 0 0 0 0 0 0 0 0 0 0 0 0 0 0 0 0 0 0 0 0 0
0 0 0 0 0 0 0 0 0 0 0 0 0 0 0 0 0 0 0 0 0 0 0 0 0 0 0 0 0 0 0 0 0 0
0 0 0 0 0 0 0 0 0 0 0 0 0 0 0 0 0 0 0 0 0 0 0 0 0 0 0 0 0 0 0 0 0 0
0 0 0 0 0 0 0 0 0 0 0 0 0 0 0 0 0 0 0 0 0 0 0 0 0 0 0 0 0 0 0 0 0 0
0 0 0 0 0 0 0 0 0 0 0 0 0 0 0 0 0 0 0 0 0 0 0 0 0 0 0 0 0 0 0 0 0 0
0 0 0 0 0 0 0 0 0 0 0 0 0 0 0 0 0 0 0 0 0 0 0 0 0 0 0 0 0 0 0 0 0 0
0 0 0 0 0 0 0 0 0 0 0 0 0 0 0 0 0 0 0 0 0 0 0 0 0 0 0 0 0 0 0 0 0 0
0 0 0 0 0 0 0 0 0 0 0 0 0 0 0 0 0 0 0 0 0 0 0 0 0 0 0 0 0 0 0 0 0 0
0 0 0 0 0 0 0 0 0 0 0 0 0 0 0 0 0 0 0 0 0 0 0 0 0 0 0 0 0 0 0 0 0 0
0 0 0 0 0 0 0 0 0 0 0 0 0 0 0 0 0 0 0 0 0 0 0 0 0 0 0 0 0 0 0 0 0 0
0 0 0 0 0 0 0 0 0 0 0 0 0 0 0 0 0 0 0 0 0 0 0 0 0 0 0 0 0 0 0 0 0 0
0 0 0 0 0 0 0 0 0 0 0 0 0 0 0 0 0 0 0 0 0 0 0 0 0 0 0 0 0 0 0 0 0 0
0 0 0 0 0 0 0 0 0 0 0 0 0 0 0 0 0 0 0 0 0 0 0 0 0 0 0 0 0 0 0 0 0 0
0 0 0 0 0 0 0 0 0 0 0 0 0 0 0 0 0 0 0 0 0 0 0 0 0 0 0 0 0 0 0 0 0 0
0 0 0 0 0 0 0 0 0 0 0 0 0 0 0 0 0 0 0 0 0 0 0 0 0 0 0 0 0 0 0 0 0 0
0 0 0 0 0 0 0 0 0 0 0 0 0 0 0 0 0 0 0 0 0 0 0 0 0 0 0 0 0 0 0 0 0 0
0 0 0 0 0 0 0 0 0 0 0 0 0 0 0 0 0 0 0 0 0 0 0 0 0 0 0 0 0 0 0 0 0 0
0 0 0 0 0 0 0 0 0 0 0 0 0 0 0 0 0 0 0 0 0 0 0 0 0 0 0 0 0 0 0 0 0 0
0 0 0 0 0 0 0 0 0 0 0 0 0 0 0 0 0 0 0 0 0 0 0 0 0 0 0 0 0 0 0 0 0 0
0 0 0 0 0 0 0 0 0 0 0 0 0 0 0 0 0 0 0 0 0 0 0 0 0 0 0 0 0 0 0 0 0 0
0 0 0 0 0 0 0 0 0 0 0 0 0 0 0 0 0 0 0 0 0 0 0 0 0 0 0 0 0 0 0 0 0 0
0 0 0 0 0 0 0 0 0 0 0 0 0 0 0 0 0 0 0 0 0 0 0 0 0 0 0 0 0 0 0 0 0 0
0 0 0 0 0 0 0 0 0 0 0 0 0 0 0 0 0 0 0 0 0 0 0 0 0 0 0 0 0 0 0 0 0 0
0 0 0 0 0 0 0 0 0 0 0 0 0 0 0 0 0 0 0 0 0 0 0 0 0 0 0 0 0 0 0 0 0 0
0 0 0 0 0 0 0 0 0 0 0 0 0 0 0 0 0 0 0 0 0 0 0 0 0 0 0 0 0 0 0 0 0 0
0 0 0 0 0 0 0 0 0 0 0 0 0 0 0 0 0 0 0 0 0 0 0 0 0 0 0 0 0 0 0 0 0 0
0 0 0 0 0 0 0 0 0 0 0 0 0 0 0 0 0 0 0 0 0 0 0 0 0 0 0 0 0 0 0 0 0 0
0 0 0 0 0 0 0 0 0 0 0 0 0 0 0 0 0 0 0 0 0 0 0 0 0 0 0 0 0 0 0 0 0 0
0 0 0 0 0 0 0 0 0 0 0 0 0 0 0 0 0;
#X coords 0 1 999 -1 200 140 1 0 0;
#X restore 16 640 graph;
#X obj 1150 760 s mastervol;
#X obj 1071 822 lbang;
#X obj 1071 841 metro 100;
#X obj 1071 864 tabwrite~ waveform1;
#X obj 866 34 notein;
#X obj 294 533 distok~;
#X obj 829 531 reverbk~;
#X obj 1008 531 tremolok~;
#X obj 294 69 importsoundk~;
#X obj 709 42 r penmidivel;
#X obj 498 42 r penmidinote;
#X obj 853 61 polysynthk~;
#X text 608 38 T A B L E T;
#X obj 1020 786 *~;
#X obj 1102 714 r ery;
#X obj 472 531 flangerk~;
#X obj 653 531 feedbackdelayk~;
#X obj 1102 780 line~;
#X msg 1102 758 \$1 25;
#X obj 361 513 tgl 15 0 empty disto_sel empty 17 7 0 10 -262144 -256397
-1 0 1;
#X obj 541 513 tgl 15 0 empty flanger_sel empty 17 7 0 10 -262144 -255011
-1 0 1;
#X obj 1064 514 tgl 15 0 empty trem_sel empty 17 7 0 10 -262144 -97166
-1 0 1;
#X obj 713 511 tgl 15 0 empty delay_sel empty 17 7 0 10 -262144 -253011
-1 1 1;
#X obj 887 513 tgl 15 0 empty rvb_sel empty 17 7 0 10 -262144 -59391
-1 0 1;
#X obj 179 133 r delay_ms;
#X floatatom 179 155 5 0 0 0 - - -, f 5;
#X obj 498 61 monosynth~;
#N canvas 351 23 1291 979 Talbet_Routing 0;
#X obj 147 76 unpackOSC;
#X obj 147 96 routeOSC /wacom;
#X obj 147 116 routeOSC /1;
#X obj 147 145 routeOSC /pen /key /eraser;
#X obj 147 431 routeOSC /0;
#X obj 266 187 routeOSC /0;
#X text 161 412 PEN;
#X obj 206 299 routeOSC /1 /2 /3 /4;
#X obj 27 339 routeOSC /ring;
#X obj 27 360 routeOSC /1;
#X obj 266 207 routeOSC /proximity /0 /1;
#X text 275 166 ERASER;
#X obj 147 56 udpreceive 9000;
#X obj 147 574 s penprox;
#X obj 196 554 s penx;
#X obj 246 535 s peny;
#X obj 296 515 s penpres;
#X obj 266 250 s erprox;
#X obj 323 228 s erx;
#X obj 380 228 s ery;
#X obj 147 452 routeOSC /proximity /0 /1 /4 /button;
#X obj 346 473 routeOSC /2;
#X text 20 9 *Names may vary from one tablet to another;
#X obj 346 494 s penbut2;
#X obj 206 380 s but1;
#X obj 240 360 s but2;
#X obj 274 341 s but3;
#X obj 308 321 s but4;
#X obj 27 381 s ring;
#X text 46 320 RING;
#X text 219 276 BUTTONS;
#X obj 729 33 r penx;
#X obj 730 129 r peny;
#X obj 729 58 expr if ($f1 > 0.3 \, $f2 \, 0);
#X obj 729 82 expr if ($f1 < 0.7 \, $f2 \, 0);
#X obj 729 106 expr if ($f1 <= 0 \, 0 \, 1);
#X obj 730 153 spigot;
#X floatatom 730 175 5 0 0 0 - - -, f 5;
#X text 726 12 Y CENTRE;
#X obj 489 61 expr if ($f1 < 0.3 \, $f2 \, 0);
#X obj 490 107 r peny;
#X obj 489 84 expr if ($f1 <= 0 \, 0 \, 1);
#X obj 490 131 spigot;
#X floatatom 490 153 5 0 0 0 - - -, f 5;
#X text 486 17 Y LEFT;
#X obj 988 33 r penx;
#X obj 989 104 r peny;
#X obj 988 81 expr if ($f1 <= 0 \, 0 \, 1);
#X obj 989 128 spigot;
#X floatatom 989 150 5 0 0 0 - - -, f 5;
#X obj 988 58 expr if ($f1 > 0.7 \, $f2 \, 0);
#X text 985 14 Y RIGHT;
#X obj 489 36 r penx;
#X obj 490 175 s penyL;
#X obj 730 192 s penyC;
#X obj 989 172 s penyR;
#X obj 491 502 expr if ($f1 < 0.3 \, $f2 \, 0);
#X obj 491 525 expr if ($f1 <= 0 \, 0 \, 1);
#X obj 492 572 spigot;
#X obj 492 623 spigot;
#X floatatom 492 689 5 0 0 0 - - -, f 5;
#X obj 532 892 expr if ($f1 < 0.5 \, $f1 \, 0);
#X obj 492 797 expr if ($f1 < 0.3 \, $f2 \, 0);
#X obj 492 820 expr if ($f1 <= 0 \, 0 \, 1);
#X obj 493 867 spigot;
#X obj 493 915 spigot;
#X floatatom 493 962 5 0 0 0 - - -, f 5;
#X text 489 753 Y LEFT DOWN;
#X text 488 458 Y LEFT UP;
#X obj 531 599 expr if ($f1 > 0.5 \, $f1 \, 0);
#X obj 731 502 expr if ($f1 > 0.3 \, $f2 \, 0);
#X obj 731 526 expr if ($f1 < 0.7 \, $f2 \, 0);
#X obj 731 550 expr if ($f1 <= 0 \, 0 \, 1);
#X obj 732 597 spigot;
#X obj 732 641 spigot;
#X floatatom 732 708 5 0 0 0 - - -, f 5;
#X obj 771 620 expr if ($f1 > 0.5 \, $f1 \, 0);
#X obj 732 797 expr if ($f1 > 0.3 \, $f2 \, 0);
#X obj 732 821 expr if ($f1 < 0.7 \, $f2 \, 0);
#X obj 732 845 expr if ($f1 <= 0 \, 0 \, 1);
#X obj 733 892 spigot;
#X obj 772 915 expr if ($f1 < 0.5 \, $f1 \, 0);
#X obj 733 937 spigot;
#X floatatom 733 979 5 0 0 0 - - -, f 5;
#X text 734 456 Y CENTRE UP;
#X text 731 750 Y CENTRE DOWN;
#X obj 990 525 expr if ($f1 <= 0 \, 0 \, 1);
#X obj 991 572 spigot;
#X obj 990 502 expr if ($f1 > 0.7 \, $f2 \, 0);
#X obj 991 619 spigot;
#X floatatom 991 691 5 0 0 0 - - -, f 5;
#X obj 1030 597 expr if ($f1 > 0.5 \, $f1 \, 0);
#X obj 991 820 expr if ($f1 <= 0 \, 0 \, 1);
#X obj 992 867 spigot;
#X obj 991 797 expr if ($f1 > 0.7 \, $f2 \, 0);
#X obj 1031 891 expr if ($f1 < 0.5 \, $f1 \, 0);
#X obj 992 912 spigot;
#X floatatom 992 964 5 0 0 0 - - -, f 5;
#X text 988 753 Y RIGHT DOWN;
#X text 987 458 Y RIGHT UP;
#X text 728 233 X CENTRE;
#X obj 730 282 expr if ($f1 > 0.3 \, $f2 \, 0);
#X obj 730 306 expr if ($f1 < 0.7 \, $f2 \, 0);
#X obj 730 330 expr if ($f1 <= 0 \, 0 \, 1);
#X obj 731 377 spigot;
#X floatatom 731 399 5 0 0 0 - - -, f 5;
#X obj 730 257 r peny;
#X obj 731 353 r penx;
#X obj 490 261 r peny;
#X obj 490 310 expr if ($f1 <= 0 \, 0 \, 1);
#X obj 491 357 spigot;
#X floatatom 491 379 5 0 0 0 - - -, f 5;
#X obj 491 333 r penx;
#X obj 490 286 expr if ($f1 < 0.3 \, $f2 \, 0);
#X obj 989 259 r peny;
#X obj 989 308 expr if ($f1 <= 0 \, 0 \, 1);
#X obj 990 355 spigot;
#X floatatom 990 377 5 0 0 0 - - -, f 5;
#X obj 990 331 r penx;
#X obj 989 284 expr if ($f1 > 0.7 \, $f2 \, 0);
#X text 987 237 X HAUT (RIGHT);
#X text 492 238 X BAS (LEFT);
#X obj 491 401 s penxL;
#X obj 731 421 s penxC;
#X obj 990 399 s penxR;
#X obj 492 709 s penyL_up;
#X obj 732 724 s penyC_up;
#X obj 991 710 s penyR_up;
#X obj 493 982 s penyL_down;
#X obj 733 999 s penyC_down;
#X obj 992 986 s penyR_down;
#X obj 492 645 - 0.5;
#X obj 492 667 * 2;
#X obj 732 664 - 0.5;
#X obj 732 686 * 2;
#X obj 991 645 - 0.5;
#X obj 991 667 * 2;
#X obj 733 958 * 2;
#X obj 992 938 * 2;
#X obj 493 937 * 2;
#X obj 74 688 r penx;
#X floatatom 74 710 5 0 0 0 - - -, f 5;
#X obj 73 858 r penpres;
#X floatatom 73 897 5 0 0 0 - - -, f 5;
#X obj 146 858 r penprox;
#X obj 146 880 sel 0;
#X msg 146 902 0;
#X floatatom 74 751 5 0 0 0 - - -, f 5;
#X obj 74 770 int;
#X floatatom 74 792 5 0 0 0 - - -, f 5;
#X obj 74 729 expr $f1 * 39 + 45;
#X obj 73 923 s penmidivel;
#X obj 74 811 s penmidinote;
#X text 72 664 PEN MIDI NOTE + VELOCITY;
#X obj 493 843 r peny_delay;
#X obj 733 868 r peny_delay;
#X obj 992 843 r peny_delay;
#X obj 991 548 r peny_delay;
#X obj 991 772 r penx_delay;
#X obj 732 772 r penx_delay;
#X obj 492 772 r penx_delay;
#X obj 492 548 r peny_delay;
#X obj 732 573 r peny_delay;
#X obj 990 477 r penx_delay;
#X obj 731 477 r penx_delay;
#X obj 491 477 r penx_delay;
#N canvas 190 64 663 270 Tablet_Name_Controls_Reminder 0;
#X floatatom 22 121 5 0 0 0 - - -, f 5;
#X floatatom 21 158 5 0 0 0 - - -, f 5;
#X floatatom 21 194 5 0 0 0 - - -, f 5;
#X floatatom 22 85 5 0 0 0 - - -, f 5;
#X text 62 84 on/off;
#X text 59 156 pen y;
#X text 59 120 pen x;
#X floatatom 453 80 5 0 0 0 - - -, f 5;
#X floatatom 453 118 5 0 0 0 - - -, f 5;
#X floatatom 453 155 5 0 0 0 - - -, f 5;
#X floatatom 453 191 5 0 0 0 - - -, f 5;
#X text 492 118 >>;
#X text 494 80 <<;
#X text 492 154 FN1;
#X text 490 192 FN2;
#X floatatom 336 83 5 0 0 0 - - -, f 5;
#X floatatom 336 118 5 0 0 0 - - -, f 5;
#X floatatom 336 153 5 0 0 0 - - -, f 5;
#X text 375 81 on/off;
#X text 374 152 eraser y;
#X text 375 118 eraser x;
#X obj 22 104 r penx;
#X obj 22 68 r penprox;
#X obj 21 141 r peny;
#X obj 21 177 r penpres;
#X obj 336 66 r erprox;
#X obj 336 101 r erx;
#X obj 336 136 r ery;
#X text 58 192 pen pressure;
#X floatatom 20 229 5 0 0 0 - - -, f 5;
#X obj 453 63 r but1;
#X obj 453 101 r but2;
#X obj 453 138 r but3;
#X obj 453 174 r but4;
#X obj 20 212 r penbut2;
#X obj 255 67 r ring;
#X floatatom 255 84 5 0 0 0 - - -, f 5;
#X text 60 226 pen button 1;
#X text 333 48 ERASER;
#X text 253 49 RING;
#X text 21 50 PEN;
#X text 450 47 BUTTONS;
#X text 19 21 T A B L E T _ C O N T R O L S;
#X text 501 138 off effects names;
#X text 504 175 on/off effects;
#X text 70 142 MASTER VOL;
#X connect 21 0 0 0;
#X connect 22 0 3 0;
#X connect 23 0 1 0;
#X connect 24 0 2 0;
#X connect 25 0 15 0;
#X connect 26 0 16 0;
#X connect 27 0 17 0;
#X connect 30 0 7 0;
#X connect 31 0 8 0;
#X connect 32 0 9 0;
#X connect 33 0 10 0;
#X connect 34 0 29 0;
#X connect 35 0 36 0;
#X restore 27 28 pd Tablet_Name_Controls_Reminder;
#X connect 0 0 1 0;
#X connect 1 0 2 0;
#X connect 2 0 3 0;
#X connect 2 0 8 0;
#X connect 3 0 4 0;
#X connect 3 1 7 0;
#X connect 3 2 5 0;
#X connect 4 0 20 0;
#X connect 5 0 10 0;
#X connect 7 0 24 0;
#X connect 7 1 25 0;
#X connect 7 2 26 0;
#X connect 7 3 27 0;
#X connect 8 0 9 0;
#X connect 9 0 28 0;
#X connect 10 0 17 0;
#X connect 10 1 18 0;
#X connect 10 2 19 0;
#X connect 12 0 0 0;
#X connect 20 0 13 0;
#X connect 20 1 14 0;
#X connect 20 2 15 0;
#X connect 20 3 16 0;
#X connect 20 4 21 0;
#X connect 21 0 23 0;
#X connect 31 0 33 0;
#X connect 31 0 33 1;
#X connect 32 0 36 0;
#X connect 33 0 34 0;
#X connect 33 0 34 1;
#X connect 34 0 35 0;
#X connect 35 0 36 1;
#X connect 36 0 37 0;
#X connect 37 0 54 0;
#X connect 39 0 41 0;
#X connect 40 0 42 0;
#X connect 41 0 42 1;
#X connect 42 0 43 0;
#X connect 43 0 53 0;
#X connect 45 0 50 0;
#X connect 45 0 50 1;
#X connect 46 0 48 0;
#X connect 47 0 48 1;
#X connect 48 0 49 0;
#X connect 49 0 55 0;
#X connect 50 0 47 0;
#X connect 52 0 39 0;
#X connect 52 0 39 1;
#X connect 56 0 57 0;
#X connect 57 0 58 1;
#X connect 58 0 69 0;
#X connect 58 0 59 0;
#X connect 59 0 131 0;
#X connect 60 0 125 0;
#X connect 61 0 65 1;
#X connect 62 0 63 0;
#X connect 63 0 64 1;
#X connect 64 0 61 0;
#X connect 64 0 65 0;
#X connect 65 0 139 0;
#X connect 66 0 128 0;
#X connect 69 0 59 1;
#X connect 70 0 71 0;
#X connect 70 0 71 1;
#X connect 71 0 72 0;
#X connect 72 0 73 1;
#X connect 73 0 76 0;
#X connect 73 0 74 0;
#X connect 74 0 133 0;
#X connect 75 0 126 0;
#X connect 76 0 74 1;
#X connect 77 0 78 0;
#X connect 77 0 78 1;
#X connect 78 0 79 0;
#X connect 79 0 80 1;
#X connect 80 0 81 0;
#X connect 80 0 82 0;
#X connect 81 0 82 1;
#X connect 82 0 137 0;
#X connect 83 0 129 0;
#X connect 86 0 87 1;
#X connect 87 0 91 0;
#X connect 87 0 89 0;
#X connect 88 0 86 0;
#X connect 89 0 135 0;
#X connect 90 0 127 0;
#X connect 91 0 89 1;
#X connect 92 0 93 1;
#X connect 93 0 95 0;
#X connect 93 0 96 0;
#X connect 94 0 92 0;
#X connect 95 0 96 1;
#X connect 96 0 138 0;
#X connect 97 0 130 0;
#X connect 101 0 102 0;
#X connect 101 0 102 1;
#X connect 102 0 103 0;
#X connect 103 0 104 1;
#X connect 104 0 105 0;
#X connect 105 0 123 0;
#X connect 106 0 101 0;
#X connect 106 0 101 1;
#X connect 107 0 104 0;
#X connect 108 0 113 0;
#X connect 108 0 113 1;
#X connect 109 0 110 1;
#X connect 110 0 111 0;
#X connect 111 0 122 0;
#X connect 112 0 110 0;
#X connect 113 0 109 0;
#X connect 114 0 119 0;
#X connect 114 0 119 1;
#X connect 115 0 116 1;
#X connect 116 0 117 0;
#X connect 117 0 124 0;
#X connect 118 0 116 0;
#X connect 119 0 115 0;
#X connect 131 0 132 0;
#X connect 132 0 60 0;
#X connect 133 0 134 0;
#X connect 134 0 75 0;
#X connect 135 0 136 0;
#X connect 136 0 90 0;
#X connect 137 0 83 0;
#X connect 138 0 97 0;
#X connect 139 0 66 0;
#X connect 140 0 141 0;
#X connect 141 0 150 0;
#X connect 142 0 143 0;
#X connect 143 0 151 0;
#X connect 144 0 145 0;
#X connect 145 0 146 0;
#X connect 146 0 143 0;
#X connect 147 0 148 0;
#X connect 148 0 149 0;
#X connect 149 0 152 0;
#X connect 150 0 147 0;
#X connect 154 0 64 0;
#X connect 155 0 80 0;
#X connect 156 0 93 0;
#X connect 157 0 87 0;
#X connect 158 0 94 0;
#X connect 158 0 94 1;
#X connect 159 0 77 0;
#X connect 159 0 77 1;
#X connect 160 0 62 0;
#X connect 160 0 62 1;
#X connect 161 0 58 0;
#X connect 162 0 73 0;
#X connect 163 0 88 0;
#X connect 163 0 88 1;
#X connect 164 0 70 0;
#X connect 164 0 70 1;
#X connect 165 0 56 0;
#X connect 165 0 56 1;
#X restore 14 539 pd Talbet_Routing;
#N canvas 493 256 728 369 Visual_Layout 0;
#X obj 26 172 tgl 15 0 empty empty empty 17 7 0 10 -262144 -1 -1 0
1;
#X text 20 12 VISUAL LAYOUT;
#X obj 39 245 tgl 15 0 empty empty empty 17 7 0 10 -262144 -1 -1 1
1;
#N canvas 731 23 1095 994 TremoloVisual 0;
#X msg 245 683 0.1;
#X obj 36 640 translateXYZ;
#X obj 36 720 square;
#X obj 139 880 * 0.01;
#X floatatom 139 902 5 0 0 0 - - -, f 5;
#X msg 167 781 stop;
#X obj 190 640 translateXYZ;
#X obj 190 720 square;
#X obj 36 328 gemhead;
#X obj 190 327 gemhead;
#X obj 263 879 * 0.01;
#X floatatom 263 901 5 0 0 0 - - -, f 5;
#X obj 350 638 translateXYZ;
#X obj 350 718 square;
#X obj 509 639 translateXYZ;
#X obj 350 326 gemhead;
#X obj 509 326 gemhead;
#X obj 139 829 metro 5;
#X obj 238 571 lbang;
#X obj 238 550 r resetsquare;
#X obj 167 803 s resetsquare;
#X msg 290 831 1;
#X text 62 780 start;
#X obj 107 782 lbang;
#X obj 245 663 lbang;
#X msg 238 593 3.5;
#X msg 296 591 -3.5;
#X obj 139 855 counter -350 350;
#X obj 263 854 counter -350 350;
#X obj 334 831 bng 15 250 50 0 empty empty empty 17 7 0 10 -262144
-1 -1;
#X text 351 833 reset value;
#X text 35 12 O R A N G E _ S Q U A R E S;
#X obj 485 846 r tremspeed;
#X obj 485 890 * -1;
#X floatatom 485 935 5 0 0 0 - - -, f 5;
#X obj 485 871 / 3.1;
#X obj 327 81 r tremamount;
#X floatatom 327 103 5 0 0 0 - - -, f 5;
#X obj 36 372 alpha;
#X obj 36 350 colorRGB 0.8 0.5 0 1;
#X obj 190 349 colorRGB 0.8 0.5 0 1;
#X obj 350 348 colorRGB 0.8 0.5 0 1;
#X obj 509 348 colorRGB 0.8 0.5 0 1;
#X obj 190 371 alpha;
#X obj 350 370 alpha;
#X obj 509 370 alpha;
#X obj 228 54 inlet;
#X obj 585 99 loadbang;
#X msg 585 121 0;
#X floatatom 540 871 5 0 0 0 - - -, f 5;
#X obj 485 913 + 4.9;
#X obj 510 585 rotateXYZ;
#X obj 509 719 square;
#X obj 659 492 bng 15 250 50 0 empty empty empty 17 7 0 10 -262144
-1 -1;
#X msg 682 489 stop;
#X msg 679 540 2;
#X obj 36 564 rotateXYZ;
#X obj 350 392 rotateXYZ;
#X obj 190 393 rotateXYZ;
#X floatatom 732 505 5 0 0 0 - - -, f 5;
#X obj 659 583 * 0.1;
#X obj 659 518 metro 5;
#X obj 659 561 counter 0 40;
#X obj 829 430 r tremspeed;
#X obj 829 454 * 0.5;
#X obj 829 478 * -1;
#X obj 829 502 + 7.5;
#X obj 613 383 tgl 15 0 empty empty empty 17 7 0 10 -262144 -1 -1 1
1;
#X connect 0 0 2 1;
#X connect 0 0 7 1;
#X connect 0 0 13 1;
#X connect 0 0 52 1;
#X connect 1 0 2 0;
#X connect 3 0 4 0;
#X connect 4 0 12 1;
#X connect 4 0 14 2;
#X connect 5 0 17 0;
#X connect 5 0 20 0;
#X connect 6 0 7 0;
#X connect 8 0 39 0;
#X connect 9 0 40 0;
#X connect 10 0 11 0;
#X connect 11 0 1 2;
#X connect 11 0 6 1;
#X connect 12 0 13 0;
#X connect 14 0 52 0;
#X connect 15 0 41 0;
#X connect 16 0 42 0;
#X connect 17 0 27 0;
#X connect 17 0 28 0;
#X connect 18 0 25 0;
#X connect 18 0 26 0;
#X connect 19 0 18 0;
#X connect 21 0 28 1;
#X connect 23 0 17 0;
#X connect 23 0 21 0;
#X connect 23 0 53 0;
#X connect 24 0 0 0;
#X connect 25 0 1 2;
#X connect 25 0 6 1;
#X connect 25 0 6 2;
#X connect 25 0 14 1;
#X connect 26 0 1 1;
#X connect 26 0 12 1;
#X connect 26 0 12 2;
#X connect 26 0 14 2;
#X connect 27 0 3 0;
#X connect 28 0 10 0;
#X connect 29 0 28 3;
#X connect 29 0 27 3;
#X connect 32 0 35 0;
#X connect 32 0 49 0;
#X connect 33 0 50 0;
#X connect 35 0 33 0;
#X connect 36 0 37 0;
#X connect 37 0 42 4;
#X connect 37 0 41 4;
#X connect 37 0 40 4;
#X connect 37 0 39 4;
#X connect 38 0 56 0;
#X connect 39 0 38 0;
#X connect 40 0 43 0;
#X connect 41 0 44 0;
#X connect 42 0 45 0;
#X connect 43 0 58 0;
#X connect 44 0 57 0;
#X connect 45 0 51 0;
#X connect 46 0 8 0;
#X connect 46 0 9 0;
#X connect 46 0 15 0;
#X connect 46 0 16 0;
#X connect 47 0 48 0;
#X connect 47 0 67 0;
#X connect 48 0 8 0;
#X connect 48 0 9 0;
#X connect 48 0 15 0;
#X connect 48 0 16 0;
#X connect 50 0 34 0;
#X connect 51 0 14 0;
#X connect 53 0 61 0;
#X connect 53 0 55 0;
#X connect 54 0 61 0;
#X connect 55 0 62 1;
#X connect 56 0 1 0;
#X connect 57 0 12 0;
#X connect 58 0 6 0;
#X connect 59 0 61 1;
#X connect 60 0 51 2;
#X connect 60 0 56 2;
#X connect 60 0 58 1;
#X connect 60 0 57 1;
#X connect 61 0 62 0;
#X connect 62 0 60 0;
#X connect 63 0 64 0;
#X connect 64 0 65 0;
#X connect 65 0 66 0;
#X connect 66 0 59 0;
#X connect 67 0 38 1;
#X connect 67 0 43 1;
#X connect 67 0 44 1;
#X connect 67 0 45 1;
#X restore 370 264 pd TremoloVisual;
#X obj 368 243 tgl 15 0 empty empty empty 17 7 0 10 -262144 -1 -1 1
1;
#N canvas 653 34 1115 1094 cube 0;
#X msg 365 69 stop;
#X floatatom 609 527 5 0 0 0 - - -, f 5;
#X obj 580 478 rotateXYZ $f1 $f2 $f3;
#X obj 575 413 translateXYZ;
#X floatatom 676 391 5 0 0 0 - - -, f 5;
#X obj 566 261 random 100;
#X obj 566 283 * 0.01;
#X obj 684 659 hsl 128 15 -2.5 2.5 0 0 empty empty translate_X 40 8
0 10 -262144 -1 -1 0 1;
#X obj 680 693 * -1;
#X floatatom 680 713 5 0 0 0 - - -, f 5;
#X obj 251 345 counter 1 36000;
#X obj 251 369 * 0.01;
#X obj 251 391 + 120;
#X obj 251 413 + 120;
#X obj 268 280 lbang;
#X msg 325 405 draw line;
#X obj 87 726 hsl 128 15 0.1 5 0 0 empty empty size 50 8 0 10 -262144
-1 -1 1037 1;
#X obj 307 957 hsl 128 15 1 80 0 0 empty empty nb_de_lignes 35 8 0
10 -262144 -1 -1 0 1;
#X obj 763 24 inlet;
#X obj 548 189 gemhead;
#X obj 296 760 hsl 128 15 0 1 0 0 empty empty transparanty 40 8 0 10
-262144 -1 -1 4318 1;
#X obj 557 364 alpha;
#X obj 691 607 * 0.01;
#X obj 691 585 counter -250 250;
#X obj 703 524 bng 15 250 50 0 empty empty empty 17 7 0 10 -262144
-1 -1;
#X floatatom 704 636 5 0 0 0 - - -, f 5;
#X obj 691 553 metro 10;
#X floatatom 756 532 5 0 0 0 - - -, f 5;
#X msg 725 521 stop;
#X obj 344 39 bng 15 250 50 0 empty empty empty 17 7 0 10 -262144 -1
-1;
#X text 363 39 variation de couleurs;
#X msg 562 73 1;
#X msg 526 73 1;
#X msg 635 74 1;
#X msg 599 73 1;
#X obj 531 101 pack f f f f;
#X obj 559 12 bng 15 250 50 0 empty empty empty 17 7 0 10 -262144 -1
-1;
#X obj 447 301 unpack f f f f;
#X text 595 26 white;
#X msg 761 559 2;
#X obj 835 653 hsl 128 15 -2.5 2.5 0 0 empty empty translate_Y 40 8
0 10 -262144 -1 -1 0 1;
#X obj 827 699 * -1;
#X floatatom 827 719 5 0 0 0 - - -, f 5;
#X obj 838 613 * 0.01;
#X obj 838 591 counter -250 250;
#X obj 850 530 bng 15 250 50 0 empty empty empty 17 7 0 10 -262144
-1 -1;
#X floatatom 838 635 5 0 0 0 - - -, f 5;
#X obj 838 559 metro 10;
#X floatatom 903 538 5 0 0 0 - - -, f 5;
#X msg 872 527 stop;
#X msg 908 565 2;
#X msg 830 73 0;
#X msg 784 74 1;
#X text 794 57 on / off;
#X obj 794 811 hsl 128 15 -2.5 2.5 0 0 empty empty translate_Z 40 8
0 10 -262144 -1 -1 0 1;
#X obj 525 27 t b b;
#X obj 653 254 random 100;
#X obj 653 276 * 0.01;
#X obj 750 253 random 100;
#X obj 750 275 * 0.01;
#X obj 579 800 t a b;
#X obj 637 827 f;
#X obj 637 849 + 1;
#X obj 475 873 spigot;
#X floatatom 643 955 5 0 0 0 - - -, f 5;
#X floatatom 696 897 5 0 0 0 - - -, f 5;
#X obj 604 363 tgl 15 0 empty empty empty 17 7 0 10 -262144 -1 -1 0
1;
#X msg 785 343 0;
#X text 814 343 init;
#X obj 169 637 * 50;
#X floatatom 169 681 5 0 0 0 - - -, f 5;
#X obj 169 659 - 24;
#X obj 556 330 colorRGB 1 1 1 1;
#X obj 638 874 mod 1;
#X floatatom 84 746 5 0 0 0 - - -, f 5;
#X obj 874 36 loadbang;
#X obj 339 221 gemhead;
#X obj 340 88 metro 200;
#X obj 251 325 metro 10;
#X msg 457 432 draw fill;
#X obj 402 277 hsl 128 15 0 1 0 0 empty empty empty -2 -8 0 10 -262144
-1 -1 0 1;
#X floatatom 397 570 5 0 0 0 - - -, f 5;
#X obj 405 393 alpha;
#X obj 405 371 colorRGB 1 1 1 1;
#X obj 380 518 circle 0.7;
#X msg 296 496 draw point;
#X obj 581 559 cube 2;
#X obj 81 637 r roomsize;
#X floatatom 81 659 5 0 0 0 - - -, f 5;
#X obj 81 678 + 0.5;
#X floatatom 293 780 5 0 0 0 - - -, f 5;
#X obj 292 706 loadbang;
#X msg 292 728 0.34;
#X obj 766 849 r rvb_wetdry;
#X floatatom 915 870 5 0 0 0 - - -, f 5;
#X obj 766 871 * 50;
#X obj 314 16 loadbang;
#X msg 107 701 0.5;
#X connect 0 0 77 0;
#X connect 2 0 86 0;
#X connect 3 0 2 0;
#X connect 4 0 3 1;
#X connect 5 0 6 0;
#X connect 6 0 72 1;
#X connect 7 0 8 0;
#X connect 7 0 4 0;
#X connect 8 0 9 0;
#X connect 10 0 11 0;
#X connect 11 0 12 0;
#X connect 12 0 13 0;
#X connect 13 0 2 1;
#X connect 13 0 2 2;
#X connect 13 0 2 3;
#X connect 14 0 78 0;
#X connect 14 0 79 0;
#X connect 15 0 84 0;
#X connect 15 0 86 0;
#X connect 16 0 74 0;
#X connect 16 0 86 1;
#X connect 17 0 1 0;
#X connect 18 0 19 0;
#X connect 18 0 76 0;
#X connect 19 0 72 0;
#X connect 20 0 72 4;
#X connect 20 0 90 0;
#X connect 21 0 3 0;
#X connect 22 0 25 0;
#X connect 23 0 22 0;
#X connect 24 0 26 0;
#X connect 24 0 39 0;
#X connect 25 0 7 0;
#X connect 26 0 23 0;
#X connect 27 0 26 1;
#X connect 28 0 26 0;
#X connect 29 0 77 0;
#X connect 31 0 35 1;
#X connect 32 0 35 0;
#X connect 33 0 35 3;
#X connect 34 0 35 2;
#X connect 35 0 37 0;
#X connect 36 0 55 0;
#X connect 37 0 72 1;
#X connect 37 1 72 2;
#X connect 37 2 72 3;
#X connect 37 3 72 4;
#X connect 39 0 23 1;
#X connect 40 0 41 0;
#X connect 40 0 3 2;
#X connect 41 0 42 0;
#X connect 43 0 46 0;
#X connect 44 0 43 0;
#X connect 45 0 47 0;
#X connect 45 0 50 0;
#X connect 46 0 40 0;
#X connect 47 0 44 0;
#X connect 48 0 47 1;
#X connect 49 0 47 0;
#X connect 50 0 44 1;
#X connect 51 0 19 0;
#X connect 51 0 76 0;
#X connect 52 0 19 0;
#X connect 52 0 76 0;
#X connect 54 0 3 3;
#X connect 55 0 32 0;
#X connect 55 0 31 0;
#X connect 55 0 34 0;
#X connect 55 0 33 0;
#X connect 55 1 0 0;
#X connect 56 0 57 0;
#X connect 57 0 72 2;
#X connect 58 0 59 0;
#X connect 59 0 72 3;
#X connect 60 0 63 0;
#X connect 60 1 61 0;
#X connect 61 0 62 0;
#X connect 62 0 61 1;
#X connect 62 0 73 0;
#X connect 63 0 2 0;
#X connect 64 0 63 1;
#X connect 65 0 73 1;
#X connect 66 0 21 1;
#X connect 67 0 3 1;
#X connect 67 0 3 2;
#X connect 67 0 3 3;
#X connect 67 0 2 1;
#X connect 67 0 2 2;
#X connect 67 0 2 3;
#X connect 69 0 71 0;
#X connect 71 0 70 0;
#X connect 72 0 21 0;
#X connect 73 0 64 0;
#X connect 75 0 51 0;
#X connect 76 0 83 0;
#X connect 77 0 5 0;
#X connect 77 0 56 0;
#X connect 77 0 58 0;
#X connect 78 0 10 0;
#X connect 79 0 84 0;
#X connect 79 0 86 0;
#X connect 80 0 83 4;
#X connect 83 0 82 0;
#X connect 85 0 86 0;
#X connect 86 0 60 0;
#X connect 87 0 88 0;
#X connect 88 0 89 0;
#X connect 89 0 16 0;
#X connect 91 0 92 0;
#X connect 91 0 97 0;
#X connect 92 0 20 0;
#X connect 93 0 94 0;
#X connect 93 0 95 0;
#X connect 95 0 65 0;
#X connect 96 0 77 0;
#X connect 97 0 16 0;
#X restore 38 264 pd cube reverb;
#X obj 21 284 r rvb_onoff_visual;
#N canvas 731 51 1029 1000 sphere_disto 0;
#X msg 106 52 stop;
#X floatatom 609 527 5 0 0 0 - - -, f 5;
#X obj 580 478 rotateXYZ $f1 $f2 $f3;
#X floatatom 676 391 5 0 0 0 - - -, f 5;
#X obj 49 162 * 0.01;
#X obj 684 659 hsl 128 15 -2.5 2.5 0 0 empty empty translate_X 40 8
0 10 -262144 -1 -1 889 1;
#X obj 680 693 * -1;
#X floatatom 680 713 5 0 0 0 - - -, f 5;
#X obj 248 342 counter 1 36000;
#X obj 248 366 * 0.01;
#X obj 248 388 + 120;
#X obj 248 410 + 120;
#X obj 265 277 lbang;
#X msg 322 402 draw line;
#X obj 87 726 hsl 128 15 0.1 5 0 0 empty empty size 50 8 0 10 -262144
-1 -1 12700 1;
#X obj 226 728 hsl 128 15 1 80 0 0 empty empty nb_de_lignes 35 8 0
10 -262144 -1 -1 0 1;
#X obj 763 24 inlet;
#X obj 583 265 gemhead;
#X obj 370 727 hsl 128 15 0 1 0 0 empty empty transparanty 40 8 0 10
-262144 -1 -1 3175 1;
#X obj 557 364 alpha;
#X obj 691 607 * 0.01;
#X obj 691 585 counter -250 250;
#X obj 703 524 bng 15 250 50 0 empty empty empty 17 7 0 10 -262144
-1 -1;
#X floatatom 704 636 5 0 0 0 - - -, f 5;
#X floatatom 756 532 5 0 0 0 - - -, f 5;
#X msg 725 521 stop;
#X obj 83 49 bng 15 250 50 0 empty empty empty 17 7 0 10 -262144 -1
-1;
#X text 150 59 variation de couleurs;
#X msg 562 73 1;
#X msg 526 73 1;
#X msg 635 74 1;
#X msg 599 73 1;
#X obj 531 101 pack f f f f;
#X obj 559 12 bng 15 250 50 0 empty empty empty 17 7 0 10 -262144 -1
-1;
#X obj 447 301 unpack f f f f;
#X text 595 26 white;
#X msg 761 559 2;
#X obj 835 653 hsl 128 15 -2.5 2.5 0 0 empty empty translate_Y 40 8
0 10 -262144 -1 -1 11557 1;
#X obj 827 699 * -1;
#X floatatom 827 719 5 0 0 0 - - -, f 5;
#X obj 838 613 * 0.01;
#X obj 838 591 counter -250 250;
#X obj 850 530 bng 15 250 50 0 empty empty empty 17 7 0 10 -262144
-1 -1;
#X floatatom 838 635 5 0 0 0 - - -, f 5;
#X floatatom 903 538 5 0 0 0 - - -, f 5;
#X msg 872 527 stop;
#X msg 908 565 2;
#X msg 830 73 0;
#X msg 784 74 1;
#X text 794 57 on / off;
#X obj 794 811 hsl 128 15 -2.5 2.5 0 0 empty empty translate_Z 40 8
0 10 -262144 -1 -1 0 1;
#X obj 525 27 t b b;
#X obj 173 154 * 0.01;
#X obj 275 154 * 0.01;
#X obj 590 768 t a b;
#X obj 622 795 f;
#X obj 622 817 + 1;
#X obj 560 864 spigot;
#X floatatom 622 863 5 0 0 0 - - -, f 5;
#X floatatom 667 830 5 0 0 0 - - -, f 5;
#X obj 604 363 tgl 15 0 empty empty empty 17 7 0 10 -262144 -1 -1 1
1;
#X msg 785 343 0;
#X text 814 343 init;
#X floatatom 681 875 5 0 0 0 - - -, f 5;
#X obj 681 853 r drive_disto;
#X obj 556 330 colorRGB 1 1 1 1;
#X obj 681 894 + 0.5;
#X obj 681 922 expr ($f1 * $f1) * 40;
#X obj 681 944 - 39;
#X obj 622 842 mod 1;
#X floatatom 84 746 5 0 0 0 - - -, f 5;
#X obj 913 21 loadbang;
#X obj 376 296 gemhead;
#X obj 49 114 metro 200;
#X msg 440 473 draw fill;
#X obj 399 337 hsl 128 15 0 1 0 0 empty empty empty -2 -8 0 10 -262144
-1 -1 0 1;
#X obj 405 393 alpha;
#X obj 405 371 colorRGB 1 1 1 1;
#X obj 380 518 circle 0.7;
#X msg 296 496 draw point;
#X obj 581 559 sphere 2;
#X obj 77 670 loadbang;
#X floatatom 117 707 5 0 0 0 - - -, f 5;
#X obj 575 413 translateXYZ 0 0 0;
#X floatatom 419 685 5 0 0 0 - - -, f 5;
#X msg 77 692 14;
#X obj 356 657 r wetdry_disto;
#X obj 356 679 * 0.5;
#X obj 248 322 metro 20;
#X obj 49 140 counter 0 100;
#X obj 173 135 counter 0 100;
#X obj 275 133 counter 0 100;
#X msg 88 87 2;
#X obj 691 553 metro 20;
#X obj 838 559 metro 27;
#X obj 140 188 vsl 15 30 0 1 0 0 empty empty empty 0 -9 0 10 -26960
-204786 -204786 754 0;
#X obj 162 188 vsl 15 30 0 1 0 0 empty empty empty 0 -9 0 10 -14080
-262144 -262144 1247 0;
#X obj 118 188 vsl 15 30 0 1 0 0 empty empty empty 0 -9 0 10 -254797
-262144 -262144 116 0;
#X obj 173 109 metro 225;
#X obj 275 111 metro 250;
#X connect 0 0 73 0;
#X connect 0 0 98 0;
#X connect 0 0 99 0;
#X connect 2 0 80 0;
#X connect 3 0 83 1;
#X connect 4 0 97 0;
#X connect 5 0 6 0;
#X connect 5 0 3 0;
#X connect 6 0 7 0;
#X connect 8 0 9 0;
#X connect 9 0 10 0;
#X connect 10 0 11 0;
#X connect 11 0 2 1;
#X connect 11 0 2 2;
#X connect 11 0 2 3;
#X connect 12 0 13 0;
#X connect 12 0 88 0;
#X connect 13 0 78 0;
#X connect 13 0 80 0;
#X connect 14 0 70 0;
#X connect 14 0 80 1;
#X connect 15 0 1 0;
#X connect 16 0 17 0;
#X connect 16 0 72 0;
#X connect 17 0 65 0;
#X connect 18 0 65 4;
#X connect 19 0 83 0;
#X connect 20 0 23 0;
#X connect 21 0 20 0;
#X connect 22 0 36 0;
#X connect 22 0 93 0;
#X connect 23 0 5 0;
#X connect 24 0 93 1;
#X connect 25 0 93 0;
#X connect 26 0 73 0;
#X connect 26 0 92 0;
#X connect 26 0 98 0;
#X connect 26 0 99 0;
#X connect 28 0 32 1;
#X connect 29 0 32 0;
#X connect 30 0 32 3;
#X connect 31 0 32 2;
#X connect 32 0 34 0;
#X connect 33 0 51 0;
#X connect 34 0 65 1;
#X connect 34 1 65 2;
#X connect 34 2 65 3;
#X connect 34 3 65 4;
#X connect 36 0 21 1;
#X connect 37 0 38 0;
#X connect 37 0 83 2;
#X connect 38 0 39 0;
#X connect 40 0 43 0;
#X connect 41 0 40 0;
#X connect 42 0 46 0;
#X connect 42 0 94 0;
#X connect 43 0 37 0;
#X connect 44 0 94 1;
#X connect 45 0 94 0;
#X connect 46 0 41 1;
#X connect 47 0 17 0;
#X connect 47 0 72 0;
#X connect 48 0 17 0;
#X connect 48 0 72 0;
#X connect 50 0 83 3;
#X connect 51 0 29 0;
#X connect 51 0 28 0;
#X connect 51 0 31 0;
#X connect 51 0 30 0;
#X connect 51 1 0 0;
#X connect 52 0 95 0;
#X connect 53 0 96 0;
#X connect 54 0 57 0;
#X connect 54 1 55 0;
#X connect 55 0 56 0;
#X connect 56 0 55 1;
#X connect 56 0 69 0;
#X connect 57 0 2 0;
#X connect 58 0 57 1;
#X connect 59 0 69 1;
#X connect 60 0 19 1;
#X connect 61 0 2 1;
#X connect 61 0 2 2;
#X connect 61 0 2 3;
#X connect 61 0 83 1;
#X connect 61 0 83 2;
#X connect 61 0 83 3;
#X connect 63 0 66 0;
#X connect 64 0 63 0;
#X connect 65 0 19 0;
#X connect 66 0 67 0;
#X connect 67 0 68 0;
#X connect 68 0 59 0;
#X connect 69 0 58 0;
#X connect 71 0 47 0;
#X connect 71 0 22 0;
#X connect 71 0 42 0;
#X connect 71 0 26 0;
#X connect 71 0 60 0;
#X connect 72 0 77 0;
#X connect 73 0 89 0;
#X connect 74 0 78 0;
#X connect 74 0 80 0;
#X connect 75 0 77 4;
#X connect 77 0 76 0;
#X connect 79 0 80 0;
#X connect 80 0 54 0;
#X connect 81 0 85 0;
#X connect 82 0 14 0;
#X connect 83 0 2 0;
#X connect 85 0 14 0;
#X connect 86 0 84 0;
#X connect 86 0 87 0;
#X connect 87 0 18 0;
#X connect 88 0 8 0;
#X connect 89 0 4 0;
#X connect 90 0 52 0;
#X connect 91 0 53 0;
#X connect 92 0 89 1;
#X connect 92 0 90 1;
#X connect 92 0 91 1;
#X connect 93 0 21 0;
#X connect 94 0 41 0;
#X connect 95 0 65 2;
#X connect 96 0 65 3;
#X connect 97 0 65 1;
#X connect 98 0 90 0;
#X connect 99 0 91 0;
#X restore 199 266 pd sphere_disto;
#X obj 194 242 tgl 15 0 empty empty empty 17 7 0 10 -262144 -1 -1 1
1;
#X obj 186 284 r distoonoff_visual;
#X obj 351 284 r tremonoff_visual;
#N canvas 339 426 797 579 background_import_table 0;
#X obj 99 479 sphere;
#X obj 75 332 gemhead;
#X msg 61 375 draw point;
#X obj 47 255 lbang;
#X floatatom 145 344 5 0 0 0 - - -, f 5;
#X msg 154 409 5;
#X obj 145 283 metro 60;
#X msg 167 303 2;
#X obj 145 324 counter 10 60;
#X obj 145 259 lbang;
#X obj 80 95 inlet;
#X msg 80 126 \$1;
#X msg 207 259 stop;
#X obj 216 487 sphere;
#X obj 238 437 color 1 1 1;
#X obj 145 363 * 2;
#X obj 237 410 gemhead;
#X obj 421 336 random 100;
#X obj 421 364 * 0.01;
#X obj 357 398 t b f;
#X obj 399 398 t b f;
#X obj 335 336 random 100;
#X obj 335 358 * 0.01;
#X obj 500 335 random 100;
#X obj 500 363 * 0.01;
#X obj 335 278 sel 1;
#X obj 335 256 r but1;
#X obj 389 290 metro 100;
#X msg 457 263 stop;
#X msg 335 304 bang;
#X obj 395 264 lbang;
#X text 140 206 B A C K G R O U N D _ P O I N T S;
#X obj 335 431 pack f f f;
#X obj 131 44 r play;
#X obj 131 71 sel 0 1 2;
#X msg 131 93 0;
#X msg 132 116 1;
#X msg 132 139 2;
#X text 129 23 Backgroung mouvements when a sound is playing;
#X connect 1 0 0 0;
#X connect 2 0 0 0;
#X connect 2 0 13 0;
#X connect 3 0 2 0;
#X connect 3 0 5 0;
#X connect 4 0 0 2;
#X connect 4 0 15 0;
#X connect 5 0 0 1;
#X connect 5 0 13 1;
#X connect 6 0 7 0;
#X connect 6 0 8 0;
#X connect 7 0 8 1;
#X connect 8 0 4 0;
#X connect 9 0 6 0;
#X connect 10 0 11 0;
#X connect 11 0 1 0;
#X connect 11 0 16 0;
#X connect 12 0 6 0;
#X connect 14 0 13 0;
#X connect 15 0 13 2;
#X connect 16 0 14 0;
#X connect 17 0 18 0;
#X connect 18 0 19 0;
#X connect 19 0 32 0;
#X connect 19 1 32 1;
#X connect 20 0 32 0;
#X connect 20 1 32 2;
#X connect 21 0 22 0;
#X connect 22 0 32 0;
#X connect 23 0 24 0;
#X connect 24 0 20 0;
#X connect 25 0 29 0;
#X connect 26 0 25 0;
#X connect 27 0 29 0;
#X connect 28 0 27 0;
#X connect 29 0 21 0;
#X connect 29 0 17 0;
#X connect 29 0 23 0;
#X connect 30 0 27 0;
#X connect 32 0 14 1;
#X connect 33 0 34 0;
#X connect 34 0 35 0;
#X connect 34 1 36 0;
#X connect 34 2 37 0;
#X connect 34 2 12 0;
#X connect 35 0 11 0;
#X connect 36 0 11 0;
#X connect 36 0 9 0;
#X restore 26 190 pd background_import_table;
#X text 24 35 On retrouve ici les différentes patch pour les visuels
qui sont en relation avec les effets.;
#X text 23 71 L'effet delay est contrôlé dans l'objet [GEM INIT]
;
#X text 23 96 L'effet flanger n'a pas encore de visuel attribué;
#N canvas 575 23 641 636 Monophonic_Synth_Visual 0;
#X floatatom 164 291 5 0 0 0 - - -, f 5;
#X obj 107 181 gemhead;
#X floatatom 114 292 5 0 0 0 - - -, f 5;
#X obj 107 320 translateXYZ;
#X obj 164 247 * 7.6;
#X obj 114 271 - 3.8;
#X obj 164 271 - 3.8;
#X obj 164 225 r peny;
#X obj 114 225 r penx;
#X obj 214 225 r penpres;
#X floatatom 288 272 5 0 0 0 - - -, f 5;
#X obj 288 290 * 0.5;
#X floatatom 288 311 5 0 0 0 - - -, f 5;
#X obj 114 247 * 7.6;
#X obj 288 251 expr 7.6 - ($f2 * 2);
#X text 210 209 To compensated the size of the point with the window
;
#X floatatom 214 271 5 0 0 0 - - -, f 5;
#X obj 214 247 * 2.9;
#X obj 107 58 r penprox;
#X floatatom 107 161 5 0 0 0 - - -, f 5;
#X obj 25 125 loadbang;
#X obj 104 481 t a b;
#X obj 136 504 f;
#X obj 136 526 + 1;
#X obj 82 503 spigot;
#X floatatom 136 573 5 0 0 0 - - -, f 5;
#X obj 137 551 mod 1;
#X obj 107 203 colorRGB 1 1 1;
#X obj 178 77 r penbut2;
#X floatatom 178 99 5 0 0 0 - - -, f 5;
#X obj 152 138 spigot;
#X floatatom 107 78 5 0 0 0 - - -, f 5;
#X obj 107 97 sel 0;
#X msg 107 120 0;
#X msg 152 117 1;
#X obj 200 461 loadbang;
#X msg 169 530 100;
#X msg 132 426 0.1;
#X obj 107 447 cube;
#X obj 107 399 rotateXYZ 0.5 0.5 0.2;
#X text 101 29 S T R A N G E _ F O R M _ P O I N T E R;
#X connect 0 0 3 2;
#X connect 1 0 27 0;
#X connect 2 0 3 1;
#X connect 3 0 39 0;
#X connect 4 0 6 0;
#X connect 5 0 2 0;
#X connect 6 0 0 0;
#X connect 7 0 4 0;
#X connect 8 0 13 0;
#X connect 9 0 17 0;
#X connect 10 0 11 0;
#X connect 10 0 4 1;
#X connect 10 0 13 1;
#X connect 11 0 12 0;
#X connect 12 0 6 1;
#X connect 12 0 5 1;
#X connect 13 0 5 0;
#X connect 14 0 10 0;
#X connect 16 0 3 3;
#X connect 16 0 14 1;
#X connect 17 0 14 0;
#X connect 17 0 16 0;
#X connect 18 0 31 0;
#X connect 19 0 1 0;
#X connect 20 0 19 0;
#X connect 21 0 24 0;
#X connect 21 1 22 0;
#X connect 22 0 23 0;
#X connect 23 0 22 1;
#X connect 23 0 26 0;
#X connect 24 0 39 0;
#X connect 25 0 24 1;
#X connect 26 0 25 0;
#X connect 27 0 3 0;
#X connect 28 0 29 0;
#X connect 29 0 30 1;
#X connect 29 0 34 0;
#X connect 30 0 19 0;
#X connect 31 0 32 0;
#X connect 32 0 33 0;
#X connect 32 1 34 0;
#X connect 33 0 19 0;
#X connect 34 0 30 0;
#X connect 35 0 36 0;
#X connect 35 0 37 0;
#X connect 36 0 26 1;
#X connect 37 0 38 1;
#X connect 38 0 21 0;
#X connect 39 0 38 0;
#X restore 25 133 pd Monophonic_Synth_Visual;
#N canvas 597 733 658 457 flangerVisual 0;
#X obj 58 83 gemhead;
#X obj 58 127 alpha;
#X obj 58 231 rectangle 10 0.01;
#X obj 58 169 rotateXYZ;
#X floatatom 138 149 5 0 0 0 - - -, f 5;
#X msg 291 163 2;
#X msg 295 113 stop;
#X msg 77 43 0;
#X obj 57 253 t a b;
#X obj 89 277 f;
#X obj 89 299 + 1;
#X obj 20 364 spigot;
#X floatatom 89 341 5 0 0 0 - - -, f 5;
#X obj 89 320 mod 1;
#X obj 236 330 * 0.01;
#X obj 343 323 * 0.01;
#X obj 440 322 * 0.01;
#X obj 156 67 hsl 128 15 0 1 0 0 empty empty Transparenty 30 8 0 10
-262144 -1 -1 0 1;
#X obj 301 81 lbang;
#X obj 129 37 inlet;
#X obj 112 133 tgl 15 0 empty empty empty 17 7 0 10 -262144 -1 -1 1
1;
#X obj 274 141 metro 20;
#X floatatom 346 134 5 0 0 0 - - -, f 5;
#X obj 274 208 * 0.01;
#X obj 274 186 counter -100 100;
#X obj 58 105 colorRGB 1 1 1;
#X obj 236 308 counter 0 100;
#X obj 343 301 counter 0 100;
#X obj 440 300 counter 0 100;
#X msg 38 34 1;
#X obj 145 361 r flanger_depth_visual;
#X floatatom 146 383 5 0 0 0 - - -, f 5;
#X obj 58 200 translateXYZ 0 0 -1;
#X obj 443 121 r flanger_speed_visual;
#X connect 0 0 25 0;
#X connect 1 0 3 0;
#X connect 2 0 8 0;
#X connect 3 0 32 0;
#X connect 4 0 3 3;
#X connect 5 0 24 1;
#X connect 5 0 26 1;
#X connect 5 0 27 1;
#X connect 5 0 28 1;
#X connect 6 0 21 0;
#X connect 7 0 0 0;
#X connect 8 0 11 0;
#X connect 8 1 9 0;
#X connect 9 0 10 0;
#X connect 10 0 9 1;
#X connect 10 0 13 0;
#X connect 11 0 3 0;
#X connect 12 0 11 1;
#X connect 13 0 12 0;
#X connect 14 0 25 1;
#X connect 15 0 25 2;
#X connect 16 0 25 3;
#X connect 17 0 25 4;
#X connect 18 0 5 0;
#X connect 18 0 20 0;
#X connect 18 0 21 0;
#X connect 18 0 7 0;
#X connect 19 0 0 0;
#X connect 20 0 1 1;
#X connect 21 0 24 0;
#X connect 21 0 26 0;
#X connect 21 0 27 0;
#X connect 21 0 28 0;
#X connect 22 0 21 1;
#X connect 23 0 4 0;
#X connect 24 0 23 0;
#X connect 25 0 1 0;
#X connect 26 0 14 0;
#X connect 27 0 15 0;
#X connect 28 0 16 0;
#X connect 29 0 0 0;
#X connect 30 0 31 0;
#X connect 31 0 13 1;
#X connect 32 0 2 0;
#X connect 33 0 22 0;
#X restore 531 268 pd flangerVisual;
#X obj 531 243 tgl 15 0 empty empty empty 17 7 0 10 -262144 -1 -1 0
1;
#X obj 531 219 r flangeronoff_visual;
#X connect 0 0 11 0;
#X connect 2 0 5 0;
#X connect 4 0 3 0;
#X connect 6 0 2 0;
#X connect 8 0 7 0;
#X connect 9 0 8 0;
#X connect 10 0 4 0;
#X connect 17 0 16 0;
#X connect 18 0 17 0;
#X restore 14 588 pd Visual_Layout;
#X text 551 721 PRÉCISIONS SUR LES EFFETS;
#X text 553 779 Les toggles de couleur avec un X blanc sont les ON
/ OFF des effets audio (et donc pour les effets visuels aussi);
#X text 552 742 Les toggles au fond blanc avec un X de couleurs sont
seulement là pour indiquer quel effet est sélectionné;
#X text 480 619 COURS 3 patchs;
#X text 929 34 M I D I _ K E Y B O A R D;
#X text 550 814 Lorsque les effets sont mis à On \, les effets visuels
sont activés. Les potentiomètres des effets audios ont un impact
sur le visuel.;
#X obj -54 782;
#X connect 1 0 0 1;
#X connect 4 0 0 0;
#X connect 7 0 6 0;
#X connect 8 0 9 1;
#X connect 8 0 15 0;
#X connect 10 0 12 0;
#X connect 10 0 30 0;
#X connect 13 0 14 0;
#X connect 14 0 15 0;
#X connect 16 0 23 0;
#X connect 16 1 23 1;
#X connect 17 0 27 0;
#X connect 17 1 27 1;
#X connect 18 0 19 0;
#X connect 18 1 19 1;
#X connect 19 0 25 0;
#X connect 19 1 8 0;
#X connect 20 0 17 0;
#X connect 20 1 17 1;
#X connect 21 0 38 1;
#X connect 22 0 38 0;
#X connect 23 0 17 0;
#X connect 23 1 17 1;
#X connect 25 0 9 0;
#X connect 26 0 10 0;
#X connect 27 0 28 0;
#X connect 27 1 28 1;
#X connect 28 0 18 0;
#X connect 28 1 18 1;
#X connect 29 0 8 1;
#X connect 29 0 25 1;
#X connect 30 0 29 0;
#X connect 36 0 37 0;
#X connect 37 0 0 0;
#X connect 38 0 17 0;
#X connect 38 1 17 1;
