#N canvas 584 23 1336 1129 10;
#N canvas 914 156 510 702 routing 0;
#X obj 147 76 unpackOSC;
#X obj 147 96 routeOSC /wacom;
#X obj 147 116 routeOSC /1;
#X obj 147 145 routeOSC /pen /key /eraser;
#X obj 147 491 routeOSC /0;
#X obj 266 207 routeOSC /0;
#X text 161 472 PEN;
#X obj 206 339 routeOSC /1 /2 /3 /4;
#X obj 27 339 routeOSC /ring;
#X obj 27 360 routeOSC /1;
#X obj 266 227 routeOSC /proximity /0 /1;
#X text 275 186 ERASER;
#X obj 147 56 udpreceive 9000;
#X obj 147 634 s penprox;
#X obj 196 614 s penx;
#X obj 246 595 s peny;
#X obj 296 575 s penpres;
#X obj 266 270 s erprox;
#X obj 323 248 s erx;
#X obj 380 248 s ery;
#X obj 147 512 routeOSC /proximity /0 /1 /4 /button;
#X obj 346 533 routeOSC /2;
#X text 20 9 *Names may vary from one tablet to another;
#X obj 346 554 s penbut2;
#X obj 206 420 s but1;
#X obj 240 400 s but2;
#X obj 274 381 s but3;
#X obj 308 361 s but4;
#X obj 27 381 s ring;
#X text 46 320 RING;
#X text 219 316 BUTTONS;
#X connect 0 0 1 0;
#X connect 1 0 2 0;
#X connect 2 0 3 0;
#X connect 2 0 8 0;
#X connect 3 0 4 0;
#X connect 3 1 7 0;
#X connect 3 2 5 0;
#X connect 4 0 20 0;
#X connect 5 0 10 0;
#X connect 7 0 24 0;
#X connect 7 1 25 0;
#X connect 7 2 26 0;
#X connect 7 3 27 0;
#X connect 8 0 9 0;
#X connect 9 0 28 0;
#X connect 10 0 17 0;
#X connect 10 1 18 0;
#X connect 10 2 19 0;
#X connect 12 0 0 0;
#X connect 20 0 13 0;
#X connect 20 1 14 0;
#X connect 20 2 15 0;
#X connect 20 3 16 0;
#X connect 20 4 21 0;
#X connect 21 0 23 0;
#X restore 189 82 pd routing;
#N canvas 94 569 361 306 teremin 0;
#X obj 27 58 r penx;
#X floatatom 27 80 5 0 0 0 - - -, f 5;
#X obj 184 57 r penpres;
#X floatatom 184 96 5 0 0 0 - - -, f 5;
#X obj 184 179 line~;
#X msg 184 155 \$1 20;
#X obj 257 57 r penprox;
#X obj 257 79 sel 0;
#X msg 257 101 0;
#X text 25 28 TEST WITH X AND PRESSURE;
#X text 229 27 teremin;
#X text 177 113 volume;
#X floatatom 27 121 5 0 0 0 - - -, f 5;
#X obj 27 256 *~;
#X obj 27 233 osc~;
#X obj 27 213 mtof;
#X obj 27 140 int;
#X floatatom 27 162 5 0 0 0 - - -, f 5;
#X obj 27 99 expr $f1 * 39 + 45;
#X obj 27 277 s~ penteremin;
#X obj 271 150 * 127;
#X floatatom 271 172 5 0 0 0 - - -, f 5;
#X obj 271 191 s penmidivel;
#X obj 68 181 s penmidinote;
#X connect 0 0 1 0;
#X connect 1 0 18 0;
#X connect 2 0 3 0;
#X connect 3 0 5 0;
#X connect 3 0 22 0;
#X connect 4 0 13 1;
#X connect 5 0 4 0;
#X connect 6 0 7 0;
#X connect 7 0 8 0;
#X connect 8 0 3 0;
#X connect 12 0 16 0;
#X connect 13 0 19 0;
#X connect 14 0 13 0;
#X connect 15 0 14 0;
#X connect 16 0 17 0;
#X connect 17 0 23 0;
#X connect 18 0 12 0;
#X connect 20 0 21 0;
#X restore 189 62 pd teremin;
#N canvas 760 515 450 300 tablet 0;
#X floatatom 22 121 5 0 0 0 - - -, f 5;
#X floatatom 21 158 5 0 0 0 - - -, f 5;
#X floatatom 21 194 5 0 0 0 - - -, f 5;
#X floatatom 22 85 5 0 0 0 - - -, f 5;
#X text 62 84 on/off;
#X text 59 156 pen y;
#X text 59 120 pen x;
#X floatatom 323 80 5 0 0 0 - - -, f 5;
#X floatatom 323 118 5 0 0 0 - - -, f 5;
#X floatatom 323 155 5 0 0 0 - - -, f 5;
#X floatatom 323 191 5 0 0 0 - - -, f 5;
#X text 362 118 >>;
#X text 364 80 <<;
#X text 362 154 FN1;
#X text 363 190 FN2;
#X floatatom 206 83 5 0 0 0 - - -, f 5;
#X floatatom 206 118 5 0 0 0 - - -, f 5;
#X floatatom 206 153 5 0 0 0 - - -, f 5;
#X text 245 81 on/off;
#X text 244 152 eraser y;
#X text 245 118 eraser x;
#X obj 22 104 r penx;
#X obj 22 68 r penprox;
#X obj 21 141 r peny;
#X obj 21 177 r penpres;
#X obj 206 66 r erprox;
#X obj 206 101 r erx;
#X obj 206 136 r ery;
#X text 58 192 pen pressure;
#X floatatom 20 229 5 0 0 0 - - -, f 5;
#X obj 323 63 r but1;
#X obj 323 101 r but2;
#X obj 323 138 r but3;
#X obj 323 174 r but4;
#X obj 20 212 r penbut2;
#X obj 125 67 r ring;
#X floatatom 125 84 5 0 0 0 - - -, f 5;
#X text 60 226 pen button 1;
#X text 203 48 ERASER;
#X text 123 49 RING;
#X text 21 50 PEN;
#X text 320 47 BUTTONS;
#X text 19 21 T A B L E T _ C O N T R O L S;
#X connect 21 0 0 0;
#X connect 22 0 3 0;
#X connect 23 0 1 0;
#X connect 24 0 2 0;
#X connect 25 0 15 0;
#X connect 26 0 16 0;
#X connect 27 0 17 0;
#X connect 30 0 7 0;
#X connect 31 0 8 0;
#X connect 32 0 9 0;
#X connect 33 0 10 0;
#X connect 34 0 29 0;
#X connect 35 0 36 0;
#X restore 190 104 pd tablet name controls;
#X obj 812 207 spigot;
#X floatatom 871 271 0 0 0 0 - - -;
#X obj 785 122 gemhead;
#X floatatom 812 269 0 0 0 0 - - -;
#X obj 785 300 translateXYZ;
#X obj 812 228 - 1;
#X obj 812 248 * 4;
#X obj 871 207 spigot;
#X obj 871 229 - 1;
#X obj 871 250 * -4;
#X obj 812 177 gemmouse 2 2;
#X obj 785 340 square;
#X msg 785 98 0;
#X msg 821 98 1;
#X text 779 69 T E S T _ M O U S E;
#X obj 785 152 color 0.2 0.2 0.7;
#X msg 824 319 0.5;
#N canvas 290 23 1630 669 layout1 0;
#X obj 24 342 cube;
#X msg 35 291 draw line;
#X obj 176 475 sphere;
#X obj 218 222 gemhead;
#X msg 145 412 draw point;
#X obj 134 265 lbang;
#X obj 1107 181 gemhead;
#X obj 1107 208 color 0.2 0.2 0.7;
#X obj 1107 291 translateXYZ;
#X obj 1121 235 vsl 15 30 -3 3 0 0 empty empty empty 0 -9 0 10 -262144
-1 -1 0 1;
#X obj 1152 232 vsl 15 30 -3 3 0 0 empty empty empty 0 -9 0 10 -262144
-1 -1 0 1;
#X obj 1184 227 vsl 15 30 -15 1 0 0 empty empty empty 0 -9 0 10 -262144
-1 -1 0 1;
#X floatatom 261 348 5 0 0 0 - - -, f 5;
#X msg 264 421 5;
#X obj 261 287 metro 60;
#X obj 558 173 color 0.8 0.5 0;
#X msg 737 336 0.1;
#X obj 558 293 translateXYZ;
#X obj 558 373 square;
#X obj 661 508 counter -170 170;
#X obj 661 533 * 0.01;
#X floatatom 661 555 5 0 0 0 - - -, f 5;
#X msg 689 434 stop;
#X obj 682 293 translateXYZ;
#X obj 682 373 square;
#X obj 558 151 gemhead;
#X obj 682 172 color 0.8 0.5 0;
#X obj 682 150 gemhead;
#X msg 283 307 2;
#X obj 785 532 * 0.01;
#X floatatom 785 554 5 0 0 0 - - -, f 5;
#X obj 802 171 color 0.8 0.5 0;
#X obj 802 291 translateXYZ;
#X obj 802 371 square;
#X obj 921 292 translateXYZ;
#X obj 921 372 square;
#X obj 802 149 gemhead;
#X obj 921 171 color 0.8 0.5 0;
#X obj 921 149 gemhead;
#X obj 661 482 metro 5;
#X obj 730 224 lbang;
#X obj 785 507 counter -170 170;
#X obj 730 203 r resetsquare;
#X obj 689 456 s resetsquare;
#X msg 812 484 1;
#X text 584 433 start;
#X text 555 125 O R A N G E _ S Q U A R E;
#X text 1105 149 B L U E _ S Q U A R E;
#X obj 261 328 counter 10 60;
#X msg 1188 269 -15;
#X obj 1203 293 lbang;
#X msg 73 315 1.2;
#X obj 629 435 lbang;
#X obj 261 263 lbang;
#X text 30 249 W H I T E _ C U B E;
#X obj 669 20 inlet;
#X msg 669 43 \$1;
#X msg 730 246 1.7;
#X msg 788 244 -1.7;
#X obj 737 316 lbang;
#X msg 323 263 stop;
#X obj 1106 351 rotate;
#X floatatom 1125 323 5 0 0 0 - - -, f 5;
#X msg 1435 160 open \$1;
#X obj 1435 138 symbol;
#X obj 1435 115 openpanel;
#X obj 1435 94 bng 15 250 50 0 empty empty empty 17 7 0 10 -262144
-1 -1;
#X obj 1435 183 pix_image;
#X obj 1354 159 gemhead;
#X obj 1469 400 pix_draw;
#X obj 1354 389 pix_texture;
#X obj 1354 581 sphere;
#X obj 1354 367 rotateXYZ;
#X obj 1429 285 r penx;
#X obj 1374 285 r peny;
#X obj 1429 308 * 500;
#X obj 1374 308 * 500;
#X obj 1429 330 * -1;
#X obj 1374 330 * -1;
#X obj 1373 435 r penpres;
#X floatatom 1373 457 5 0 0 0 - - -, f 5;
#X text 1348 63 I M A G E _ S P H E R E;
#X obj 1354 249 pix_image ./images/IMG_4950.JPG;
#X obj 1393 536 lbang;
#X msg 1393 558 60;
#X obj 1088 452 cuboid;
#X floatatom 1373 498 5 0 0 0 - - -, f 5;
#X floatatom 938 576 5 0 0 0 - - -, f 5;
#X obj 938 554 * 0.04;
#X obj 1150 459 cuboid;
#X msg 1146 390 1;
#X obj 1213 461 square;
#X msg 1195 394 1;
#X msg 1234 435 2;
#X msg 1034 418 draw line;
#X msg 1248 400 draw fill;
#X obj 66 371 r roomsize;
#X floatatom 66 393 5 0 0 0 - - -, f 5;
#X obj 66 434 + 0.5;
#X floatatom 66 456 5 0 0 0 - - -, f 5;
#X obj 66 412 * 1.49;
#X obj 1373 476 expr if ($f1 < 0.5 \, 0.5 \, $f1);
#X obj 336 488 sphere;
#X obj 354 441 color 1 1 1;
#X obj 430 418 r colsel;
#X obj 261 367 * 2;
#X obj 353 414 gemhead;
#X text 388 489 POINTS MULTICOLOR;
#X obj 360 363 loadbang;
#X msg 360 385 0;
#X floatatom 1437 211 5 0 0 0 - - -, f 5;
#X obj 1354 228 colorRGB 1 1 1 1;
#X obj 6 181 r rvb_onoff_visual;
#X obj 6 207 gemhead;
#X msg 62 140 0;
#X obj 63 112 loadbang;
#X connect 1 0 0 0;
#X connect 3 0 2 0;
#X connect 4 0 2 0;
#X connect 4 0 102 0;
#X connect 5 0 4 0;
#X connect 5 0 13 0;
#X connect 5 0 1 0;
#X connect 5 0 51 0;
#X connect 6 0 7 0;
#X connect 7 0 8 0;
#X connect 8 0 61 0;
#X connect 12 0 2 2;
#X connect 12 0 105 0;
#X connect 13 0 2 1;
#X connect 13 0 102 1;
#X connect 14 0 28 0;
#X connect 14 0 48 0;
#X connect 15 0 17 0;
#X connect 16 0 18 1;
#X connect 16 0 24 1;
#X connect 16 0 33 1;
#X connect 16 0 35 1;
#X connect 17 0 18 0;
#X connect 19 0 20 0;
#X connect 20 0 21 0;
#X connect 21 0 32 1;
#X connect 21 0 34 2;
#X connect 22 0 39 0;
#X connect 22 0 43 0;
#X connect 23 0 24 0;
#X connect 25 0 15 0;
#X connect 26 0 23 0;
#X connect 27 0 26 0;
#X connect 28 0 48 1;
#X connect 29 0 30 0;
#X connect 30 0 17 2;
#X connect 30 0 23 1;
#X connect 31 0 32 0;
#X connect 32 0 33 0;
#X connect 34 0 35 0;
#X connect 36 0 31 0;
#X connect 37 0 34 0;
#X connect 38 0 37 0;
#X connect 39 0 19 0;
#X connect 39 0 41 0;
#X connect 40 0 57 0;
#X connect 40 0 58 0;
#X connect 41 0 29 0;
#X connect 41 0 88 0;
#X connect 42 0 40 0;
#X connect 44 0 41 1;
#X connect 48 0 12 0;
#X connect 49 0 8 3;
#X connect 50 0 49 0;
#X connect 50 0 90 0;
#X connect 50 0 92 0;
#X connect 51 0 0 1;
#X connect 52 0 39 0;
#X connect 52 0 44 0;
#X connect 53 0 14 0;
#X connect 55 0 56 0;
#X connect 56 0 25 0;
#X connect 56 0 27 0;
#X connect 56 0 36 0;
#X connect 56 0 38 0;
#X connect 56 0 6 0;
#X connect 56 0 68 0;
#X connect 56 0 3 0;
#X connect 56 0 106 0;
#X connect 57 0 17 2;
#X connect 57 0 23 1;
#X connect 57 0 23 2;
#X connect 57 0 34 1;
#X connect 58 0 17 1;
#X connect 58 0 32 1;
#X connect 58 0 32 2;
#X connect 58 0 34 2;
#X connect 59 0 16 0;
#X connect 60 0 14 0;
#X connect 61 0 91 0;
#X connect 62 0 61 1;
#X connect 63 0 67 0;
#X connect 64 0 63 0;
#X connect 65 0 64 0;
#X connect 66 0 65 0;
#X connect 68 0 67 0;
#X connect 68 0 111 0;
#X connect 70 0 71 0;
#X connect 72 0 70 0;
#X connect 73 0 75 0;
#X connect 74 0 76 0;
#X connect 75 0 77 0;
#X connect 76 0 78 0;
#X connect 77 0 72 2;
#X connect 78 0 72 1;
#X connect 79 0 80 0;
#X connect 80 0 101 0;
#X connect 82 0 72 0;
#X connect 83 0 84 0;
#X connect 84 0 71 2;
#X connect 86 0 71 1;
#X connect 87 0 85 2;
#X connect 87 0 89 1;
#X connect 88 0 87 0;
#X connect 90 0 85 1;
#X connect 90 0 89 2;
#X connect 92 0 89 3;
#X connect 92 0 85 3;
#X connect 93 0 91 1;
#X connect 94 0 85 0;
#X connect 94 0 89 0;
#X connect 95 0 91 0;
#X connect 96 0 97 0;
#X connect 97 0 100 0;
#X connect 98 0 99 0;
#X connect 99 0 0 1;
#X connect 100 0 98 0;
#X connect 101 0 86 0;
#X connect 103 0 102 0;
#X connect 104 0 103 1;
#X connect 105 0 102 2;
#X connect 106 0 103 0;
#X connect 108 0 109 0;
#X connect 111 0 82 0;
#X connect 112 0 113 0;
#X connect 113 0 0 0;
#X connect 114 0 113 0;
#X connect 115 0 114 0;
#X restore 387 792 pd layout1;
#N canvas 196 45 1505 781 pen 0;
#X floatatom 528 231 5 0 0 0 - - -, f 5;
#X obj 471 111 gemhead;
#X floatatom 478 232 5 0 0 0 - - -, f 5;
#X obj 471 260 translateXYZ;
#X obj 528 187 * 7.6;
#X obj 478 211 - 3.8;
#X obj 528 211 - 3.8;
#X obj 528 165 r peny;
#X obj 478 165 r penx;
#X obj 578 165 r penpres;
#X msg 38 334 0 0 0;
#X obj 38 76 sel 0 1;
#X obj 38 53 r penprox;
#X text 81 335 BLACK;
#X floatatom 127 76 5 0 0 0 - - -, f 5;
#X obj 127 95 sel 1;
#X obj 127 117 bng 15 250 50 0 empty empty empty 17 7 0 10 -262144
-1 -1;
#X floatatom 127 170 5 0 0 0 - - -, f 5;
#X floatatom 187 76 5 0 0 0 - - -, f 5;
#X obj 187 96 sel 1;
#X obj 187 117 bng 15 250 50 0 empty empty empty 17 7 0 10 -262144
-1 -1;
#X obj 244 127 bng 15 250 50 0 empty empty empty 17 7 0 10 -262144
-1 -1;
#X msg 143 314 0 255 255;
#X text 213 315 AQUA;
#X msg 193 254 255 0 0;
#X text 251 255 RED;
#X text 281 214 GREEN;
#X msg 209 234 255 255 0;
#X text 281 236 YELLOW;
#X text 218 295 BLUE;
#X msg 160 294 0 0 255;
#X text 247 274 MAGENTA;
#X msg 176 274 255 0 255;
#X text 169 334 WHITE;
#X msg 127 334 1 1 1;
#X obj 49 280 lbang;
#X obj 49 302 t b b;
#X obj 127 148 counter 0 6;
#X obj 127 191 sel 0 1 2 3 4 5 6;
#X text 48 262 RESET;
#X msg 61 103 bang;
#X floatatom 652 212 5 0 0 0 - - -, f 5;
#X obj 652 230 * 0.5;
#X floatatom 652 251 5 0 0 0 - - -, f 5;
#X obj 478 187 * 7.6;
#X obj 652 191 expr 7.6 - ($f2 * 2);
#X obj 471 293 circle 0.2;
#X obj 552 121 r colsel;
#X obj 127 53 r but2;
#X obj 187 53 r but1;
#X text 37 30 C O L O R _ S E L E C T I O N;
#X text 574 149 To compensated the size of the point with the window
;
#X text 260 126 reverse;
#X obj 250 73 counter 0 1000;
#X obj 299 48 bng 15 250 50 0 empty empty empty 17 7 0 10 -262144 -1
-1;
#X obj 250 100 sel 0;
#X floatatom 310 99 5 0 0 0 - - -, f 5;
#X msg 226 214 0 255 0;
#X obj 65 607 vsl 15 30 0 1 0 0 empty empty empty 0 -9 0 10 -4034 -204786
-204786 2668 0;
#X obj 87 607 vsl 15 30 0 1 0 0 empty empty empty 0 -9 0 10 -4160 -203904
-203904 2349 0;
#X obj 43 607 vsl 15 30 0 1 0 0 empty empty empty 0 -9 0 10 -258113
-261234 -261234 1566 0;
#X obj 43 691 pack $f1 $f2 $f3;
#X floatatom 578 211 5 0 0 0 - - -, f 5;
#X obj 129 556 random 100;
#X obj 129 584 * 0.01;
#X msg 1349 158 1 1 1;
#X msg 1378 300 0 255 255;
#X text 1448 301 AQUA;
#X msg 1374 222 255 0 0;
#X text 1432 223 RED;
#X text 1391 158 WHITE;
#X msg 1376 278 0 255 0;
#X text 1431 277 GREEN;
#X msg 1372 248 255 255 0;
#X text 1444 251 YELLOW;
#X text 1440 324 BLUE;
#X msg 1382 325 0 0 255;
#X text 1442 197 MAGENTA;
#X msg 1370 194 255 0 255;
#X obj 1370 44 * 10;
#X floatatom 1370 91 5 0 0 0 - - -, f 5;
#X obj 1370 69 int;
#X obj 1349 137 lbang;
#X msg 1344 90 1;
#X obj 1370 114 sel 4 5 6 7 8 9 10 1;
#X obj 1370 23 r ring;
#X obj 65 658 t b f;
#X obj 107 658 t b f;
#X obj 43 556 random 100;
#X obj 43 578 * 0.01;
#X obj 208 555 random 100;
#X obj 208 583 * 0.01;
#X obj 43 490 sel 1;
#X msg 372 261 draw line;
#X obj 471 313 circle 0.15;
#X obj 471 335 circle 0.1;
#X obj 372 240 lbang;
#X obj 471 357 circle 0.05;
#X obj 115 366 s colseloff;
#X obj 43 468 r but1;
#X obj 97 502 metro 100;
#X obj 100 479 bng 15 250 50 0 empty empty empty 17 7 0 10 -262144
-1 -1;
#X obj 43 713 s colsel;
#X msg 122 475 stop;
#X obj 578 187 * 2.9;
#X text 41 442 R A I N B O W;
#X obj 387 534 gemhead;
#X obj 387 564 part_head;
#X obj 387 586 part_velocity sphere 0 0.2 0 0.3;
#X obj 387 608 part_source 20;
#X obj 387 630 part_killold 50;
#X obj 387 662 part_draw;
#X obj 608 555 pack $f1 $f2 $f3 $f4;
#X obj 608 516 vsl 15 30 0 1 0 0 empty empty empty 0 -9 0 10 -262144
-1 -1 0 1;
#X obj 745 516 vsl 15 30 0 1 0 0 empty empty empty 0 -9 0 10 -262144
-1 -1 0 1;
#X obj 699 517 vsl 15 30 0 1 0 0 empty empty empty 0 -9 0 10 -262144
-1 -1 0 1;
#X obj 653 516 vsl 15 30 0 1 0 0 empty empty empty 0 -9 0 10 -262144
-1 -1 0 1;
#X obj 471 143 color 1 1 1, f 12;
#X obj 471 69 r penprox;
#X floatatom 471 91 5 0 0 0 - - -, f 5;
#X obj 544 69 loadbang;
#X text 468 43 C I R C L E _ P O I N T E R;
#X msg 43 516 bang;
#X obj 165 445 lbang;
#X connect 0 0 3 2;
#X connect 2 0 3 1;
#X connect 3 0 46 0;
#X connect 4 0 6 0;
#X connect 5 0 2 0;
#X connect 6 0 0 0;
#X connect 7 0 4 0;
#X connect 8 0 44 0;
#X connect 9 0 104 0;
#X connect 10 0 98 0;
#X connect 11 0 10 0;
#X connect 11 1 40 0;
#X connect 12 0 11 0;
#X connect 14 0 15 0;
#X connect 15 0 16 0;
#X connect 16 0 37 0;
#X connect 17 0 38 0;
#X connect 18 0 19 0;
#X connect 19 0 20 0;
#X connect 20 0 37 0;
#X connect 21 0 37 1;
#X connect 22 0 98 0;
#X connect 24 0 98 0;
#X connect 27 0 98 0;
#X connect 30 0 98 0;
#X connect 32 0 98 0;
#X connect 34 0 98 0;
#X connect 35 0 36 0;
#X connect 36 0 10 0;
#X connect 36 1 34 0;
#X connect 37 0 17 0;
#X connect 38 0 34 0;
#X connect 38 1 22 0;
#X connect 38 2 30 0;
#X connect 38 3 32 0;
#X connect 38 4 24 0;
#X connect 38 5 27 0;
#X connect 38 6 57 0;
#X connect 40 0 17 0;
#X connect 41 0 42 0;
#X connect 41 0 4 1;
#X connect 41 0 44 1;
#X connect 42 0 43 0;
#X connect 43 0 6 1;
#X connect 43 0 5 1;
#X connect 44 0 5 0;
#X connect 45 0 41 0;
#X connect 46 0 94 0;
#X connect 47 0 117 1;
#X connect 48 0 14 0;
#X connect 49 0 18 0;
#X connect 53 0 55 0;
#X connect 53 0 56 0;
#X connect 54 0 53 3;
#X connect 57 0 98 0;
#X connect 58 0 86 0;
#X connect 59 0 87 0;
#X connect 60 0 61 0;
#X connect 61 0 102 0;
#X connect 62 0 3 3;
#X connect 62 0 45 1;
#X connect 63 0 64 0;
#X connect 64 0 58 0;
#X connect 79 0 81 0;
#X connect 80 0 84 0;
#X connect 81 0 80 0;
#X connect 82 0 65 0;
#X connect 83 0 80 0;
#X connect 84 0 78 0;
#X connect 84 1 68 0;
#X connect 84 2 73 0;
#X connect 84 3 71 0;
#X connect 84 4 66 0;
#X connect 84 5 76 0;
#X connect 84 7 65 0;
#X connect 85 0 79 0;
#X connect 86 0 61 0;
#X connect 86 1 61 1;
#X connect 87 0 61 0;
#X connect 87 1 61 2;
#X connect 88 0 89 0;
#X connect 89 0 60 0;
#X connect 90 0 91 0;
#X connect 91 0 59 0;
#X connect 92 0 122 0;
#X connect 93 0 46 0;
#X connect 93 0 94 0;
#X connect 93 0 95 0;
#X connect 94 0 95 0;
#X connect 95 0 97 0;
#X connect 96 0 93 0;
#X connect 99 0 92 0;
#X connect 100 0 122 0;
#X connect 101 0 100 0;
#X connect 103 0 100 0;
#X connect 104 0 45 0;
#X connect 104 0 62 0;
#X connect 107 0 108 0;
#X connect 108 0 109 0;
#X connect 109 0 110 0;
#X connect 110 0 111 0;
#X connect 112 0 108 2;
#X connect 113 0 112 0;
#X connect 114 0 112 3;
#X connect 115 0 112 2;
#X connect 116 0 112 1;
#X connect 117 0 3 0;
#X connect 118 0 119 0;
#X connect 119 0 1 0;
#X connect 120 0 119 0;
#X connect 122 0 88 0;
#X connect 122 0 63 0;
#X connect 122 0 90 0;
#X connect 123 0 101 0;
#X restore 189 40 pd pen visual;
#X obj 1016 226 gemhead;
#X obj 1016 360 translateXYZ;
#X obj 1016 248 color 0.6 0.4 0.8;
#X floatatom 1043 329 5 0 0 0 - - -, f 5;
#X floatatom 1041 274 5 0 0 0 - - -, f 5;
#X obj 1140 281 r penx;
#X obj 1140 303 * 78;
#X floatatom 1140 328 5 0 0 0 - - -, f 5;
#X obj 1043 302 * 0.005;
#X obj 1136 208 r colsel;
#X obj 1016 382 circle;
#X obj 382 598 s rvbonoff;
#X obj 382 578 tgl 15 0 empty empty empty 17 7 0 10 -262144 -1 -1 0
1;
#X obj 387 774 tgl 15 0 empty empty empty 17 7 0 10 -262144 -1 -1 1
1;
#X text 403 578 Reverb ON / OFF;
#X text 385 744 VISUAL LAYOUT;
#X text 376 506 AUDIO EFFECTS;
#X obj 794 12 tgl 15 0 empty empty empty 17 7 0 10 -262144 -1 -1 0
1;
#X floatatom 1090 333 5 0 0 0 - - -, f 5;
#X obj 1097 500 clone;
#X obj 1098 429 until;
#X obj 794 32 s clipdistonoff;
#X text 815 12 Clip Distortion ON / OFF;
#X obj 1069 555 $v1;
#X text 1097 556 signal audio;
#X obj 383 623 tgl 15 0 empty empty empty 17 7 0 10 -262144 -1 -1 0
1;
#X obj 383 643 s transfertdistonoff;
#X obj 383 674 tgl 15 0 empty empty empty 17 7 0 10 -262144 -1 -1 0
1;
#X text 404 674 Tremolo ON / OFF;
#X obj 383 694 s tremonoff;
#X obj 12 428 geminitk;
#X text 404 623 Distortion ON / OFF;
#X obj 1009 100 lbang;
#X msg 1009 122 0.47;
#X obj 1009 144 s init_roomsize;
#N canvas 836 27 1070 1103 audio 1;
#X obj 426 977 *~;
#X obj 397 1006 dac~;
#X obj 487 947 hsl 128 15 0 1 0 0 empty empty Master_Volume 35 8 0
10 -262144 -1 -1 0 1;
#N canvas 0 22 450 278 (subpatch) 0;
#X array waveform1 1000 float 5;
#A 0 0 0 0 0 0 0 0 0 0 0 0 0 0 0 0 0 0 0 0 0 0 0 0 0 0 0 0 0 0 0 0
0 0 0 0 0 0 0 0 0 0 0 0 0 0 0 0 0 0 0 0 0 0 0 0 0 0 0 0 0 0 0 0 0 0
0 0 0 0 0 0 0 0 0 0 0 0 0 0 0 0 0 0 0 0 0 0 0 0 0 0 0 0 0 0 0 0 0 0
0 0 0 0 0 0 0 0 0 0 0 0 0 0 0 0 0 0 0 0 0 0 0 0 0 0 0 0 0 0 0 0 0 0
0 0 0 0 0 0 0 0 0 0 0 0 0 0 0 0 0 0 0 0 0 0 0 0 0 0 0 0 0 0 0 0 0 0
0 0 0 0 0 0 0 0 0 0 0 0 0 0 0 0 0 0 0 0 0 0 0 0 0 0 0 0 0 0 0 0 0 0
0 0 0 0 0 0 0 0 0 0 0 0 0 0 0 0 0 0 0 0 0 0 0 0 0 0 0 0 0 0 0 0 0 0
0 0 0 0 0 0 0 0 0 0 0 0 0 0 0 0 0 0 0 0 0 0 0 0 0 0 0 0 0 0 0 0 0 0
0 0 0 0 0 0 0 0 0 0 0 0 0 0 0 0 0 0 0 0 0 0 0 0 0 0 0 0 0 0 0 0 0 0
0 0 0 0 0 0 0 0 0 0 0 0 0 0 0 0 0 0 0 0 0 0 0 0 0 0 0 0 0 0 0 0 0 0
0 0 0 0 0 0 0 0 0 0 0 0 0 0 0 0 0 0 0 0 0 0 0 0 0 0 0 0 0 0 0 0 0 0
0 0 0 0 0 0 0 0 0 0 0 0 0 0 0 0 0 0 0 0 0 0 0 0 0 0 0 0 0 0 0 0 0 0
0 0 0 0 0 0 0 0 0 0 0 0 0 0 0 0 0 0 0 0 0 0 0 0 0 0 0 0 0 0 0 0 0 0
0 0 0 0 0 0 0 0 0 0 0 0 0 0 0 0 0 0 0 0 0 0 0 0 0 0 0 0 0 0 0 0 0 0
0 0 0 0 0 0 0 0 0 0 0 0 0 0 0 0 0 0 0 0 0 0 0 0 0 0 0 0 0 0 0 0 0 0
0 0 0 0 0 0 0 0 0 0 0 0 0 0 0 0 0 0 0 0 0 0 0 0 0 0 0 0 0 0 0 0 0 0
0 0 0 0 0 0 0 0 0 0 0 0 0 0 0 0 0 0 0 0 0 0 0 0 0 0 0 0 0 0 0 0 0 0
0 0 0 0 0 0 0 0 0 0 0 0 0 0 0 0 0 0 0 0 0 0 0 0 0 0 0 0 0 0 0 0 0 0
0 0 0 0 0 0 0 0 0 0 0 0 0 0 0 0 0 0 0 0 0 0 0 0 0 0 0 0 0 0 0 0 0 0
0 0 0 0 0 0 0 0 0 0 0 0 0 0 0 0 0 0 0 0 0 0 0 0 0 0 0 0 0 0 0 0 0 0
0 0 0 0 0 0 0 0 0 0 0 0 0 0 0 0 0 0 0 0 0 0 0 0 0 0 0 0 0 0 0 0 0 0
0 0 0 0 0 0 0 0 0 0 0 0 0 0 0 0 0 0 0 0 0 0 0 0 0 0 0 0 0 0 0 0 0 0
0 0 0 0 0 0 0 0 0 0 0 0 0 0 0 0 0 0 0 0 0 0 0 0 0 0 0 0 0 0 0 0 0 0
0 0 0 0 0 0 0 0 0 0 0 0 0 0 0 0 0 0 0 0 0 0 0 0 0 0 0 0 0 0 0 0 0 0
0 0 0 0 0 0 0 0 0 0 0 0 0 0 0 0 0 0 0 0 0 0 0 0 0 0 0 0 0 0 0 0 0 0
0 0 0 0 0 0 0 0 0 0 0 0 0 0 0 0 0 0 0 0 0 0 0 0 0 0 0 0 0 0 0 0 0 0
0 0 0 0 0 0 0 0 0 0 0 0 0 0 0 0 0 0 0 0 0 0 0 0 0 0 0 0 0 0 0 0 0 0
0 0 0 0 0 0 0 0 0 0 0 0 0 0 0 0 0 0 0 0 0 0 0 0 0 0 0 0 0 0 0 0 0 0
0 0 0 0 0 0 0 0 0 0 0 0 0 0 0 0 0 0 0 0 0 0 0 0 0 0 0 0 0 0 0 0 0 0
0 0 0 0 0 0 0 0 0 0 0 0 0 0 0 0 0;
#X coords 0 1 999 -1 200 140 1 0 0;
#X restore 466 757 graph;
#X obj 499 967 s mastervol;
#X obj 464 1001 lbang;
#X obj 464 1020 metro 100;
#X obj 464 1043 tabwrite~ waveform1;
#X obj 728 40 notein;
#X obj 64 719 distok~;
#X obj 64 585 reverbk~;
#X obj 64 975 tremolok~;
#X obj 415 54 importsoundk~;
#X obj 223 33 r penmidivel;
#X obj 111 33 r penmidinote;
#X obj 64 59 monosynth~;
#X obj 614 75 polysynthk~;
#X text 662 13 M I D I _ K E Y B O A R D;
#X text 169 9 T A B L E T;
#X obj 393 978 *~;
#X text 233 613 seuls les modifications des paramètres (on/off) \,
wet dry balance \, drive \, room size affectent des éléments visuels
pour l'instant;
#X connect 0 0 1 1;
#X connect 0 0 7 0;
#X connect 2 0 0 1;
#X connect 2 0 4 0;
#X connect 2 0 19 1;
#X connect 5 0 6 0;
#X connect 6 0 7 0;
#X connect 8 0 16 0;
#X connect 8 1 16 1;
#X connect 9 0 11 0;
#X connect 9 1 11 1;
#X connect 10 0 9 0;
#X connect 10 1 9 1;
#X connect 11 0 19 0;
#X connect 11 1 0 0;
#X connect 12 0 10 0;
#X connect 12 1 10 1;
#X connect 13 0 15 1;
#X connect 14 0 15 0;
#X connect 15 0 10 0;
#X connect 15 1 10 1;
#X connect 19 0 1 0;
#X restore 378 523 pd audio effects;
#N canvas 322 132 828 944 clip 0;
#X obj 10 17 inlet~;
#X obj 13 839 outlet~;
#N canvas 1105 23 765 533 reverb 0;
#X obj 172 161 freeverb~;
#X obj 35 348 +~;
#X msg 449 95 roomsize \$1;
#X msg 596 94 damping \$1;
#X obj 315 228 - 1;
#X obj 315 249 * -1;
#X obj 375 229 * 100;
#X floatatom 375 269 5 0 0 0 - - -, f 5;
#X text 396 268 %;
#X obj 375 249 int;
#X obj 35 5 inlet~;
#X obj 35 481 outlet~;
#X obj 449 32 inlet;
#X obj 596 37 inlet;
#X obj 315 33 inlet;
#X obj 172 234 *~;
#X floatatom 315 189 5 0 0 0 - - -, f 5;
#X obj 375 459 outlet;
#X text 289 14 balance wet/dry;
#X text 427 461 banalnce wet/dry %;
#X text 444 14 roomsize;
#X text 586 14 low shelf;
#X obj 35 286 *~ 1;
#X obj 128 131 *~;
#X obj 108 42 r rvbonoff;
#X obj 108 63 sel 0 1;
#X msg 108 197 1;
#X text 214 99 balance init;
#X obj 194 97 bng 15 250 50 0 empty empty empty 17 7 0 10 -262144 -1
-1;
#X msg 120 97 0;
#X msg 156 96 1;
#X text 46 197 vol init;
#X obj 449 139 lbang;
#X msg 449 161 0.47;
#X obj 449 183 s init_roomsize;
#X obj 586 456 outlet;
#X text 638 457 on / off;
#X obj 586 365 r rvbonoff;
#X connect 0 0 15 0;
#X connect 1 0 11 0;
#X connect 2 0 0 0;
#X connect 3 0 0 0;
#X connect 4 0 5 0;
#X connect 5 0 22 1;
#X connect 6 0 9 0;
#X connect 7 0 17 0;
#X connect 9 0 7 0;
#X connect 10 0 22 0;
#X connect 10 0 23 0;
#X connect 12 0 2 0;
#X connect 13 0 3 0;
#X connect 14 0 16 0;
#X connect 15 0 1 1;
#X connect 16 0 4 0;
#X connect 16 0 15 1;
#X connect 16 0 6 0;
#X connect 22 0 1 0;
#X connect 23 0 0 0;
#X connect 24 0 25 0;
#X connect 25 0 26 0;
#X connect 25 0 29 0;
#X connect 25 1 28 0;
#X connect 25 1 30 0;
#X connect 26 0 22 1;
#X connect 28 0 16 0;
#X connect 29 0 23 1;
#X connect 30 0 23 1;
#X connect 32 0 33 0;
#X connect 33 0 34 0;
#X connect 37 0 35 0;
#X restore 10 168 pd reverb;
#X obj 33 109 hsl 128 15 0 1 0 0 empty amout_init empty -2 -8 0 10
-262144 -1 -1 0 1;
#X text 45 109 wet/dry balance;
#X floatatom 22 191 5 0 0 0 - - -, f 5;
#X text 89 323 %;
#X obj 53 128 hsl 128 15 0 1 0 0 roomsize init_roomsize empty -2 -8
0 10 -262144 -1 -1 5969 1;
#X text 71 128 room size;
#X obj 73 147 hsl 128 15 0 1 0 0 empty empty empty -2 -8 0 10 -262144
-1 -1 0 1;
#X text 104 147 lowshelf;
#X obj 74 260 hsl 128 15 0 1 0 0 empty amount_init empty -2 -8 0 10
-262144 -1 -1 6350 1;
#X floatatom 71 324 5 0 0 0 - - -, f 5;
#X text 43 190 %;
#X text 107 259 amount;
#X obj 136 278 hsl 128 15 1 51 0 0 empty empty empty -2 -8 0 10 -262144
-1 -1 0 1;
#X obj 71 404 hsl 128 15 0 1 0 0 empty amount_init empty -2 -8 0 10
-262144 -1 -1 6350 1;
#X text 95 403 amount;
#X obj 101 421 hsl 128 15 0 0.99 0 0 empty empty empty -2 -8 0 10 -262144
-1 -1 0 1;
#X text 136 421 Drive;
#X floatatom 47 463 5 0 0 0 - - -, f 5;
#X text 65 462 %;
#X obj 70 190 tgl 15 0 empty empty empty 17 7 0 10 -262144 -1 -1 0
1;
#X obj 133 322 tgl 15 0 empty empty empty 17 7 0 10 -262144 -1 -1 0
1;
#X obj 98 463 tgl 15 0 empty empty empty 17 7 0 10 -262144 -1 -1 0
1;
#N canvas 1014 23 852 744 clip 0;
#X obj 35 628 +~;
#X obj 345 238 - 1;
#X obj 345 259 * -1;
#X obj 399 350 * 100;
#X floatatom 399 390 5 0 0 0 - - -, f 5;
#X text 421 390 %;
#X obj 399 370 int;
#X obj 35 5 inlet~;
#X obj 35 661 outlet~;
#X obj 345 33 inlet;
#X floatatom 345 149 5 0 0 0 - - -, f 5;
#X obj 399 654 outlet;
#X text 319 14 balance wet/dry;
#X text 451 654 banalnce wet/dry %;
#X obj 35 316 *~ 1;
#X obj 128 131 *~;
#X obj 108 63 sel 0 1;
#X msg 108 197 1;
#X text 214 99 balance init;
#X obj 194 97 bng 15 250 50 0 empty empty empty 17 7 0 10 -262144 -1
-1;
#X msg 120 97 0;
#X msg 156 96 1;
#X text 46 197 vol init;
#X obj 210 179 *~ 1;
#X floatatom 235 161 5 0 0 0 - - -, f 5;
#X obj 487 30 inlet;
#X text 484 13 gain, f 6;
#X obj 210 241 clip~ -1 1;
#X obj 210 589 *~ 1;
#X floatatom 487 129 4 0 0 0 - - -, f 4;
#X obj 487 107 expr $f1 * $f1;
#X obj 487 148 * -1;
#X floatatom 487 170 5 0 0 0 - - -, f 5;
#X text 319 0 amount;
#X obj 210 304 lop~ 5000;
#X obj 210 326 lop~ 5000;
#X obj 210 348 lop~ 5000;
#X obj 210 392 hip~ 60;
#X obj 210 414 hip~ 60;
#X obj 210 370 hip~ 60;
#X obj 487 66 expr ( $f1 - 1) * 0.02;
#X floatatom 487 88 5 0 0 0 - - -, f 5;
#X text 531 31 1 to 51 *****;
#X obj 487 189 + 1;
#X floatatom 487 211 5 0 0 0 - - -, f 5;
#X obj 611 371 expr tanh ($f1 * $f2);
#X obj 604 488 EXPR TANH (signal X * GAIN);
#X obj 108 38 r clipdistonoff;
#X obj 626 657 outlet;
#X text 678 658 on / off;
#X obj 626 588 r clipdistonoff;
#X obj 487 230 * 0.5;
#X obj 487 252 + 0.5;
#X floatatom 487 274 5 0 0 0 - - -, f 5;
#X obj 597 243 expr $f1 * $f1;
#X floatatom 597 265 5 0 0 0 - - -, f 5;
#X obj 601 287 - 1;
#X obj 601 308 * -1;
#X floatatom 601 330 5 0 0 0 - - -, f 5;
#X connect 0 0 8 0;
#X connect 1 0 2 0;
#X connect 2 0 14 1;
#X connect 3 0 6 0;
#X connect 4 0 11 0;
#X connect 6 0 4 0;
#X connect 7 0 14 0;
#X connect 7 0 15 0;
#X connect 9 0 10 0;
#X connect 10 0 1 0;
#X connect 10 0 3 0;
#X connect 10 0 28 1;
#X connect 14 0 0 0;
#X connect 15 0 23 0;
#X connect 16 0 17 0;
#X connect 16 0 20 0;
#X connect 16 1 19 0;
#X connect 16 1 21 0;
#X connect 17 0 14 1;
#X connect 19 0 10 0;
#X connect 20 0 15 1;
#X connect 21 0 15 1;
#X connect 23 0 27 0;
#X connect 24 0 23 1;
#X connect 25 0 24 0;
#X connect 25 0 40 0;
#X connect 27 0 34 0;
#X connect 28 0 0 1;
#X connect 29 0 31 0;
#X connect 29 0 27 2;
#X connect 29 0 54 0;
#X connect 30 0 29 0;
#X connect 31 0 32 0;
#X connect 32 0 27 1;
#X connect 32 0 43 0;
#X connect 34 0 35 0;
#X connect 35 0 36 0;
#X connect 36 0 39 0;
#X connect 37 0 38 0;
#X connect 38 0 28 0;
#X connect 39 0 37 0;
#X connect 40 0 41 0;
#X connect 41 0 30 0;
#X connect 43 0 44 0;
#X connect 44 0 51 0;
#X connect 47 0 16 0;
#X connect 50 0 48 0;
#X connect 51 0 52 0;
#X connect 52 0 53 0;
#X connect 54 0 55 0;
#X connect 55 0 56 0;
#X connect 56 0 57 0;
#X connect 57 0 58 0;
#X restore 10 297 pd clip distortion;
#N canvas 8 33 1042 962 distortion 0;
#X obj 15 778 +~;
#X obj 15 15 inlet~;
#X obj 15 811 outlet~;
#X obj 380 808 outlet;
#X text 432 808 banalnce wet/dry %;
#X obj 15 636 *~ 1;
#X obj 208 181 *~;
#X obj 188 134 sel 0 1;
#X msg 188 247 1;
#X text 294 159 balance init;
#X obj 274 157 bng 15 250 50 0 empty empty empty 17 7 0 10 -262144
-1 -1;
#X msg 200 157 0;
#X msg 236 156 1;
#X text 26 247 vol init;
#X obj 824 511 expr tanh ($f1 * $f2);
#X obj 823 534 EXPR TANH (signal X * GAIN);
#X obj 576 317 t b f;
#X obj 576 339 t b b b;
#X msg 576 490 normalize;
#X msg 599 361 259;
#X obj 599 383 until;
#X obj 599 405 counter 0 258;
#X obj 601 427 t f f;
#X floatatom 576 299 5 0 0 0 - - -, f 5;
#X floatatom 663 427 5 0 0 0 - - -, f 5;
#X obj 599 449 expr atan2 (($f1 - 129) / 129 \, 1 - $f2);
#X obj 599 469 tabwrite transfert_disto;
#X obj 576 512 s transfert_disto;
#X obj 266 285 tabread4~ transfert_disto;
#X obj 266 542 *~;
#X obj 426 15 inlet;
#X obj 426 559 - 1;
#X obj 426 580 * -1;
#X floatatom 426 520 5 0 0 0 - - -, f 5;
#X text 312 14 balance wet/dry;
#X obj 576 16 inlet;
#X text 619 17 drive;
#X obj 188 113 r transfertdistonoff;
#X obj 208 203 *~ 128;
#X obj 208 225 +~ 129;
#X obj 380 705 * 100;
#X floatatom 380 745 5 0 0 0 - - -, f 5;
#X text 401 744 %;
#X obj 380 725 int;
#X obj 626 797 outlet;
#X text 678 798 on / off;
#X obj 626 728 r transfertdistonoff;
#X obj 266 496 hip~ 60;
#X obj 266 518 hip~ 60;
#X obj 266 474 hip~ 60;
#X obj 266 383 lop~ 7000;
#X obj 266 404 lop~ 7000;
#X obj 266 338 lop~ 10000;
#X obj 266 360 lop~ 10000;
#N canvas 0 22 450 278 (subpatch) 0;
#X array transfert_disto 259 float 1;
#A 0 -1 -0.995046 -0.990053 -0.985021 -0.979951 -0.97484 -0.96969 -0.9645
-0.95927 -0.953999 -0.948687 -0.943334 -0.93794 -0.932504 -0.927025
-0.921504 -0.915941 -0.910335 -0.904685 -0.898993 -0.893256 -0.887475
-0.88165 -0.875781 -0.869866 -0.863907 -0.857902 -0.851852 -0.845756
-0.839614 -0.833425 -0.82719 -0.820909 -0.81458 -0.808204 -0.801781
-0.79531 -0.788792 -0.782226 -0.775611 -0.768948 -0.762237 -0.755477
-0.748668 -0.741811 -0.734904 -0.727948 -0.720943 -0.713889 -0.706785
-0.699632 -0.692429 -0.685176 -0.677874 -0.670523 -0.663121 -0.65567
-0.648169 -0.640619 -0.633019 -0.625369 -0.61767 -0.609921 -0.602123
-0.594276 -0.58638 -0.578435 -0.570442 -0.5624 -0.554309 -0.54617 -0.537984
-0.52975 -0.521468 -0.51314 -0.504765 -0.496343 -0.487876 -0.479362
-0.470804 -0.462201 -0.453553 -0.444861 -0.436126 -0.427348 -0.418528
-0.409666 -0.400762 -0.391818 -0.382833 -0.373809 -0.364746 -0.355645
-0.346507 -0.337332 -0.32812 -0.318874 -0.309593 -0.300278 -0.290931
-0.281551 -0.272141 -0.2627 -0.253229 -0.243731 -0.234204 -0.224651
-0.215072 -0.205469 -0.195842 -0.186193 -0.176522 -0.16683 -0.157119
-0.147389 -0.137642 -0.127879 -0.118101 -0.108309 -0.0985037 -0.088687
-0.0788596 -0.0690228 -0.0591778 -0.0493257 -0.0394676 -0.0296049 -0.0197386
-0.00986988 0 0.00986988 0.0197386 0.0296049 0.0394676 0.0493257 0.0591778
0.0690228 0.0788596 0.088687 0.0985037 0.108309 0.118101 0.127879 0.137642
0.147389 0.157119 0.16683 0.176522 0.186193 0.195842 0.205469 0.215072
0.224651 0.234204 0.243731 0.253229 0.2627 0.272141 0.281551 0.290931
0.300278 0.309593 0.318874 0.32812 0.337332 0.346507 0.355645 0.364746
0.373809 0.382833 0.391818 0.400762 0.409666 0.418528 0.427348 0.436126
0.444861 0.453553 0.462201 0.470804 0.479362 0.487876 0.496343 0.504765
0.51314 0.521468 0.52975 0.537984 0.54617 0.554309 0.5624 0.570442
0.578435 0.58638 0.594276 0.602123 0.609921 0.61767 0.625369 0.633019
0.640619 0.648169 0.65567 0.663121 0.670523 0.677874 0.685176 0.692429
0.699632 0.706785 0.713889 0.720943 0.727948 0.734904 0.741811 0.748668
0.755477 0.762237 0.768948 0.775611 0.782226 0.788792 0.79531 0.801781
0.808204 0.81458 0.820909 0.82719 0.833425 0.839614 0.845756 0.851852
0.857902 0.863907 0.869866 0.875781 0.88165 0.887475 0.893256 0.898993
0.904685 0.910335 0.915941 0.921504 0.927025 0.932504 0.93794 0.943334
0.948687 0.953999 0.95927 0.9645 0.96969 0.97484 0.979951 0.985021
0.990053 0.995046 1;
#X coords 0 1 258 -1 200 140 1 0 0;
#X restore 721 194 graph;
#X obj 266 426 lop~ 7000;
#X obj 266 448 lop~ 7000;
#X obj 68 724 *~ 1;
#X obj 93 17 inlet;
#X text 137 17 gain;
#X connect 0 0 2 0;
#X connect 1 0 5 0;
#X connect 1 0 6 0;
#X connect 5 0 0 0;
#X connect 6 0 38 0;
#X connect 7 0 8 0;
#X connect 7 0 11 0;
#X connect 7 1 10 0;
#X connect 7 1 12 0;
#X connect 8 0 5 1;
#X connect 10 0 33 0;
#X connect 11 0 6 1;
#X connect 12 0 6 1;
#X connect 16 0 17 0;
#X connect 16 1 25 1;
#X connect 17 0 18 0;
#X connect 17 1 19 0;
#X connect 17 2 21 2;
#X connect 18 0 27 0;
#X connect 19 0 20 0;
#X connect 20 0 21 0;
#X connect 21 0 22 0;
#X connect 21 0 24 0;
#X connect 22 0 25 0;
#X connect 22 1 26 1;
#X connect 23 0 16 0;
#X connect 25 0 26 0;
#X connect 28 0 52 0;
#X connect 29 0 57 0;
#X connect 30 0 33 0;
#X connect 31 0 32 0;
#X connect 32 0 5 1;
#X connect 33 0 31 0;
#X connect 33 0 29 1;
#X connect 33 0 40 0;
#X connect 35 0 23 0;
#X connect 37 0 7 0;
#X connect 38 0 39 0;
#X connect 39 0 28 0;
#X connect 40 0 43 0;
#X connect 41 0 3 0;
#X connect 43 0 41 0;
#X connect 46 0 44 0;
#X connect 47 0 48 0;
#X connect 48 0 29 0;
#X connect 49 0 47 0;
#X connect 50 0 51 0;
#X connect 51 0 55 0;
#X connect 52 0 53 0;
#X connect 53 0 50 0;
#X connect 55 0 56 0;
#X connect 56 0 49 0;
#X connect 57 0 0 1;
#X connect 58 0 57 1;
#X restore 10 440 pd distortion;
#X obj 42 386 hsl 128 15 0 1 0 0 empty gain_disto_init empty -2 -8
0 10 -262144 -1 -1 12700 1;
#X text 75 385 gain;
#X obj 107 738 s gain_disto_init;
#X obj 186 648 lbang;
#X msg 163 682 1;
#X obj 286 730 s amount_init;
#X msg 197 684 0.5;
#N canvas 799 249 941 639 tremolo 0;
#X obj 35 448 +~;
#X obj 428 228 - 1;
#X obj 428 249 * -1;
#X obj 468 229 * 100;
#X floatatom 468 269 5 0 0 0 - - -, f 5;
#X text 489 268 %;
#X obj 468 249 int;
#X obj 35 5 inlet~;
#X obj 35 481 outlet~;
#X obj 428 33 inlet;
#X obj 157 378 *~;
#X floatatom 428 189 5 0 0 0 - - -, f 5;
#X obj 468 459 outlet;
#X text 402 14 balance wet/dry;
#X text 520 461 banalnce wet/dry %;
#X obj 35 346 *~ 1;
#X obj 128 131 *~;
#X obj 108 63 sel 0 1;
#X msg 108 197 1;
#X text 214 99 balance init;
#X obj 194 97 bng 15 250 50 0 empty empty empty 17 7 0 10 -262144 -1
-1;
#X msg 120 97 0;
#X msg 156 96 1;
#X text 46 197 vol init;
#X obj 699 456 outlet;
#X text 751 457 on / off;
#X obj 108 42 r tremonoff;
#X obj 157 257 *~;
#X obj 265 206 +~ 1;
#X obj 265 228 *~ 0.5;
#X obj 265 184 osc~ 6;
#X obj 699 365 r tremonoff;
#X obj 265 11 inlet;
#X text 310 13 vitesse;
#X connect 0 0 8 0;
#X connect 1 0 2 0;
#X connect 2 0 15 1;
#X connect 3 0 6 0;
#X connect 4 0 12 0;
#X connect 6 0 4 0;
#X connect 7 0 15 0;
#X connect 7 0 16 0;
#X connect 9 0 11 0;
#X connect 10 0 0 1;
#X connect 11 0 1 0;
#X connect 11 0 10 1;
#X connect 11 0 3 0;
#X connect 15 0 0 0;
#X connect 16 0 27 0;
#X connect 17 0 18 0;
#X connect 17 0 21 0;
#X connect 17 1 20 0;
#X connect 17 1 22 0;
#X connect 18 0 15 1;
#X connect 20 0 11 0;
#X connect 21 0 16 1;
#X connect 22 0 16 1;
#X connect 26 0 17 0;
#X connect 27 0 10 0;
#X connect 28 0 29 0;
#X connect 29 0 27 1;
#X connect 30 0 28 0;
#X connect 31 0 24 0;
#X connect 32 0 30 0;
#X restore 10 600 pd tremolo;
#X obj 80 570 hsl 128 15 0 1 0 0 empty amount_init empty -2 -8 0 10
-262144 -1 -1 6350 1;
#X text 104 569 amount;
#X obj 46 552 hsl 128 15 0 15 0 0 empty gain_disto_init empty -2 -8
0 10 -262144 -1 -1 847 1;
#X text 74 552 vitesse;
#X floatatom 33 625 5 0 0 0 - - -, f 5;
#X text 51 624 %;
#X obj 77 623 tgl 15 0 empty empty empty 17 7 0 10 -262144 -1 -1 0
1;
#X text 173 279 intensity;
#X connect 2 0 25 0;
#X connect 2 1 5 0;
#X connect 2 2 22 0;
#X connect 3 0 2 1;
#X connect 7 0 2 2;
#X connect 9 0 2 3;
#X connect 11 0 25 1;
#X connect 15 0 25 2;
#X connect 16 0 26 2;
#X connect 18 0 26 3;
#X connect 25 0 26 0;
#X connect 25 1 12 0;
#X connect 25 2 23 0;
#X connect 26 0 34 0;
#X connect 26 1 20 0;
#X connect 26 2 24 0;
#X connect 27 0 26 1;
#X connect 30 0 31 0;
#X connect 30 0 33 0;
#X connect 31 0 29 0;
#X connect 33 0 32 0;
#X connect 34 1 39 0;
#X connect 34 2 41 0;
#X connect 35 0 34 2;
#X connect 37 0 34 1;
#X restore 909 30 pd clip disto;
#X obj 153 400 bng 15 250 50 0 empty empty empty 17 7 0 10 -262144
-1 -1;
#X text 172 398 init tempo;
#X obj 11 204 taptempo;
#X obj 11 182 bng 15 250 50 0 empty empty empty 17 7 0 10 -262144 -1
-1;
#X floatatom 11 226 5 0 0 0 - - -, f 5;
#X floatatom 64 226 5 0 0 0 - - -, f 5;
#X msg 133 311 1;
#X msg 167 314 2;
#X floatatom 12 407 5 0 0 0 - - -, f 5;
#X obj 133 287 loadbang;
#X obj 12 382 expr $f1 * $f2;
#X obj 11 269 t b f;
#X floatatom 75 337 5 0 0 0 - - -, f 5;
#X obj 75 356 t b f;
#X obj 8 11 r tremspeed;
#X floatatom 8 33 5 0 0 0 - - -, f 5;
#X obj 108 235 bng 15 250 50 0 empty empty empty 17 7 0 10 -262144
-1 -1;
#X obj 82 166 bng 15 250 50 0 empty empty empty 17 7 0 10 -262144 -1
-1;
#X obj 114 162 * 100;
#X obj 95 186 metro 100;
#X floatatom 8 74 5 0 0 0 - - -, f 5;
#X obj 8 52 expr 100 / $f1;
#X obj 8 93 expr 60000 / $f1;
#X floatatom 8 115 5 0 0 0 - - -, f 5;
#X obj 8 144 int;
#X msg 97 310 0.25;
#X msg 203 317 16;
#X obj 387 864 tgl 15 0 empty empty empty 17 7 0 10 -262144 -1 -1 0
1;
#X obj 176 139 block~ 64 0 0;
#N canvas 781 32 1115 1094 sphere 0;
#X msg 365 69 stop;
#X floatatom 609 527 5 0 0 0 - - -, f 5;
#X obj 556 473 rotateXYZ $f1 $f2 $f3;
#X obj 575 413 translateXYZ;
#X floatatom 676 391 5 0 0 0 - - -, f 5;
#X obj 566 261 random 100;
#X obj 566 283 * 0.01;
#X obj 684 659 hsl 128 15 -2.5 2.5 0 0 empty empty translate_X 40 8
0 10 -262144 -1 -1 0 1;
#X obj 680 693 * -1;
#X floatatom 680 713 5 0 0 0 - - -, f 5;
#X obj 251 345 counter 1 36000;
#X obj 251 369 * 0.01;
#X obj 251 391 + 120;
#X obj 251 413 + 120;
#X obj 268 280 lbang;
#X msg 325 405 draw line;
#X obj 556 544 sphere 2;
#X obj 87 726 hsl 128 15 0.1 5 0 0 empty empty size 50 8 0 10 -262144
-1 -1 6220 1;
#X obj 251 325 metro 0.5;
#X obj 340 88 metro 100;
#X obj 226 728 hsl 128 15 1 80 0 0 empty empty nb_de_lignes 35 8 0
10 -262144 -1 -1 0 1;
#X obj 763 24 inlet;
#X obj 548 189 gemhead;
#X obj 370 727 hsl 128 15 0 1 0 0 empty empty transparanty 40 8 0 10
-262144 -1 -1 3175 1;
#X obj 557 364 alpha;
#X obj 691 607 * 0.01;
#X obj 691 585 counter -250 250;
#X obj 703 524 bng 15 250 50 0 empty empty empty 17 7 0 10 -262144
-1 -1;
#X floatatom 704 636 5 0 0 0 - - -, f 5;
#X obj 691 553 metro 10;
#X floatatom 756 532 5 0 0 0 - - -, f 5;
#X msg 725 521 stop;
#X obj 344 39 bng 15 250 50 0 empty empty empty 17 7 0 10 -262144 -1
-1;
#X text 363 39 variation de couleurs;
#X floatatom 299 133 5 0 0 0 - - -, f 5;
#X msg 562 73 1;
#X msg 526 73 1;
#X msg 635 74 1;
#X msg 599 73 1;
#X obj 531 101 pack f f f f;
#X obj 559 12 bng 15 250 50 0 empty empty empty 17 7 0 10 -262144 -1
-1;
#X obj 632 302 unpack f f f f;
#X text 595 26 white;
#X msg 761 559 2;
#X obj 830 653 hsl 128 15 -2.5 2.5 0 0 empty empty translate_Y 40 8
0 10 -262144 -1 -1 0 1;
#X obj 827 699 * -1;
#X floatatom 827 719 5 0 0 0 - - -, f 5;
#X obj 838 613 * 0.01;
#X obj 838 591 counter -250 250;
#X obj 850 530 bng 15 250 50 0 empty empty empty 17 7 0 10 -262144
-1 -1;
#X floatatom 838 635 5 0 0 0 - - -, f 5;
#X obj 838 559 metro 10;
#X floatatom 903 538 5 0 0 0 - - -, f 5;
#X msg 872 527 stop;
#X msg 908 565 2;
#X msg 830 73 0;
#X msg 784 74 1;
#X text 794 57 on / off;
#X obj 794 811 hsl 128 15 -2.5 2.5 0 0 empty empty translate_Z 40 8
0 10 -262144 -1 -1 0 1;
#X obj 525 27 t b b;
#X obj 653 254 random 100;
#X obj 653 276 * 0.01;
#X obj 750 253 random 100;
#X obj 750 275 * 0.01;
#X obj 579 800 t a b;
#X obj 637 827 f;
#X obj 637 849 + 1;
#X obj 475 873 spigot;
#X floatatom 643 955 5 0 0 0 - - -, f 5;
#X floatatom 713 844 5 0 0 0 - - -, f 5;
#X obj 604 363 tgl 15 0 empty empty empty 17 7 0 10 -262144 -1 -1 0
1;
#X msg 785 343 0;
#X text 814 343 init;
#X text 573 777 faire la conexion;
#X msg 149 46 250;
#X msg 158 66 500;
#X msg 162 88 1000;
#X msg 167 109 2000;
#X msg 140 24 125;
#X msg 134 2 62.5;
#X text 209 112 1 barre;
#X text 204 91 2 temps;
#X text 188 68 4 temps;
#X floatatom 169 528 5 0 0 0 - - -, f 5;
#X obj 169 506 r drive_disto;
#X obj 169 637 * 50;
#X obj 356 657 r wetdry_disto_visual;
#X floatatom 169 681 5 0 0 0 - - -, f 5;
#X obj 169 659 - 24;
#X obj 356 679 * 0.5;
#X obj 556 330 colorRGB 1 1 1 1;
#X floatatom 194 617 5 0 0 0 - - -, f 5;
#X obj 169 547 + 0.5;
#X obj 169 575 expr ($f1 * $f1) * 40;
#X obj 169 597 - 39;
#X obj 638 874 mod 1;
#X floatatom 84 746 5 0 0 0 - - -, f 5;
#X floatatom 109 554 5 0 0 0 - - -, f 5;
#X obj 109 532 * 5;
#X obj 874 36 loadbang;
#X connect 0 0 19 0;
#X connect 1 0 16 2;
#X connect 2 0 16 0;
#X connect 3 0 2 0;
#X connect 4 0 3 1;
#X connect 5 0 6 0;
#X connect 6 0 90 1;
#X connect 7 0 8 0;
#X connect 7 0 4 0;
#X connect 8 0 9 0;
#X connect 10 0 11 0;
#X connect 11 0 12 0;
#X connect 12 0 13 0;
#X connect 13 0 2 1;
#X connect 13 0 2 2;
#X connect 13 0 2 3;
#X connect 14 0 15 0;
#X connect 14 0 18 0;
#X connect 15 0 16 0;
#X connect 16 0 64 0;
#X connect 17 0 16 1;
#X connect 17 0 96 0;
#X connect 18 0 10 0;
#X connect 19 0 5 0;
#X connect 19 0 60 0;
#X connect 19 0 62 0;
#X connect 20 0 1 0;
#X connect 21 0 22 0;
#X connect 22 0 90 0;
#X connect 23 0 90 4;
#X connect 24 0 3 0;
#X connect 25 0 28 0;
#X connect 26 0 25 0;
#X connect 27 0 29 0;
#X connect 27 0 43 0;
#X connect 28 0 58 0;
#X connect 28 0 7 0;
#X connect 29 0 26 0;
#X connect 30 0 29 1;
#X connect 31 0 29 0;
#X connect 32 0 19 0;
#X connect 34 0 19 1;
#X connect 35 0 39 1;
#X connect 36 0 39 0;
#X connect 37 0 39 3;
#X connect 38 0 39 2;
#X connect 39 0 41 0;
#X connect 40 0 59 0;
#X connect 41 0 90 1;
#X connect 41 1 90 2;
#X connect 41 2 90 3;
#X connect 41 3 90 4;
#X connect 43 0 26 1;
#X connect 44 0 45 0;
#X connect 44 0 3 2;
#X connect 45 0 46 0;
#X connect 47 0 50 0;
#X connect 48 0 47 0;
#X connect 49 0 51 0;
#X connect 49 0 54 0;
#X connect 50 0 44 0;
#X connect 51 0 48 0;
#X connect 52 0 51 1;
#X connect 53 0 51 0;
#X connect 54 0 48 1;
#X connect 55 0 22 0;
#X connect 56 0 22 0;
#X connect 58 0 3 3;
#X connect 59 0 36 0;
#X connect 59 0 35 0;
#X connect 59 0 38 0;
#X connect 59 0 37 0;
#X connect 59 1 0 0;
#X connect 60 0 61 0;
#X connect 61 0 90 2;
#X connect 62 0 63 0;
#X connect 63 0 90 3;
#X connect 64 0 67 0;
#X connect 64 1 65 0;
#X connect 65 0 66 0;
#X connect 66 0 65 1;
#X connect 66 0 95 0;
#X connect 67 0 3 0;
#X connect 68 0 67 1;
#X connect 69 0 95 1;
#X connect 70 0 24 1;
#X connect 71 0 3 1;
#X connect 71 0 3 2;
#X connect 71 0 3 3;
#X connect 71 0 2 1;
#X connect 71 0 2 2;
#X connect 71 0 2 3;
#X connect 74 0 34 0;
#X connect 75 0 34 0;
#X connect 76 0 34 0;
#X connect 77 0 34 0;
#X connect 78 0 34 0;
#X connect 79 0 34 0;
#X connect 83 0 92 0;
#X connect 83 0 98 0;
#X connect 84 0 83 0;
#X connect 85 0 88 0;
#X connect 86 0 89 0;
#X connect 88 0 87 0;
#X connect 89 0 23 0;
#X connect 90 0 24 0;
#X connect 91 0 69 0;
#X connect 92 0 93 0;
#X connect 93 0 94 0;
#X connect 94 0 91 0;
#X connect 95 0 68 0;
#X connect 97 0 17 0;
#X connect 98 0 97 0;
#X connect 99 0 55 0;
#X restore 385 887 pd sphere disto;
#X obj 382 909 r distoonoff_visual;
#X text 394 266 faire un bypass pour les effects;
#X text 500 523 <-- click to open;
#X obj 385 824 loadbang;
#X text 387 160 QUESTION :;
#X text 389 177 comment pourrais-je faire une reverb à convolution?
;
#X text 396 248 NOTES \;;
#X text 374 441 PRÉCISIONS :;
#X text 376 457 La sphere au centre bouge et tourne en fonction de
l'emplacement et de la pression du stylo sur la tablette;
#X text 285 525 OPEN!!!!!!->;
#X text 408 856 ne pas activer \, elle s'active en mettant l'objet
disrotion à on dans [pd audio effects];
#X text 547 574 <- les effets peuvent être activés ici mais pour
l'instant tous les contrôles sont modifiables dans dans [pd audio
effects];
#X connect 3 0 8 0;
#X connect 4 0 7 2;
#X connect 6 0 7 1;
#X connect 7 0 14 0;
#X connect 8 0 9 0;
#X connect 9 0 6 0;
#X connect 10 0 11 0;
#X connect 11 0 12 0;
#X connect 12 0 4 0;
#X connect 13 0 3 0;
#X connect 13 1 10 0;
#X connect 13 2 10 1;
#X connect 13 2 3 1;
#X connect 15 0 5 0;
#X connect 16 0 5 0;
#X connect 18 0 7 0;
#X connect 19 0 14 1;
#X connect 22 0 24 0;
#X connect 23 0 32 0;
#X connect 25 0 23 1;
#X connect 26 0 30 0;
#X connect 27 0 28 0;
#X connect 28 0 29 0;
#X connect 30 0 25 0;
#X connect 31 0 24 1;
#X connect 34 0 33 0;
#X connect 35 0 20 0;
#X connect 39 0 43 0;
#X connect 40 0 23 2;
#X connect 47 0 48 0;
#X connect 49 0 51 0;
#X connect 54 0 55 0;
#X connect 55 0 56 0;
#X connect 59 0 52 1;
#X connect 61 0 63 0;
#X connect 61 1 64 0;
#X connect 62 0 61 0;
#X connect 63 0 70 0;
#X connect 65 0 71 0;
#X connect 66 0 71 0;
#X connect 67 0 52 0;
#X connect 68 0 65 0;
#X connect 69 0 67 0;
#X connect 70 0 71 0;
#X connect 70 0 69 0;
#X connect 70 1 69 0;
#X connect 71 0 72 0;
#X connect 72 0 69 0;
#X connect 72 1 69 1;
#X connect 73 0 74 0;
#X connect 74 0 80 0;
#X connect 76 0 78 0;
#X connect 77 0 78 1;
#X connect 78 0 75 0;
#X connect 79 0 81 0;
#X connect 79 0 83 0;
#X connect 80 0 79 0;
#X connect 81 0 82 0;
#X connect 84 0 71 0;
#X connect 85 0 71 0;
#X connect 86 0 88 0;
#X connect 89 0 86 0;
#X connect 92 0 35 0;
